<svg viewBox="0 0 12 24" fill="none" xmlns="http://www.w3.org/2000/svg">
<path d="M10.3489 23.9999C10.2173 24.0007 10.0869 23.9754 9.96503 23.9257C9.84319 23.8759 9.73238 23.8026 9.63894 23.7099L1.46894 15.5399C1.00331 15.0755 0.633877 14.5237 0.381813 13.9163C0.129748 13.3088 0 12.6576 0 11.9999C0 11.3423 0.129748 10.691 0.381813 10.0836C0.633877 9.47614 1.00331 8.92439 1.46894 8.45993L9.63894 0.289941C9.73218 0.196702 9.84287 0.122742 9.96469 0.0722814C10.0865 0.0218212 10.2171 -0.00415039 10.3489 -0.00415039C10.4808 -0.00415039 10.6114 0.0218212 10.7332 0.0722814C10.855 0.122742 10.9657 0.196702 11.0589 0.289941C11.1522 0.383179 11.2261 0.493869 11.2766 0.615691C11.3271 0.737513 11.353 0.868081 11.353 0.99994C11.353 1.1318 11.3271 1.26237 11.2766 1.38419C11.2261 1.50601 11.1522 1.6167 11.0589 1.70994L2.88894 9.87993C2.32714 10.4424 2.01158 11.2049 2.01158 11.9999C2.01158 12.7949 2.32714 13.5574 2.88894 14.1199L11.0589 22.2899C11.1527 22.3829 11.2271 22.4935 11.2778 22.6153C11.3286 22.7372 11.3547 22.8679 11.3547 22.9999C11.3547 23.1319 11.3286 23.2626 11.2778 23.3845C11.2271 23.5063 11.1527 23.6169 11.0589 23.7099C10.9655 23.8026 10.8547 23.8759 10.7328 23.9257C10.611 23.9754 10.4805 24.0007 10.3489 23.9999Z" fill="#333355"/>
</svg>
