<svg viewBox="0 0 358 46" fill="none" xmlns="http://www.w3.org/2000/svg">
<g clip-path="url(#paint0_diamond_11_33_clip_path)" data-figma-skip-parse="true"><g transform="matrix(0.703 -0.031 0.00634123 0.142948 149.609 16.248)"><rect x="0" y="0" width="300.152" height="364.876" fill="url(#paint0_diamond_11_33)" opacity="1" shape-rendering="crispEdges"/><rect x="0" y="0" width="300.152" height="364.876" transform="scale(1 -1)" fill="url(#paint0_diamond_11_33)" opacity="1" shape-rendering="crispEdges"/><rect x="0" y="0" width="300.152" height="364.876" transform="scale(-1 1)" fill="url(#paint0_diamond_11_33)" opacity="1" shape-rendering="crispEdges"/><rect x="0" y="0" width="300.152" height="364.876" transform="scale(-1)" fill="url(#paint0_diamond_11_33)" opacity="1" shape-rendering="crispEdges"/></g></g><path d="M2.43199 45.376C0.810661 45.376 -5.97537e-06 44.9707 -5.97537e-06 44.16C-5.97537e-06 43.9467 0.0426607 43.584 0.127994 43.072L11.136 1.85598C11.4347 0.831984 12.4373 0.319984 14.144 0.319984H16.96C18.6667 0.319984 19.6693 0.831984 19.968 1.85598L30.912 43.072C30.9547 43.3707 30.9973 43.6053 31.04 43.776C31.0827 43.904 31.104 44.032 31.104 44.16C31.104 44.9707 30.2933 45.376 28.672 45.376H26.88C26.1973 45.376 25.6 45.2907 25.088 45.12C24.6187 44.9493 24.3413 44.6293 24.256 44.16L21.888 34.432H9.21599L6.78399 44.16C6.69866 44.6293 6.39999 44.9493 5.88799 45.12C5.41866 45.2907 4.84266 45.376 4.15999 45.376H2.43199ZM14.592 12.416L10.56 28.8H20.48L16.448 12.416C16.2773 11.776 16.128 11.0933 16 10.368C15.9147 9.64265 15.808 8.93865 15.68 8.25599H15.36C15.2747 8.93865 15.168 9.64265 15.04 10.368C14.912 11.0933 14.7627 11.776 14.592 12.416ZM45.263 45.376C44.1963 45.376 43.4283 45.248 42.959 44.992C42.5323 44.6933 42.319 44.288 42.319 43.776V2.55998C42.319 1.15198 43.023 0.447983 44.431 0.447983H54.159C62.607 0.447983 66.831 4.84265 66.831 13.632C66.831 16.2773 66.2763 18.5173 65.167 20.352C64.1003 22.1867 62.5217 23.3387 60.431 23.808V24.064C62.479 25.0027 63.9723 26.944 64.911 29.888L68.879 42.56C69.007 42.9013 69.0923 43.2213 69.135 43.52C69.2203 43.8187 69.263 44.0533 69.263 44.224C69.263 44.6933 69.0283 45.0133 68.559 45.184C68.1323 45.312 67.407 45.376 66.383 45.376H65.103C63.439 45.376 62.479 44.9067 62.223 43.968L58.575 31.808C57.935 29.6747 57.1883 28.2453 56.335 27.52C55.4817 26.7947 54.223 26.432 52.559 26.432H49.295V43.776C49.295 44.288 49.0603 44.6933 48.591 44.992C48.1217 45.248 47.3537 45.376 46.287 45.376H45.263ZM49.295 20.544H54.287C56.2923 20.544 57.7217 20.0107 58.575 18.944C59.471 17.8347 59.919 16.064 59.919 13.632C59.919 11.072 59.471 9.21598 58.575 8.06398C57.7217 6.91198 56.2923 6.33598 54.287 6.33598H49.295V20.544ZM78.927 30.848C77.9457 30.848 77.455 30.08 77.455 28.544V27.968C77.455 26.4747 77.9457 25.728 78.927 25.728H89.167C90.1483 25.728 90.639 26.4747 90.639 27.968V28.544C90.639 30.08 90.1483 30.848 89.167 30.848H78.927ZM104.335 45.696C103.439 45.696 102.543 45.6107 101.647 45.44C100.751 45.2693 100.004 45.0347 99.407 44.736C98.8097 44.3947 98.511 43.9893 98.511 43.52C98.511 43.008 98.5963 42.432 98.767 41.792C98.9377 41.152 99.151 40.5973 99.407 40.128C99.663 39.6587 99.9403 39.424 100.239 39.424C100.538 39.424 100.943 39.5093 101.455 39.68C101.967 39.8507 102.607 39.936 103.375 39.936C104.826 39.936 105.892 39.5307 106.575 38.72C107.258 37.9093 107.599 36.544 107.599 34.624V1.91998C107.599 1.40798 107.834 1.02398 108.303 0.767982C108.772 0.469317 109.54 0.319984 110.607 0.319984H111.631C112.698 0.319984 113.444 0.469317 113.871 0.767982C114.34 1.02398 114.575 1.40798 114.575 1.91998V33.984C114.575 37.6533 113.764 40.5333 112.143 42.624C110.522 44.672 107.919 45.696 104.335 45.696ZM144.099 45.696C138.766 45.696 134.712 43.8187 131.939 40.064C129.208 36.3093 127.843 30.5493 127.843 22.784C127.843 14.976 129.208 9.23732 131.939 5.56799C134.712 1.85599 138.766 -1.52588e-05 144.099 -1.52588e-05C149.432 -1.52588e-05 153.464 1.85599 156.195 5.56799C158.926 9.23732 160.291 14.976 160.291 22.784C160.291 30.5493 158.926 36.3093 156.195 40.064C153.464 43.8187 149.432 45.696 144.099 45.696ZM144.099 39.808C147.256 39.808 149.56 38.4427 151.011 35.712C152.504 32.9813 153.251 28.672 153.251 22.784C153.251 16.9387 152.504 12.672 151.011 9.98399C149.56 7.25332 147.256 5.88799 144.099 5.88799C140.899 5.88799 138.552 7.25332 137.059 9.98399C135.608 12.672 134.883 16.9387 134.883 22.784C134.883 28.672 135.608 32.9813 137.059 35.712C138.552 38.4427 140.899 39.808 144.099 39.808ZM188.066 45.696C183.33 45.696 179.703 44.5867 177.186 42.368C174.711 40.1067 173.474 36.8427 173.474 32.576V1.91998C173.474 1.40798 173.687 1.02398 174.114 0.767982C174.583 0.469317 175.351 0.319984 176.418 0.319984H177.442C178.509 0.319984 179.277 0.469317 179.746 0.767982C180.215 1.02398 180.45 1.40798 180.45 1.91998V32.704C180.45 35.008 181.111 36.7787 182.434 38.016C183.799 39.2107 185.677 39.808 188.066 39.808C190.413 39.808 192.247 39.2107 193.57 38.016C194.935 36.7787 195.618 35.008 195.618 32.704V1.91998C195.618 0.853317 196.621 0.319984 198.626 0.319984H199.586C200.695 0.319984 201.463 0.469317 201.89 0.767982C202.359 1.02398 202.594 1.40798 202.594 1.91998V32.576C202.594 36.8427 201.335 40.1067 198.818 42.368C196.343 44.5867 192.759 45.696 188.066 45.696ZM220.888 45.376C219.821 45.376 219.053 45.248 218.584 44.992C218.157 44.6933 217.944 44.288 217.944 43.776V2.55998C217.944 1.15198 218.648 0.447983 220.056 0.447983H229.784C238.232 0.447983 242.456 4.84265 242.456 13.632C242.456 16.2773 241.901 18.5173 240.792 20.352C239.725 22.1867 238.147 23.3387 236.056 23.808V24.064C238.104 25.0027 239.597 26.944 240.536 29.888L244.504 42.56C244.632 42.9013 244.717 43.2213 244.76 43.52C244.845 43.8187 244.888 44.0533 244.888 44.224C244.888 44.6933 244.653 45.0133 244.184 45.184C243.757 45.312 243.032 45.376 242.008 45.376H240.728C239.064 45.376 238.104 44.9067 237.848 43.968L234.2 31.808C233.56 29.6747 232.813 28.2453 231.96 27.52C231.107 26.7947 229.848 26.432 228.184 26.432H224.92V43.776C224.92 44.288 224.685 44.6933 224.216 44.992C223.747 45.248 222.979 45.376 221.912 45.376H220.888ZM224.92 20.544H229.912C231.917 20.544 233.347 20.0107 234.2 18.944C235.096 17.8347 235.544 16.064 235.544 13.632C235.544 11.072 235.096 9.21598 234.2 8.06398C233.347 6.91198 231.917 6.33598 229.912 6.33598H224.92V20.544ZM259.288 45.376C258.221 45.376 257.453 45.248 256.984 44.992C256.557 44.6933 256.344 44.288 256.344 43.776V1.91998C256.344 0.853317 257.325 0.319984 259.288 0.319984H260.824C261.763 0.319984 262.467 0.426651 262.936 0.639984C263.448 0.853317 263.853 1.23732 264.152 1.79198L276.504 27.52C276.76 28.0747 277.016 28.7573 277.272 29.568C277.571 30.336 277.827 31.0613 278.04 31.744L278.296 31.68C278.253 31.168 278.189 30.5067 278.104 29.696C278.061 28.8853 278.04 28.096 278.04 27.328V1.91998C278.04 1.40798 278.253 1.02398 278.68 0.767982C279.149 0.469317 279.917 0.319984 280.984 0.319984H281.816C282.883 0.319984 283.629 0.469317 284.056 0.767982C284.525 1.02398 284.76 1.40798 284.76 1.91998V43.776C284.76 44.8427 283.779 45.376 281.816 45.376H280.088C279.192 45.376 278.509 45.2907 278.04 45.12C277.613 44.9067 277.251 44.5227 276.952 43.968L264.536 18.048C264.323 17.536 264.067 16.896 263.768 16.128C263.512 15.36 263.277 14.6133 263.064 13.888L262.808 13.952C262.851 14.592 262.893 15.296 262.936 16.064C263.021 16.832 263.064 17.5787 263.064 18.304V43.776C263.064 44.288 262.829 44.6933 262.36 44.992C261.933 45.248 261.187 45.376 260.12 45.376H259.288ZM298.382 45.376C296.761 45.376 295.95 44.9707 295.95 44.16C295.95 43.9467 295.993 43.584 296.078 43.072L307.086 1.85598C307.385 0.831984 308.387 0.319984 310.094 0.319984H312.91C314.617 0.319984 315.619 0.831984 315.918 1.85598L326.862 43.072C326.905 43.3707 326.947 43.6053 326.99 43.776C327.033 43.904 327.054 44.032 327.054 44.16C327.054 44.9707 326.243 45.376 324.622 45.376H322.83C322.147 45.376 321.55 45.2907 321.038 45.12C320.569 44.9493 320.291 44.6293 320.206 44.16L317.838 34.432H305.166L302.734 44.16C302.649 44.6293 302.35 44.9493 301.838 45.12C301.369 45.2907 300.793 45.376 300.11 45.376H298.382ZM310.542 12.416L306.51 28.8H316.43L312.398 12.416C312.227 11.776 312.078 11.0933 311.95 10.368C311.865 9.64265 311.758 8.93865 311.63 8.25599H311.31C311.225 8.93865 311.118 9.64265 310.99 10.368C310.862 11.0933 310.713 11.776 310.542 12.416ZM340.381 45.248C338.973 45.248 338.269 44.544 338.269 43.136V1.91998C338.269 1.40798 338.482 1.02398 338.909 0.767982C339.378 0.469317 340.146 0.319984 341.213 0.319984H342.237C343.304 0.319984 344.072 0.469317 344.541 0.767982C345.01 1.02398 345.245 1.40798 345.245 1.91998V39.36H356.445C357.426 39.36 357.917 40.128 357.917 41.664V42.944C357.917 44.48 357.426 45.248 356.445 45.248H340.381Z" data-figma-gradient-fill="{&#34;type&#34;:&#34;GRADIENT_DIAMOND&#34;,&#34;stops&#34;:[{&#34;color&#34;:{&#34;r&#34;:0.34143927693367004,&#34;g&#34;:0.17814230918884277,&#34;b&#34;:0.57005488872528076,&#34;a&#34;:1.0},&#34;position&#34;:0.0},{&#34;color&#34;:{&#34;r&#34;:0.91442316770553589,&#34;g&#34;:0.81662106513977051,&#34;b&#34;:1.0,&#34;a&#34;:1.0},&#34;position&#34;:1.0}],&#34;stopsVar&#34;:[{&#34;color&#34;:{&#34;r&#34;:0.34143927693367004,&#34;g&#34;:0.17814230918884277,&#34;b&#34;:0.57005488872528076,&#34;a&#34;:1.0},&#34;position&#34;:0.0},{&#34;color&#34;:{&#34;r&#34;:0.91442316770553589,&#34;g&#34;:0.81662106513977051,&#34;b&#34;:1.0,&#34;a&#34;:1.0},&#34;position&#34;:1.0}],&#34;transform&#34;:{&#34;m00&#34;:1406.0,&#34;m01&#34;:12.682456970214844,&#34;m02&#34;:-559.73175048828125,&#34;m10&#34;:-62.000003814697266,&#34;m11&#34;:285.89627075195312,&#34;m12&#34;:-95.700157165527344},&#34;opacity&#34;:1.0,&#34;blendMode&#34;:&#34;NORMAL&#34;,&#34;visible&#34;:true}"/>
<defs>
<clipPath id="paint0_diamond_11_33_clip_path"><path d="M2.43199 45.376C0.810661 45.376 -5.97537e-06 44.9707 -5.97537e-06 44.16C-5.97537e-06 43.9467 0.0426607 43.584 0.127994 43.072L11.136 1.85598C11.4347 0.831984 12.4373 0.319984 14.144 0.319984H16.96C18.6667 0.319984 19.6693 0.831984 19.968 1.85598L30.912 43.072C30.9547 43.3707 30.9973 43.6053 31.04 43.776C31.0827 43.904 31.104 44.032 31.104 44.16C31.104 44.9707 30.2933 45.376 28.672 45.376H26.88C26.1973 45.376 25.6 45.2907 25.088 45.12C24.6187 44.9493 24.3413 44.6293 24.256 44.16L21.888 34.432H9.21599L6.78399 44.16C6.69866 44.6293 6.39999 44.9493 5.88799 45.12C5.41866 45.2907 4.84266 45.376 4.15999 45.376H2.43199ZM14.592 12.416L10.56 28.8H20.48L16.448 12.416C16.2773 11.776 16.128 11.0933 16 10.368C15.9147 9.64265 15.808 8.93865 15.68 8.25599H15.36C15.2747 8.93865 15.168 9.64265 15.04 10.368C14.912 11.0933 14.7627 11.776 14.592 12.416ZM45.263 45.376C44.1963 45.376 43.4283 45.248 42.959 44.992C42.5323 44.6933 42.319 44.288 42.319 43.776V2.55998C42.319 1.15198 43.023 0.447983 44.431 0.447983H54.159C62.607 0.447983 66.831 4.84265 66.831 13.632C66.831 16.2773 66.2763 18.5173 65.167 20.352C64.1003 22.1867 62.5217 23.3387 60.431 23.808V24.064C62.479 25.0027 63.9723 26.944 64.911 29.888L68.879 42.56C69.007 42.9013 69.0923 43.2213 69.135 43.52C69.2203 43.8187 69.263 44.0533 69.263 44.224C69.263 44.6933 69.0283 45.0133 68.559 45.184C68.1323 45.312 67.407 45.376 66.383 45.376H65.103C63.439 45.376 62.479 44.9067 62.223 43.968L58.575 31.808C57.935 29.6747 57.1883 28.2453 56.335 27.52C55.4817 26.7947 54.223 26.432 52.559 26.432H49.295V43.776C49.295 44.288 49.0603 44.6933 48.591 44.992C48.1217 45.248 47.3537 45.376 46.287 45.376H45.263ZM49.295 20.544H54.287C56.2923 20.544 57.7217 20.0107 58.575 18.944C59.471 17.8347 59.919 16.064 59.919 13.632C59.919 11.072 59.471 9.21598 58.575 8.06398C57.7217 6.91198 56.2923 6.33598 54.287 6.33598H49.295V20.544ZM78.927 30.848C77.9457 30.848 77.455 30.08 77.455 28.544V27.968C77.455 26.4747 77.9457 25.728 78.927 25.728H89.167C90.1483 25.728 90.639 26.4747 90.639 27.968V28.544C90.639 30.08 90.1483 30.848 89.167 30.848H78.927ZM104.335 45.696C103.439 45.696 102.543 45.6107 101.647 45.44C100.751 45.2693 100.004 45.0347 99.407 44.736C98.8097 44.3947 98.511 43.9893 98.511 43.52C98.511 43.008 98.5963 42.432 98.767 41.792C98.9377 41.152 99.151 40.5973 99.407 40.128C99.663 39.6587 99.9403 39.424 100.239 39.424C100.538 39.424 100.943 39.5093 101.455 39.68C101.967 39.8507 102.607 39.936 103.375 39.936C104.826 39.936 105.892 39.5307 106.575 38.72C107.258 37.9093 107.599 36.544 107.599 34.624V1.91998C107.599 1.40798 107.834 1.02398 108.303 0.767982C108.772 0.469317 109.54 0.319984 110.607 0.319984H111.631C112.698 0.319984 113.444 0.469317 113.871 0.767982C114.34 1.02398 114.575 1.40798 114.575 1.91998V33.984C114.575 37.6533 113.764 40.5333 112.143 42.624C110.522 44.672 107.919 45.696 104.335 45.696ZM144.099 45.696C138.766 45.696 134.712 43.8187 131.939 40.064C129.208 36.3093 127.843 30.5493 127.843 22.784C127.843 14.976 129.208 9.23732 131.939 5.56799C134.712 1.85599 138.766 -1.52588e-05 144.099 -1.52588e-05C149.432 -1.52588e-05 153.464 1.85599 156.195 5.56799C158.926 9.23732 160.291 14.976 160.291 22.784C160.291 30.5493 158.926 36.3093 156.195 40.064C153.464 43.8187 149.432 45.696 144.099 45.696ZM144.099 39.808C147.256 39.808 149.56 38.4427 151.011 35.712C152.504 32.9813 153.251 28.672 153.251 22.784C153.251 16.9387 152.504 12.672 151.011 9.98399C149.56 7.25332 147.256 5.88799 144.099 5.88799C140.899 5.88799 138.552 7.25332 137.059 9.98399C135.608 12.672 134.883 16.9387 134.883 22.784C134.883 28.672 135.608 32.9813 137.059 35.712C138.552 38.4427 140.899 39.808 144.099 39.808ZM188.066 45.696C183.33 45.696 179.703 44.5867 177.186 42.368C174.711 40.1067 173.474 36.8427 173.474 32.576V1.91998C173.474 1.40798 173.687 1.02398 174.114 0.767982C174.583 0.469317 175.351 0.319984 176.418 0.319984H177.442C178.509 0.319984 179.277 0.469317 179.746 0.767982C180.215 1.02398 180.45 1.40798 180.45 1.91998V32.704C180.45 35.008 181.111 36.7787 182.434 38.016C183.799 39.2107 185.677 39.808 188.066 39.808C190.413 39.808 192.247 39.2107 193.57 38.016C194.935 36.7787 195.618 35.008 195.618 32.704V1.91998C195.618 0.853317 196.621 0.319984 198.626 0.319984H199.586C200.695 0.319984 201.463 0.469317 201.89 0.767982C202.359 1.02398 202.594 1.40798 202.594 1.91998V32.576C202.594 36.8427 201.335 40.1067 198.818 42.368C196.343 44.5867 192.759 45.696 188.066 45.696ZM220.888 45.376C219.821 45.376 219.053 45.248 218.584 44.992C218.157 44.6933 217.944 44.288 217.944 43.776V2.55998C217.944 1.15198 218.648 0.447983 220.056 0.447983H229.784C238.232 0.447983 242.456 4.84265 242.456 13.632C242.456 16.2773 241.901 18.5173 240.792 20.352C239.725 22.1867 238.147 23.3387 236.056 23.808V24.064C238.104 25.0027 239.597 26.944 240.536 29.888L244.504 42.56C244.632 42.9013 244.717 43.2213 244.76 43.52C244.845 43.8187 244.888 44.0533 244.888 44.224C244.888 44.6933 244.653 45.0133 244.184 45.184C243.757 45.312 243.032 45.376 242.008 45.376H240.728C239.064 45.376 238.104 44.9067 237.848 43.968L234.2 31.808C233.56 29.6747 232.813 28.2453 231.96 27.52C231.107 26.7947 229.848 26.432 228.184 26.432H224.92V43.776C224.92 44.288 224.685 44.6933 224.216 44.992C223.747 45.248 222.979 45.376 221.912 45.376H220.888ZM224.92 20.544H229.912C231.917 20.544 233.347 20.0107 234.2 18.944C235.096 17.8347 235.544 16.064 235.544 13.632C235.544 11.072 235.096 9.21598 234.2 8.06398C233.347 6.91198 231.917 6.33598 229.912 6.33598H224.92V20.544ZM259.288 45.376C258.221 45.376 257.453 45.248 256.984 44.992C256.557 44.6933 256.344 44.288 256.344 43.776V1.91998C256.344 0.853317 257.325 0.319984 259.288 0.319984H260.824C261.763 0.319984 262.467 0.426651 262.936 0.639984C263.448 0.853317 263.853 1.23732 264.152 1.79198L276.504 27.52C276.76 28.0747 277.016 28.7573 277.272 29.568C277.571 30.336 277.827 31.0613 278.04 31.744L278.296 31.68C278.253 31.168 278.189 30.5067 278.104 29.696C278.061 28.8853 278.04 28.096 278.04 27.328V1.91998C278.04 1.40798 278.253 1.02398 278.68 0.767982C279.149 0.469317 279.917 0.319984 280.984 0.319984H281.816C282.883 0.319984 283.629 0.469317 284.056 0.767982C284.525 1.02398 284.76 1.40798 284.76 1.91998V43.776C284.76 44.8427 283.779 45.376 281.816 45.376H280.088C279.192 45.376 278.509 45.2907 278.04 45.12C277.613 44.9067 277.251 44.5227 276.952 43.968L264.536 18.048C264.323 17.536 264.067 16.896 263.768 16.128C263.512 15.36 263.277 14.6133 263.064 13.888L262.808 13.952C262.851 14.592 262.893 15.296 262.936 16.064C263.021 16.832 263.064 17.5787 263.064 18.304V43.776C263.064 44.288 262.829 44.6933 262.36 44.992C261.933 45.248 261.187 45.376 260.12 45.376H259.288ZM298.382 45.376C296.761 45.376 295.95 44.9707 295.95 44.16C295.95 43.9467 295.993 43.584 296.078 43.072L307.086 1.85598C307.385 0.831984 308.387 0.319984 310.094 0.319984H312.91C314.617 0.319984 315.619 0.831984 315.918 1.85598L326.862 43.072C326.905 43.3707 326.947 43.6053 326.99 43.776C327.033 43.904 327.054 44.032 327.054 44.16C327.054 44.9707 326.243 45.376 324.622 45.376H322.83C322.147 45.376 321.55 45.2907 321.038 45.12C320.569 44.9493 320.291 44.6293 320.206 44.16L317.838 34.432H305.166L302.734 44.16C302.649 44.6293 302.35 44.9493 301.838 45.12C301.369 45.2907 300.793 45.376 300.11 45.376H298.382ZM310.542 12.416L306.51 28.8H316.43L312.398 12.416C312.227 11.776 312.078 11.0933 311.95 10.368C311.865 9.64265 311.758 8.93865 311.63 8.25599H311.31C311.225 8.93865 311.118 9.64265 310.99 10.368C310.862 11.0933 310.713 11.776 310.542 12.416ZM340.381 45.248C338.973 45.248 338.269 44.544 338.269 43.136V1.91998C338.269 1.40798 338.482 1.02398 338.909 0.767982C339.378 0.469317 340.146 0.319984 341.213 0.319984H342.237C343.304 0.319984 344.072 0.469317 344.541 0.767982C345.01 1.02398 345.245 1.40798 345.245 1.91998V39.36H356.445C357.426 39.36 357.917 40.128 357.917 41.664V42.944C357.917 44.48 357.426 45.248 356.445 45.248H340.381Z"/></clipPath><linearGradient id="paint0_diamond_11_33" x1="0" y1="0" x2="500" y2="500" gradientUnits="userSpaceOnUse">
<stop stop-color="#572D91"/>
<stop offset="1" stop-color="#E9D0FF"/>
</linearGradient>
</defs>
</svg>
