<svg width="435" height="46" viewBox="0 0 435 46" fill="none" xmlns="http://www.w3.org/2000/svg">
<g clip-path="url(#paint0_diamond_22_107_clip_path)" data-figma-skip-parse="true"><g transform="matrix(0.863574 -0.031 0.00778964 0.142948 179.334 16.44)"><rect x="0" y="0" width="299.888" height="364.818" fill="url(#paint0_diamond_22_107)" opacity="1" shape-rendering="crispEdges"/><rect x="0" y="0" width="299.888" height="364.818" transform="scale(1 -1)" fill="url(#paint0_diamond_22_107)" opacity="1" shape-rendering="crispEdges"/><rect x="0" y="0" width="299.888" height="364.818" transform="scale(-1 1)" fill="url(#paint0_diamond_22_107)" opacity="1" shape-rendering="crispEdges"/><rect x="0" y="0" width="299.888" height="364.818" transform="scale(-1)" fill="url(#paint0_diamond_22_107)" opacity="1" shape-rendering="crispEdges"/></g></g><path d="M2.11203 45.44C0.704034 45.44 3.38554e-05 44.736 3.38554e-05 43.328V2.752C3.38554e-05 1.344 0.640034 0.639999 1.92003 0.639999H11.008C15.2747 0.639999 18.432 1.70667 20.48 3.84C22.528 5.93067 23.552 8.91733 23.552 12.8C23.552 14.9333 23.04 16.8107 22.016 18.432C21.0347 20.0533 19.6694 21.2053 17.92 21.888V22.144C20.1387 22.8693 21.9094 24.192 23.232 26.112C24.5547 28.032 25.216 30.272 25.216 32.832C25.216 41.2373 20.6507 45.44 11.52 45.44H2.11203ZM6.84803 19.648H11.008C12.8854 19.648 14.3147 19.072 15.296 17.92C16.32 16.768 16.832 15.1467 16.832 13.056C16.832 8.704 14.8907 6.528 11.008 6.528H6.84803V19.648ZM6.84803 39.552H11.52C15.9574 39.552 18.176 37.2053 18.176 32.512C18.176 30.208 17.5787 28.4587 16.384 27.264C15.1894 26.0267 13.3974 25.408 11.008 25.408H6.84803V39.552ZM34.6005 45.568C32.9792 45.568 32.1685 45.1627 32.1685 44.352C32.1685 44.1387 32.2112 43.776 32.2965 43.264L43.3045 2.048C43.6032 1.024 44.6059 0.512001 46.3125 0.512001H49.1285C50.8352 0.512001 51.8379 1.024 52.1365 2.048L63.0805 43.264C63.1232 43.5627 63.1659 43.7973 63.2085 43.968C63.2512 44.096 63.2725 44.224 63.2725 44.352C63.2725 45.1627 62.4619 45.568 60.8405 45.568H59.0485C58.3659 45.568 57.7685 45.4827 57.2565 45.312C56.7872 45.1413 56.5099 44.8213 56.4245 44.352L54.0565 34.624H41.3845L38.9525 44.352C38.8672 44.8213 38.5685 45.1413 38.0565 45.312C37.5872 45.4827 37.0112 45.568 36.3285 45.568H34.6005ZM46.7605 12.608L42.7285 28.992H52.6485L48.6165 12.608C48.4459 11.968 48.2965 11.2853 48.1685 10.56C48.0832 9.83467 47.9765 9.13067 47.8485 8.448H47.5285C47.4432 9.13067 47.3365 9.83467 47.2085 10.56C47.0805 11.2853 46.9312 11.968 46.7605 12.608ZM89.2075 45.888C83.4475 45.888 79.2022 44.032 76.4715 40.32C73.7835 36.5653 72.4395 30.7627 72.4395 22.912C72.4395 15.232 73.8262 9.536 76.5995 5.824C79.3729 2.06933 83.6395 0.192001 89.3995 0.192001C90.5942 0.192001 91.7462 0.298668 92.8555 0.512001C93.9649 0.725334 94.8822 0.981333 95.6075 1.28C96.5035 1.57867 96.9515 2.15467 96.9515 3.008C96.9515 3.81867 96.8235 4.672 96.5675 5.568C96.3115 6.464 95.8849 6.912 95.2875 6.912C94.7755 6.912 94.0502 6.784 93.1115 6.528C92.2155 6.272 91.0209 6.144 89.5275 6.144C85.9862 6.144 83.4262 7.46667 81.8475 10.112C80.2689 12.7573 79.4795 17.024 79.4795 22.912C79.4795 28.8853 80.2689 33.216 81.8475 35.904C83.4689 38.5493 86.0289 39.872 89.5275 39.872C91.3622 39.872 92.7915 39.68 93.8155 39.296C94.8395 38.912 95.5649 38.72 95.9915 38.72C96.5462 38.72 96.9729 39.168 97.2715 40.064C97.5702 40.9173 97.7195 41.792 97.7195 42.688C97.7195 43.0293 97.6342 43.3493 97.4635 43.648C97.2929 43.9467 96.9515 44.2027 96.4395 44.416C95.5862 44.8 94.5409 45.1413 93.3035 45.44C92.0662 45.7387 90.7009 45.888 89.2075 45.888ZM112.644 45.568C111.577 45.568 110.809 45.44 110.34 45.184C109.913 44.8853 109.7 44.48 109.7 43.968V2.112C109.7 1.6 109.913 1.216 110.34 0.959999C110.809 0.661334 111.577 0.512001 112.644 0.512001H113.668C114.735 0.512001 115.503 0.661334 115.972 0.959999C116.441 1.216 116.676 1.6 116.676 2.112V20.352H116.932L128.068 1.792C128.367 1.28 128.729 0.938669 129.156 0.768002C129.583 0.597335 130.329 0.512001 131.396 0.512001H132.292C133.316 0.512001 134.02 0.597335 134.404 0.768002C134.788 0.938669 134.98 1.19467 134.98 1.536C134.98 2.00533 134.767 2.56 134.34 3.2L122.82 22.4L135.684 43.392C135.897 43.7333 136.025 43.9893 136.068 44.16C136.111 44.3307 136.132 44.5013 136.132 44.672C136.132 45.2693 135.236 45.568 133.444 45.568H131.588C130.991 45.568 130.457 45.504 129.988 45.376C129.561 45.248 129.177 44.9067 128.836 44.352L116.932 24.96H116.676V43.968C116.676 44.48 116.441 44.8853 115.972 45.184C115.503 45.44 114.735 45.568 113.668 45.568H112.644ZM161.747 45.888C157.011 45.888 153.384 44.7787 150.867 42.56C148.392 40.2987 147.155 37.0347 147.155 32.768V2.112C147.155 1.6 147.368 1.216 147.795 0.959999C148.264 0.661334 149.032 0.512001 150.099 0.512001H151.123C152.19 0.512001 152.958 0.661334 153.427 0.959999C153.896 1.216 154.131 1.6 154.131 2.112V32.896C154.131 35.2 154.792 36.9707 156.115 38.208C157.48 39.4027 159.358 40 161.747 40C164.094 40 165.928 39.4027 167.251 38.208C168.616 36.9707 169.299 35.2 169.299 32.896V2.112C169.299 1.04533 170.302 0.512001 172.307 0.512001H173.267C174.376 0.512001 175.144 0.661334 175.571 0.959999C176.04 1.216 176.275 1.6 176.275 2.112V32.768C176.275 37.0347 175.016 40.2987 172.499 42.56C170.024 44.7787 166.44 45.888 161.747 45.888ZM194.569 45.568C193.502 45.568 192.734 45.44 192.265 45.184C191.838 44.8853 191.625 44.48 191.625 43.968V2.752C191.625 1.344 192.329 0.639999 193.737 0.639999H203.593C211.956 0.639999 216.137 5.03467 216.137 13.824C216.137 22.656 211.956 27.072 203.593 27.072H198.601V43.968C198.601 44.48 198.366 44.8853 197.897 45.184C197.428 45.44 196.66 45.568 195.593 45.568H194.569ZM198.601 21.184H203.593C205.598 21.184 207.028 20.608 207.881 19.456C208.777 18.304 209.225 16.4267 209.225 13.824C209.225 11.264 208.777 9.408 207.881 8.256C207.028 7.104 205.598 6.528 203.593 6.528H198.601V21.184ZM253.318 45.888C251.185 45.888 249.222 45.44 247.43 44.544C245.681 43.6053 244.251 42.1547 243.142 40.192C242.075 38.2293 241.542 35.6907 241.542 32.576C241.542 29.4187 242.182 26.8373 243.462 24.832C244.742 22.784 246.214 21.4613 247.878 20.864V20.608C246.427 19.84 245.211 18.6453 244.23 17.024C243.291 15.4027 242.822 13.4187 242.822 11.072C242.822 7.53067 243.803 4.84267 245.766 3.008C247.729 1.13067 250.289 0.192001 253.446 0.192001C254.257 0.192001 255.067 0.277335 255.878 0.448002C256.731 0.576 257.435 0.810666 257.99 1.152C258.587 1.45067 258.886 1.87733 258.886 2.432C258.886 2.816 258.822 3.30667 258.694 3.904C258.566 4.50133 258.374 5.03467 258.118 5.504C257.862 5.97333 257.585 6.208 257.286 6.208C257.073 6.208 256.71 6.12267 256.198 5.952C255.686 5.73867 255.067 5.632 254.342 5.632C253.105 5.632 252.123 5.97333 251.398 6.656C250.715 7.33867 250.225 8.17067 249.926 9.152C249.67 10.0907 249.542 11.0293 249.542 11.968C249.542 13.0773 249.734 14.1867 250.118 15.296C250.502 16.3627 251.099 17.2587 251.91 17.984C252.763 18.6667 253.851 19.008 255.174 19.008H260.358L261.19 12.48C261.275 11.4133 262.043 10.88 263.494 10.88H264.71C266.246 10.88 267.014 11.4133 267.014 12.48V19.008H270.406C271.345 19.008 271.814 19.776 271.814 21.312V22.144C271.814 23.68 271.345 24.448 270.406 24.448H267.014V36.288C267.014 37.9093 267.206 39.0187 267.59 39.616C267.974 40.1707 268.529 40.448 269.254 40.448C269.766 40.448 270.15 40.4053 270.406 40.32C270.662 40.192 270.897 40.128 271.11 40.128C271.409 40.128 271.665 40.3627 271.878 40.832C272.091 41.3013 272.241 41.8347 272.326 42.432C272.454 42.9867 272.518 43.3707 272.518 43.584C272.518 44.1813 272.241 44.6507 271.686 44.992C271.174 45.2907 270.534 45.504 269.766 45.632C268.998 45.8027 268.294 45.888 267.654 45.888C266.63 45.888 265.606 45.696 264.582 45.312C263.601 44.928 262.769 44.224 262.086 43.2C260.891 43.9253 259.611 44.5653 258.246 45.12C256.881 45.632 255.238 45.888 253.318 45.888ZM254.278 40.448C255.302 40.448 256.326 40.256 257.35 39.872C258.374 39.4453 259.441 38.9547 260.55 38.4C260.422 37.8027 260.358 37.12 260.358 36.352V24.448H254.79C250.481 24.448 248.326 27.072 248.326 32.32C248.326 34.368 248.603 35.9893 249.158 37.184C249.755 38.3787 250.502 39.232 251.398 39.744C252.294 40.2133 253.254 40.448 254.278 40.448ZM306.838 45.824C305.046 45.824 303.339 45.632 301.718 45.248C300.097 44.8213 298.625 44.1813 297.302 43.328C296.321 42.7733 295.83 42.0907 295.83 41.28C295.83 40.9387 295.894 40.448 296.022 39.808C296.193 39.1253 296.427 38.528 296.726 38.016C297.025 37.4613 297.366 37.184 297.75 37.184C298.134 37.184 298.731 37.4187 299.542 37.888C300.353 38.3147 301.377 38.7627 302.614 39.232C303.851 39.6587 305.302 39.872 306.966 39.872C308.843 39.872 310.422 39.3387 311.702 38.272C312.982 37.2053 313.622 35.584 313.622 33.408C313.622 31.9147 313.281 30.6987 312.598 29.76C311.915 28.7787 310.998 27.968 309.846 27.328C308.737 26.6453 307.542 25.9627 306.262 25.28C304.598 24.4693 303.041 23.552 301.59 22.528C300.139 21.504 298.966 20.224 298.07 18.688C297.174 17.1093 296.726 15.0827 296.726 12.608C296.726 10.0053 297.302 7.76534 298.454 5.888C299.606 3.968 301.185 2.51733 303.19 1.536C305.195 0.512 307.478 0 310.038 0C311.403 0 312.769 0.170667 314.134 0.512001C315.542 0.853335 316.779 1.32267 317.846 1.92C318.187 2.13334 318.443 2.34667 318.614 2.56C318.785 2.77333 318.87 3.072 318.87 3.456C318.87 3.79734 318.806 4.288 318.678 4.928C318.55 5.568 318.358 6.16533 318.102 6.72C317.889 7.232 317.611 7.488 317.27 7.488C316.801 7.488 315.947 7.232 314.71 6.72C313.473 6.16533 311.915 5.888 310.038 5.888C308.075 5.888 306.475 6.44267 305.238 7.552C304.001 8.61867 303.382 10.112 303.382 12.032C303.382 13.5253 303.745 14.7413 304.47 15.68C305.195 16.6187 306.134 17.4293 307.286 18.112C308.438 18.752 309.675 19.392 310.998 20.032C312.619 20.928 314.134 21.888 315.542 22.912C316.993 23.936 318.145 25.2373 318.998 26.816C319.894 28.3947 320.342 30.4213 320.342 32.896C320.342 36.8213 319.105 39.9573 316.63 42.304C314.198 44.6507 310.934 45.824 306.838 45.824ZM341.585 45.568C339.708 45.568 338.769 45.0347 338.769 43.968V25.792L328.593 3.072C328.465 2.816 328.358 2.56 328.273 2.304C328.188 2.048 328.145 1.81333 328.145 1.6C328.145 0.874667 329.126 0.512001 331.089 0.512001H332.561C333.244 0.512001 333.82 0.597335 334.289 0.768002C334.801 0.896 335.164 1.216 335.377 1.728L342.481 18.816L349.329 1.664C349.5 1.152 349.841 0.831999 350.353 0.703999C350.908 0.576 351.526 0.512001 352.209 0.512001H353.489C355.366 0.512001 356.305 0.874667 356.305 1.6C356.305 1.984 356.177 2.47467 355.921 3.072L345.745 25.92V43.968C345.745 45.0347 344.785 45.568 342.865 45.568H341.585ZM370.469 45.568C369.402 45.568 368.634 45.44 368.165 45.184C367.738 44.8853 367.525 44.48 367.525 43.968V2.112C367.525 1.04533 368.506 0.512001 370.469 0.512001H372.005C372.944 0.512001 373.648 0.618668 374.117 0.832001C374.629 1.04533 375.034 1.42933 375.333 1.984L387.685 27.712C387.941 28.2667 388.197 28.9493 388.453 29.76C388.752 30.528 389.008 31.2533 389.221 31.936L389.477 31.872C389.434 31.36 389.37 30.6987 389.285 29.888C389.242 29.0773 389.221 28.288 389.221 27.52V2.112C389.221 1.6 389.434 1.216 389.861 0.959999C390.33 0.661334 391.098 0.512001 392.165 0.512001H392.997C394.064 0.512001 394.81 0.661334 395.237 0.959999C395.706 1.216 395.941 1.6 395.941 2.112V43.968C395.941 45.0347 394.96 45.568 392.997 45.568H391.269C390.373 45.568 389.69 45.4827 389.221 45.312C388.794 45.0987 388.432 44.7147 388.133 44.16L375.717 18.24C375.504 17.728 375.248 17.088 374.949 16.32C374.693 15.552 374.458 14.8053 374.245 14.08L373.989 14.144C374.032 14.784 374.074 15.488 374.117 16.256C374.202 17.024 374.245 17.7707 374.245 18.496V43.968C374.245 44.48 374.01 44.8853 373.541 45.184C373.114 45.44 372.368 45.568 371.301 45.568H370.469ZM426.395 45.888C420.635 45.888 416.39 44.032 413.659 40.32C410.971 36.5653 409.627 30.7627 409.627 22.912C409.627 15.232 411.014 9.536 413.787 5.824C416.56 2.06933 420.827 0.192001 426.587 0.192001C427.782 0.192001 428.934 0.298668 430.043 0.512001C431.152 0.725334 432.07 0.981333 432.795 1.28C433.691 1.57867 434.139 2.15467 434.139 3.008C434.139 3.81867 434.011 4.672 433.755 5.568C433.499 6.464 433.072 6.912 432.475 6.912C431.963 6.912 431.238 6.784 430.299 6.528C429.403 6.272 428.208 6.144 426.715 6.144C423.174 6.144 420.614 7.46667 419.035 10.112C417.456 12.7573 416.667 17.024 416.667 22.912C416.667 28.8853 417.456 33.216 419.035 35.904C420.656 38.5493 423.216 39.872 426.715 39.872C428.55 39.872 429.979 39.68 431.003 39.296C432.027 38.912 432.752 38.72 433.179 38.72C433.734 38.72 434.16 39.168 434.459 40.064C434.758 40.9173 434.907 41.792 434.907 42.688C434.907 43.0293 434.822 43.3493 434.651 43.648C434.48 43.9467 434.139 44.2027 433.627 44.416C432.774 44.8 431.728 45.1413 430.491 45.44C429.254 45.7387 427.888 45.888 426.395 45.888Z" data-figma-gradient-fill="{&#34;type&#34;:&#34;GRADIENT_DIAMOND&#34;,&#34;stops&#34;:[{&#34;color&#34;:{&#34;r&#34;:0.34143927693367004,&#34;g&#34;:0.17814230918884277,&#34;b&#34;:0.57005488872528076,&#34;a&#34;:1.0},&#34;position&#34;:0.0},{&#34;color&#34;:{&#34;r&#34;:0.91442316770553589,&#34;g&#34;:0.81662106513977051,&#34;b&#34;:1.0,&#34;a&#34;:1.0},&#34;position&#34;:1.0}],&#34;stopsVar&#34;:[{&#34;color&#34;:{&#34;r&#34;:0.34143927693367004,&#34;g&#34;:0.17814230918884277,&#34;b&#34;:0.57005488872528076,&#34;a&#34;:1.0},&#34;position&#34;:0.0},{&#34;color&#34;:{&#34;r&#34;:0.91442316770553589,&#34;g&#34;:0.81662106513977051,&#34;b&#34;:1.0,&#34;a&#34;:1.0},&#34;position&#34;:1.0}],&#34;transform&#34;:{&#34;m00&#34;:1727.1475830078125,&#34;m01&#34;:15.579286575317383,&#34;m02&#34;:-692.02984619140625,&#34;m10&#34;:-62.000003814697266,&#34;m11&#34;:285.89627075195312,&#34;m12&#34;:-95.508140563964844},&#34;opacity&#34;:1.0,&#34;blendMode&#34;:&#34;NORMAL&#34;,&#34;visible&#34;:true}"/>
<defs>
<clipPath id="paint0_diamond_22_107_clip_path"><path d="M2.11203 45.44C0.704034 45.44 3.38554e-05 44.736 3.38554e-05 43.328V2.752C3.38554e-05 1.344 0.640034 0.639999 1.92003 0.639999H11.008C15.2747 0.639999 18.432 1.70667 20.48 3.84C22.528 5.93067 23.552 8.91733 23.552 12.8C23.552 14.9333 23.04 16.8107 22.016 18.432C21.0347 20.0533 19.6694 21.2053 17.92 21.888V22.144C20.1387 22.8693 21.9094 24.192 23.232 26.112C24.5547 28.032 25.216 30.272 25.216 32.832C25.216 41.2373 20.6507 45.44 11.52 45.44H2.11203ZM6.84803 19.648H11.008C12.8854 19.648 14.3147 19.072 15.296 17.92C16.32 16.768 16.832 15.1467 16.832 13.056C16.832 8.704 14.8907 6.528 11.008 6.528H6.84803V19.648ZM6.84803 39.552H11.52C15.9574 39.552 18.176 37.2053 18.176 32.512C18.176 30.208 17.5787 28.4587 16.384 27.264C15.1894 26.0267 13.3974 25.408 11.008 25.408H6.84803V39.552ZM34.6005 45.568C32.9792 45.568 32.1685 45.1627 32.1685 44.352C32.1685 44.1387 32.2112 43.776 32.2965 43.264L43.3045 2.048C43.6032 1.024 44.6059 0.512001 46.3125 0.512001H49.1285C50.8352 0.512001 51.8379 1.024 52.1365 2.048L63.0805 43.264C63.1232 43.5627 63.1659 43.7973 63.2085 43.968C63.2512 44.096 63.2725 44.224 63.2725 44.352C63.2725 45.1627 62.4619 45.568 60.8405 45.568H59.0485C58.3659 45.568 57.7685 45.4827 57.2565 45.312C56.7872 45.1413 56.5099 44.8213 56.4245 44.352L54.0565 34.624H41.3845L38.9525 44.352C38.8672 44.8213 38.5685 45.1413 38.0565 45.312C37.5872 45.4827 37.0112 45.568 36.3285 45.568H34.6005ZM46.7605 12.608L42.7285 28.992H52.6485L48.6165 12.608C48.4459 11.968 48.2965 11.2853 48.1685 10.56C48.0832 9.83467 47.9765 9.13067 47.8485 8.448H47.5285C47.4432 9.13067 47.3365 9.83467 47.2085 10.56C47.0805 11.2853 46.9312 11.968 46.7605 12.608ZM89.2075 45.888C83.4475 45.888 79.2022 44.032 76.4715 40.32C73.7835 36.5653 72.4395 30.7627 72.4395 22.912C72.4395 15.232 73.8262 9.536 76.5995 5.824C79.3729 2.06933 83.6395 0.192001 89.3995 0.192001C90.5942 0.192001 91.7462 0.298668 92.8555 0.512001C93.9649 0.725334 94.8822 0.981333 95.6075 1.28C96.5035 1.57867 96.9515 2.15467 96.9515 3.008C96.9515 3.81867 96.8235 4.672 96.5675 5.568C96.3115 6.464 95.8849 6.912 95.2875 6.912C94.7755 6.912 94.0502 6.784 93.1115 6.528C92.2155 6.272 91.0209 6.144 89.5275 6.144C85.9862 6.144 83.4262 7.46667 81.8475 10.112C80.2689 12.7573 79.4795 17.024 79.4795 22.912C79.4795 28.8853 80.2689 33.216 81.8475 35.904C83.4689 38.5493 86.0289 39.872 89.5275 39.872C91.3622 39.872 92.7915 39.68 93.8155 39.296C94.8395 38.912 95.5649 38.72 95.9915 38.72C96.5462 38.72 96.9729 39.168 97.2715 40.064C97.5702 40.9173 97.7195 41.792 97.7195 42.688C97.7195 43.0293 97.6342 43.3493 97.4635 43.648C97.2929 43.9467 96.9515 44.2027 96.4395 44.416C95.5862 44.8 94.5409 45.1413 93.3035 45.44C92.0662 45.7387 90.7009 45.888 89.2075 45.888ZM112.644 45.568C111.577 45.568 110.809 45.44 110.34 45.184C109.913 44.8853 109.7 44.48 109.7 43.968V2.112C109.7 1.6 109.913 1.216 110.34 0.959999C110.809 0.661334 111.577 0.512001 112.644 0.512001H113.668C114.735 0.512001 115.503 0.661334 115.972 0.959999C116.441 1.216 116.676 1.6 116.676 2.112V20.352H116.932L128.068 1.792C128.367 1.28 128.729 0.938669 129.156 0.768002C129.583 0.597335 130.329 0.512001 131.396 0.512001H132.292C133.316 0.512001 134.02 0.597335 134.404 0.768002C134.788 0.938669 134.98 1.19467 134.98 1.536C134.98 2.00533 134.767 2.56 134.34 3.2L122.82 22.4L135.684 43.392C135.897 43.7333 136.025 43.9893 136.068 44.16C136.111 44.3307 136.132 44.5013 136.132 44.672C136.132 45.2693 135.236 45.568 133.444 45.568H131.588C130.991 45.568 130.457 45.504 129.988 45.376C129.561 45.248 129.177 44.9067 128.836 44.352L116.932 24.96H116.676V43.968C116.676 44.48 116.441 44.8853 115.972 45.184C115.503 45.44 114.735 45.568 113.668 45.568H112.644ZM161.747 45.888C157.011 45.888 153.384 44.7787 150.867 42.56C148.392 40.2987 147.155 37.0347 147.155 32.768V2.112C147.155 1.6 147.368 1.216 147.795 0.959999C148.264 0.661334 149.032 0.512001 150.099 0.512001H151.123C152.19 0.512001 152.958 0.661334 153.427 0.959999C153.896 1.216 154.131 1.6 154.131 2.112V32.896C154.131 35.2 154.792 36.9707 156.115 38.208C157.48 39.4027 159.358 40 161.747 40C164.094 40 165.928 39.4027 167.251 38.208C168.616 36.9707 169.299 35.2 169.299 32.896V2.112C169.299 1.04533 170.302 0.512001 172.307 0.512001H173.267C174.376 0.512001 175.144 0.661334 175.571 0.959999C176.04 1.216 176.275 1.6 176.275 2.112V32.768C176.275 37.0347 175.016 40.2987 172.499 42.56C170.024 44.7787 166.44 45.888 161.747 45.888ZM194.569 45.568C193.502 45.568 192.734 45.44 192.265 45.184C191.838 44.8853 191.625 44.48 191.625 43.968V2.752C191.625 1.344 192.329 0.639999 193.737 0.639999H203.593C211.956 0.639999 216.137 5.03467 216.137 13.824C216.137 22.656 211.956 27.072 203.593 27.072H198.601V43.968C198.601 44.48 198.366 44.8853 197.897 45.184C197.428 45.44 196.66 45.568 195.593 45.568H194.569ZM198.601 21.184H203.593C205.598 21.184 207.028 20.608 207.881 19.456C208.777 18.304 209.225 16.4267 209.225 13.824C209.225 11.264 208.777 9.408 207.881 8.256C207.028 7.104 205.598 6.528 203.593 6.528H198.601V21.184ZM253.318 45.888C251.185 45.888 249.222 45.44 247.43 44.544C245.681 43.6053 244.251 42.1547 243.142 40.192C242.075 38.2293 241.542 35.6907 241.542 32.576C241.542 29.4187 242.182 26.8373 243.462 24.832C244.742 22.784 246.214 21.4613 247.878 20.864V20.608C246.427 19.84 245.211 18.6453 244.23 17.024C243.291 15.4027 242.822 13.4187 242.822 11.072C242.822 7.53067 243.803 4.84267 245.766 3.008C247.729 1.13067 250.289 0.192001 253.446 0.192001C254.257 0.192001 255.067 0.277335 255.878 0.448002C256.731 0.576 257.435 0.810666 257.99 1.152C258.587 1.45067 258.886 1.87733 258.886 2.432C258.886 2.816 258.822 3.30667 258.694 3.904C258.566 4.50133 258.374 5.03467 258.118 5.504C257.862 5.97333 257.585 6.208 257.286 6.208C257.073 6.208 256.71 6.12267 256.198 5.952C255.686 5.73867 255.067 5.632 254.342 5.632C253.105 5.632 252.123 5.97333 251.398 6.656C250.715 7.33867 250.225 8.17067 249.926 9.152C249.67 10.0907 249.542 11.0293 249.542 11.968C249.542 13.0773 249.734 14.1867 250.118 15.296C250.502 16.3627 251.099 17.2587 251.91 17.984C252.763 18.6667 253.851 19.008 255.174 19.008H260.358L261.19 12.48C261.275 11.4133 262.043 10.88 263.494 10.88H264.71C266.246 10.88 267.014 11.4133 267.014 12.48V19.008H270.406C271.345 19.008 271.814 19.776 271.814 21.312V22.144C271.814 23.68 271.345 24.448 270.406 24.448H267.014V36.288C267.014 37.9093 267.206 39.0187 267.59 39.616C267.974 40.1707 268.529 40.448 269.254 40.448C269.766 40.448 270.15 40.4053 270.406 40.32C270.662 40.192 270.897 40.128 271.11 40.128C271.409 40.128 271.665 40.3627 271.878 40.832C272.091 41.3013 272.241 41.8347 272.326 42.432C272.454 42.9867 272.518 43.3707 272.518 43.584C272.518 44.1813 272.241 44.6507 271.686 44.992C271.174 45.2907 270.534 45.504 269.766 45.632C268.998 45.8027 268.294 45.888 267.654 45.888C266.63 45.888 265.606 45.696 264.582 45.312C263.601 44.928 262.769 44.224 262.086 43.2C260.891 43.9253 259.611 44.5653 258.246 45.12C256.881 45.632 255.238 45.888 253.318 45.888ZM254.278 40.448C255.302 40.448 256.326 40.256 257.35 39.872C258.374 39.4453 259.441 38.9547 260.55 38.4C260.422 37.8027 260.358 37.12 260.358 36.352V24.448H254.79C250.481 24.448 248.326 27.072 248.326 32.32C248.326 34.368 248.603 35.9893 249.158 37.184C249.755 38.3787 250.502 39.232 251.398 39.744C252.294 40.2133 253.254 40.448 254.278 40.448ZM306.838 45.824C305.046 45.824 303.339 45.632 301.718 45.248C300.097 44.8213 298.625 44.1813 297.302 43.328C296.321 42.7733 295.83 42.0907 295.83 41.28C295.83 40.9387 295.894 40.448 296.022 39.808C296.193 39.1253 296.427 38.528 296.726 38.016C297.025 37.4613 297.366 37.184 297.75 37.184C298.134 37.184 298.731 37.4187 299.542 37.888C300.353 38.3147 301.377 38.7627 302.614 39.232C303.851 39.6587 305.302 39.872 306.966 39.872C308.843 39.872 310.422 39.3387 311.702 38.272C312.982 37.2053 313.622 35.584 313.622 33.408C313.622 31.9147 313.281 30.6987 312.598 29.76C311.915 28.7787 310.998 27.968 309.846 27.328C308.737 26.6453 307.542 25.9627 306.262 25.28C304.598 24.4693 303.041 23.552 301.59 22.528C300.139 21.504 298.966 20.224 298.07 18.688C297.174 17.1093 296.726 15.0827 296.726 12.608C296.726 10.0053 297.302 7.76534 298.454 5.888C299.606 3.968 301.185 2.51733 303.19 1.536C305.195 0.512 307.478 0 310.038 0C311.403 0 312.769 0.170667 314.134 0.512001C315.542 0.853335 316.779 1.32267 317.846 1.92C318.187 2.13334 318.443 2.34667 318.614 2.56C318.785 2.77333 318.87 3.072 318.87 3.456C318.87 3.79734 318.806 4.288 318.678 4.928C318.55 5.568 318.358 6.16533 318.102 6.72C317.889 7.232 317.611 7.488 317.27 7.488C316.801 7.488 315.947 7.232 314.71 6.72C313.473 6.16533 311.915 5.888 310.038 5.888C308.075 5.888 306.475 6.44267 305.238 7.552C304.001 8.61867 303.382 10.112 303.382 12.032C303.382 13.5253 303.745 14.7413 304.47 15.68C305.195 16.6187 306.134 17.4293 307.286 18.112C308.438 18.752 309.675 19.392 310.998 20.032C312.619 20.928 314.134 21.888 315.542 22.912C316.993 23.936 318.145 25.2373 318.998 26.816C319.894 28.3947 320.342 30.4213 320.342 32.896C320.342 36.8213 319.105 39.9573 316.63 42.304C314.198 44.6507 310.934 45.824 306.838 45.824ZM341.585 45.568C339.708 45.568 338.769 45.0347 338.769 43.968V25.792L328.593 3.072C328.465 2.816 328.358 2.56 328.273 2.304C328.188 2.048 328.145 1.81333 328.145 1.6C328.145 0.874667 329.126 0.512001 331.089 0.512001H332.561C333.244 0.512001 333.82 0.597335 334.289 0.768002C334.801 0.896 335.164 1.216 335.377 1.728L342.481 18.816L349.329 1.664C349.5 1.152 349.841 0.831999 350.353 0.703999C350.908 0.576 351.526 0.512001 352.209 0.512001H353.489C355.366 0.512001 356.305 0.874667 356.305 1.6C356.305 1.984 356.177 2.47467 355.921 3.072L345.745 25.92V43.968C345.745 45.0347 344.785 45.568 342.865 45.568H341.585ZM370.469 45.568C369.402 45.568 368.634 45.44 368.165 45.184C367.738 44.8853 367.525 44.48 367.525 43.968V2.112C367.525 1.04533 368.506 0.512001 370.469 0.512001H372.005C372.944 0.512001 373.648 0.618668 374.117 0.832001C374.629 1.04533 375.034 1.42933 375.333 1.984L387.685 27.712C387.941 28.2667 388.197 28.9493 388.453 29.76C388.752 30.528 389.008 31.2533 389.221 31.936L389.477 31.872C389.434 31.36 389.37 30.6987 389.285 29.888C389.242 29.0773 389.221 28.288 389.221 27.52V2.112C389.221 1.6 389.434 1.216 389.861 0.959999C390.33 0.661334 391.098 0.512001 392.165 0.512001H392.997C394.064 0.512001 394.81 0.661334 395.237 0.959999C395.706 1.216 395.941 1.6 395.941 2.112V43.968C395.941 45.0347 394.96 45.568 392.997 45.568H391.269C390.373 45.568 389.69 45.4827 389.221 45.312C388.794 45.0987 388.432 44.7147 388.133 44.16L375.717 18.24C375.504 17.728 375.248 17.088 374.949 16.32C374.693 15.552 374.458 14.8053 374.245 14.08L373.989 14.144C374.032 14.784 374.074 15.488 374.117 16.256C374.202 17.024 374.245 17.7707 374.245 18.496V43.968C374.245 44.48 374.01 44.8853 373.541 45.184C373.114 45.44 372.368 45.568 371.301 45.568H370.469ZM426.395 45.888C420.635 45.888 416.39 44.032 413.659 40.32C410.971 36.5653 409.627 30.7627 409.627 22.912C409.627 15.232 411.014 9.536 413.787 5.824C416.56 2.06933 420.827 0.192001 426.587 0.192001C427.782 0.192001 428.934 0.298668 430.043 0.512001C431.152 0.725334 432.07 0.981333 432.795 1.28C433.691 1.57867 434.139 2.15467 434.139 3.008C434.139 3.81867 434.011 4.672 433.755 5.568C433.499 6.464 433.072 6.912 432.475 6.912C431.963 6.912 431.238 6.784 430.299 6.528C429.403 6.272 428.208 6.144 426.715 6.144C423.174 6.144 420.614 7.46667 419.035 10.112C417.456 12.7573 416.667 17.024 416.667 22.912C416.667 28.8853 417.456 33.216 419.035 35.904C420.656 38.5493 423.216 39.872 426.715 39.872C428.55 39.872 429.979 39.68 431.003 39.296C432.027 38.912 432.752 38.72 433.179 38.72C433.734 38.72 434.16 39.168 434.459 40.064C434.758 40.9173 434.907 41.792 434.907 42.688C434.907 43.0293 434.822 43.3493 434.651 43.648C434.48 43.9467 434.139 44.2027 433.627 44.416C432.774 44.8 431.728 45.1413 430.491 45.44C429.254 45.7387 427.888 45.888 426.395 45.888Z"/></clipPath><linearGradient id="paint0_diamond_22_107" x1="0" y1="0" x2="500" y2="500" gradientUnits="userSpaceOnUse">
<stop stop-color="#572D91"/>
<stop offset="1" stop-color="#E9D0FF"/>
</linearGradient>
</defs>
</svg>
