<svg viewBox="0 0 221 37" fill="none" xmlns="http://www.w3.org/2000/svg">
<g clip-path="url(#paint0_diamond_52_13_clip_path)" data-figma-skip-parse="true"><g transform="matrix(0.358846 0.0005 -0.000104288 0.0600783 110.5 18.5)"><rect x="0" y="0" width="310.812" height="327.162" fill="url(#paint0_diamond_52_13)" opacity="1" shape-rendering="crispEdges"/><rect x="0" y="0" width="310.812" height="327.162" transform="scale(1 -1)" fill="url(#paint0_diamond_52_13)" opacity="1" shape-rendering="crispEdges"/><rect x="0" y="0" width="310.812" height="327.162" transform="scale(-1 1)" fill="url(#paint0_diamond_52_13)" opacity="1" shape-rendering="crispEdges"/><rect x="0" y="0" width="310.812" height="327.162" transform="scale(-1)" fill="url(#paint0_diamond_52_13)" opacity="1" shape-rendering="crispEdges"/></g></g><path d="M3.77013 30C3.06613 30 2.71413 29.648 2.71413 28.944V8.656C2.71413 7.952 3.03413 7.6 3.67413 7.6H8.21813C10.3515 7.6 11.9301 8.13333 12.9541 9.2C13.9781 10.2453 14.4901 11.7387 14.4901 13.68C14.4901 14.7467 14.2341 15.6853 13.7221 16.496C13.2315 17.3067 12.5488 17.8827 11.6741 18.224V18.352C12.7835 18.7147 13.6688 19.376 14.3301 20.336C14.9915 21.296 15.3221 22.416 15.3221 23.696C15.3221 27.8987 13.0395 30 8.47413 30H3.77013ZM6.13813 17.104H8.21813C9.15679 17.104 9.87146 16.816 10.3621 16.24C10.8741 15.664 11.1301 14.8533 11.1301 13.808C11.1301 11.632 10.1595 10.544 8.21813 10.544H6.13813V17.104ZM6.13813 27.056H8.47413C10.6928 27.056 11.8021 25.8827 11.8021 23.536C11.8021 22.384 11.5035 21.5093 10.9061 20.912C10.3088 20.2933 9.4128 19.984 8.21813 19.984H6.13813V27.056ZM20.0144 30.064C19.2037 30.064 18.7984 29.8613 18.7984 29.456C18.7984 29.3493 18.8197 29.168 18.8624 28.912L24.3664 8.304C24.5157 7.792 25.017 7.536 25.8704 7.536H27.2784C28.1317 7.536 28.633 7.792 28.7824 8.304L34.2544 28.912C34.2757 29.0613 34.297 29.1787 34.3184 29.264C34.3397 29.328 34.3504 29.392 34.3504 29.456C34.3504 29.8613 33.945 30.064 33.1344 30.064H32.2384C31.897 30.064 31.5984 30.0213 31.3424 29.936C31.1077 29.8507 30.969 29.6907 30.9264 29.456L29.7424 24.592H23.4064L22.1904 29.456C22.1477 29.6907 21.9984 29.8507 21.7424 29.936C21.5077 30.0213 21.2197 30.064 20.8784 30.064H20.0144ZM26.0944 13.584L24.0784 21.776H29.0384L27.0224 13.584C26.937 13.264 26.8624 12.9227 26.7984 12.56C26.7557 12.1973 26.7024 11.8453 26.6384 11.504H26.4784C26.4357 11.8453 26.3824 12.1973 26.3184 12.56C26.2544 12.9227 26.1797 13.264 26.0944 13.584ZM47.3179 30.224C44.4379 30.224 42.3152 29.296 40.9499 27.44C39.6059 25.5627 38.9339 22.6613 38.9339 18.736C38.9339 14.896 39.6272 12.048 41.0139 10.192C42.4005 8.31467 44.5339 7.376 47.4139 7.376C48.0112 7.376 48.5872 7.42933 49.1419 7.536C49.6965 7.64267 50.1552 7.77067 50.5179 7.92C50.9659 8.06933 51.1899 8.35733 51.1899 8.784C51.1899 9.18933 51.1259 9.616 50.9979 10.064C50.8699 10.512 50.6565 10.736 50.3579 10.736C50.1019 10.736 49.7392 10.672 49.2699 10.544C48.8219 10.416 48.2245 10.352 47.4779 10.352C45.7072 10.352 44.4272 11.0133 43.6379 12.336C42.8485 13.6587 42.4539 15.792 42.4539 18.736C42.4539 21.7227 42.8485 23.888 43.6379 25.232C44.4485 26.5547 45.7285 27.216 47.4779 27.216C48.3952 27.216 49.1099 27.12 49.6219 26.928C50.1339 26.736 50.4965 26.64 50.7099 26.64C50.9872 26.64 51.2005 26.864 51.3499 27.312C51.4992 27.7387 51.5739 28.176 51.5739 28.624C51.5739 28.7947 51.5312 28.9547 51.4459 29.104C51.3605 29.2533 51.1899 29.3813 50.9339 29.488C50.5072 29.68 49.9845 29.8507 49.3659 30C48.7472 30.1493 48.0645 30.224 47.3179 30.224ZM59.0361 30.064C58.5028 30.064 58.1188 30 57.8841 29.872C57.6708 29.7227 57.5641 29.52 57.5641 29.264V8.336C57.5641 8.08 57.6708 7.888 57.8841 7.76C58.1188 7.61067 58.5028 7.536 59.0361 7.536H59.5481C60.0815 7.536 60.4655 7.61067 60.7001 7.76C60.9348 7.888 61.0521 8.08 61.0521 8.336V17.456H61.1801L66.7481 8.176C66.8975 7.92 67.0788 7.74933 67.2921 7.664C67.5055 7.57867 67.8788 7.536 68.4121 7.536H68.8601C69.3721 7.536 69.7241 7.57867 69.9161 7.664C70.1081 7.74933 70.2041 7.87733 70.2041 8.048C70.2041 8.28267 70.0975 8.56 69.8841 8.88L64.1241 18.48L70.5561 28.976C70.6628 29.1467 70.7268 29.2747 70.7481 29.36C70.7695 29.4453 70.7801 29.5307 70.7801 29.616C70.7801 29.9147 70.3321 30.064 69.4361 30.064H68.5081C68.2095 30.064 67.9428 30.032 67.7081 29.968C67.4948 29.904 67.3028 29.7333 67.1321 29.456L61.1801 19.76H61.0521V29.264C61.0521 29.52 60.9348 29.7227 60.7001 29.872C60.4655 30 60.0815 30.064 59.5481 30.064H59.0361ZM83.5876 30.224C81.2196 30.224 79.4063 29.6693 78.1476 28.56C76.9103 27.4293 76.2916 25.7973 76.2916 23.664V8.336C76.2916 8.08 76.3983 7.888 76.6116 7.76C76.8463 7.61067 77.2303 7.536 77.7636 7.536H78.2756C78.809 7.536 79.193 7.61067 79.4276 7.76C79.6623 7.888 79.7796 8.08 79.7796 8.336V23.728C79.7796 24.88 80.1103 25.7653 80.7716 26.384C81.4543 26.9813 82.393 27.28 83.5876 27.28C84.761 27.28 85.6783 26.9813 86.3396 26.384C87.0223 25.7653 87.3636 24.88 87.3636 23.728V8.336C87.3636 7.80267 87.865 7.536 88.8676 7.536H89.3476C89.9023 7.536 90.2863 7.61067 90.4996 7.76C90.7343 7.888 90.8516 8.08 90.8516 8.336V23.664C90.8516 25.7973 90.2223 27.4293 88.9636 28.56C87.7263 29.6693 85.9343 30.224 83.5876 30.224ZM99.9986 30.064C99.4653 30.064 99.0813 30 98.8466 29.872C98.6333 29.7227 98.5266 29.52 98.5266 29.264V8.656C98.5266 7.952 98.8786 7.6 99.5826 7.6H104.511C108.692 7.6 110.783 9.79733 110.783 14.192C110.783 18.608 108.692 20.816 104.511 20.816H102.015V29.264C102.015 29.52 101.897 29.7227 101.663 29.872C101.428 30 101.044 30.064 100.511 30.064H99.9986ZM102.015 17.872H104.511C105.513 17.872 106.228 17.584 106.655 17.008C107.103 16.432 107.327 15.4933 107.327 14.192C107.327 12.912 107.103 11.984 106.655 11.408C106.228 10.832 105.513 10.544 104.511 10.544H102.015V17.872ZM129.373 30.224C128.306 30.224 127.325 30 126.429 29.552C125.554 29.0827 124.84 28.3573 124.285 27.376C123.752 26.3947 123.485 25.1253 123.485 23.568C123.485 21.9893 123.805 20.6987 124.445 19.696C125.085 18.672 125.821 18.0107 126.653 17.712V17.584C125.928 17.2 125.32 16.6027 124.829 15.792C124.36 14.9813 124.125 13.9893 124.125 12.816C124.125 11.0453 124.616 9.70133 125.597 8.784C126.578 7.84533 127.858 7.376 129.437 7.376C129.842 7.376 130.248 7.41867 130.653 7.504C131.08 7.568 131.432 7.68533 131.709 7.856C132.008 8.00533 132.157 8.21866 132.157 8.496C132.157 8.688 132.125 8.93333 132.061 9.232C131.997 9.53067 131.901 9.79733 131.773 10.032C131.645 10.2667 131.506 10.384 131.357 10.384C131.25 10.384 131.069 10.3413 130.813 10.256C130.557 10.1493 130.248 10.096 129.885 10.096C129.266 10.096 128.776 10.2667 128.413 10.608C128.072 10.9493 127.826 11.3653 127.677 11.856C127.549 12.3253 127.485 12.7947 127.485 13.264C127.485 13.8187 127.581 14.3733 127.773 14.928C127.965 15.4613 128.264 15.9093 128.669 16.272C129.096 16.6133 129.64 16.784 130.301 16.784H132.893L133.309 13.52C133.352 12.9867 133.736 12.72 134.461 12.72H135.069C135.837 12.72 136.221 12.9867 136.221 13.52V16.784H137.917C138.386 16.784 138.621 17.168 138.621 17.936V18.352C138.621 19.12 138.386 19.504 137.917 19.504H136.221V25.424C136.221 26.2347 136.317 26.7893 136.509 27.088C136.701 27.3653 136.978 27.504 137.341 27.504C137.597 27.504 137.789 27.4827 137.917 27.44C138.045 27.376 138.162 27.344 138.269 27.344C138.418 27.344 138.546 27.4613 138.653 27.696C138.76 27.9307 138.834 28.1973 138.877 28.496C138.941 28.7733 138.973 28.9653 138.973 29.072C138.973 29.3707 138.834 29.6053 138.557 29.776C138.301 29.9253 137.981 30.032 137.597 30.096C137.213 30.1813 136.861 30.224 136.541 30.224C136.029 30.224 135.517 30.128 135.005 29.936C134.514 29.744 134.098 29.392 133.757 28.88C133.16 29.2427 132.52 29.5627 131.837 29.84C131.154 30.096 130.333 30.224 129.373 30.224ZM129.853 27.504C130.365 27.504 130.877 27.408 131.389 27.216C131.901 27.0027 132.434 26.7573 132.989 26.48C132.925 26.1813 132.893 25.84 132.893 25.456V19.504H130.109C127.954 19.504 126.877 20.816 126.877 23.44C126.877 24.464 127.016 25.2747 127.293 25.872C127.592 26.4693 127.965 26.896 128.413 27.152C128.861 27.3867 129.341 27.504 129.853 27.504ZM156.133 30.192C155.237 30.192 154.384 30.096 153.573 29.904C152.762 29.6907 152.026 29.3707 151.365 28.944C150.874 28.6667 150.629 28.3253 150.629 27.92C150.629 27.7493 150.661 27.504 150.725 27.184C150.81 26.8427 150.928 26.544 151.077 26.288C151.226 26.0107 151.397 25.872 151.589 25.872C151.781 25.872 152.08 25.9893 152.485 26.224C152.89 26.4373 153.402 26.6613 154.021 26.896C154.64 27.1093 155.365 27.216 156.197 27.216C157.136 27.216 157.925 26.9493 158.565 26.416C159.205 25.8827 159.525 25.072 159.525 23.984C159.525 23.2373 159.354 22.6293 159.013 22.16C158.672 21.6693 158.213 21.264 157.637 20.944C157.082 20.6027 156.485 20.2613 155.845 19.92C155.013 19.5147 154.234 19.056 153.509 18.544C152.784 18.032 152.197 17.392 151.749 16.624C151.301 15.8347 151.077 14.8213 151.077 13.584C151.077 12.2827 151.365 11.1627 151.941 10.224C152.517 9.264 153.306 8.53867 154.309 8.048C155.312 7.536 156.453 7.28 157.733 7.28C158.416 7.28 159.098 7.36533 159.781 7.536C160.485 7.70667 161.104 7.94133 161.637 8.24C161.808 8.34667 161.936 8.45333 162.021 8.56C162.106 8.66667 162.149 8.816 162.149 9.008C162.149 9.17867 162.117 9.424 162.053 9.744C161.989 10.064 161.893 10.3627 161.765 10.64C161.658 10.896 161.52 11.024 161.349 11.024C161.114 11.024 160.688 10.896 160.069 10.64C159.45 10.3627 158.672 10.224 157.733 10.224C156.752 10.224 155.952 10.5013 155.333 11.056C154.714 11.5893 154.405 12.336 154.405 13.296C154.405 14.0427 154.586 14.6507 154.949 15.12C155.312 15.5893 155.781 15.9947 156.357 16.336C156.933 16.656 157.552 16.976 158.213 17.296C159.024 17.744 159.781 18.224 160.485 18.736C161.21 19.248 161.786 19.8987 162.213 20.688C162.661 21.4773 162.885 22.4907 162.885 23.728C162.885 25.6907 162.266 27.2587 161.029 28.432C159.813 29.6053 158.181 30.192 156.133 30.192ZM173.507 30.064C172.568 30.064 172.099 29.7973 172.099 29.264V20.176L167.011 8.816C166.947 8.688 166.893 8.56 166.851 8.432C166.808 8.304 166.787 8.18667 166.787 8.08C166.787 7.71733 167.277 7.536 168.259 7.536H168.995C169.336 7.536 169.624 7.57867 169.859 7.664C170.115 7.728 170.296 7.888 170.403 8.144L173.955 16.688L177.379 8.112C177.464 7.856 177.635 7.696 177.891 7.632C178.168 7.568 178.477 7.536 178.819 7.536H179.459C180.397 7.536 180.867 7.71733 180.867 8.08C180.867 8.272 180.803 8.51733 180.675 8.816L175.587 20.24V29.264C175.587 29.7973 175.107 30.064 174.147 30.064H173.507ZM187.949 30.064C187.415 30.064 187.031 30 186.797 29.872C186.583 29.7227 186.477 29.52 186.477 29.264V8.336C186.477 7.80267 186.967 7.536 187.949 7.536H188.717C189.186 7.536 189.538 7.58933 189.773 7.696C190.029 7.80267 190.231 7.99467 190.381 8.272L196.557 21.136C196.685 21.4133 196.813 21.7547 196.941 22.16C197.09 22.544 197.218 22.9067 197.325 23.248L197.453 23.216C197.431 22.96 197.399 22.6293 197.357 22.224C197.335 21.8187 197.325 21.424 197.325 21.04V8.336C197.325 8.08 197.431 7.888 197.645 7.76C197.879 7.61067 198.263 7.536 198.797 7.536H199.213C199.746 7.536 200.119 7.61067 200.333 7.76C200.567 7.888 200.685 8.08 200.685 8.336V29.264C200.685 29.7973 200.194 30.064 199.213 30.064H198.349C197.901 30.064 197.559 30.0213 197.325 29.936C197.111 29.8293 196.93 29.6373 196.781 29.36L190.573 16.4C190.466 16.144 190.338 15.824 190.189 15.44C190.061 15.056 189.943 14.6827 189.837 14.32L189.709 14.352C189.73 14.672 189.751 15.024 189.773 15.408C189.815 15.792 189.837 16.1653 189.837 16.528V29.264C189.837 29.52 189.719 29.7227 189.485 29.872C189.271 30 188.898 30.064 188.365 30.064H187.949ZM215.912 30.224C213.032 30.224 210.909 29.296 209.544 27.44C208.2 25.5627 207.528 22.6613 207.528 18.736C207.528 14.896 208.221 12.048 209.608 10.192C210.994 8.31467 213.128 7.376 216.008 7.376C216.605 7.376 217.181 7.42933 217.736 7.536C218.29 7.64267 218.749 7.77067 219.112 7.92C219.56 8.06933 219.784 8.35733 219.784 8.784C219.784 9.18933 219.72 9.616 219.592 10.064C219.464 10.512 219.25 10.736 218.952 10.736C218.696 10.736 218.333 10.672 217.864 10.544C217.416 10.416 216.818 10.352 216.072 10.352C214.301 10.352 213.021 11.0133 212.232 12.336C211.442 13.6587 211.048 15.792 211.048 18.736C211.048 21.7227 211.442 23.888 212.232 25.232C213.042 26.5547 214.322 27.216 216.072 27.216C216.989 27.216 217.704 27.12 218.216 26.928C218.728 26.736 219.09 26.64 219.304 26.64C219.581 26.64 219.794 26.864 219.944 27.312C220.093 27.7387 220.168 28.176 220.168 28.624C220.168 28.7947 220.125 28.9547 220.04 29.104C219.954 29.2533 219.784 29.3813 219.528 29.488C219.101 29.68 218.578 29.8507 217.96 30C217.341 30.1493 216.658 30.224 215.912 30.224Z" data-figma-gradient-fill="{&#34;type&#34;:&#34;GRADIENT_DIAMOND&#34;,&#34;stops&#34;:[{&#34;color&#34;:{&#34;r&#34;:0.34143927693367004,&#34;g&#34;:0.17814230918884277,&#34;b&#34;:0.57005488872528076,&#34;a&#34;:1.0},&#34;position&#34;:0.0},{&#34;color&#34;:{&#34;r&#34;:0.95192295312881470,&#34;g&#34;:0.50538194179534912,&#34;b&#34;:0.53515130281448364,&#34;a&#34;:1.0},&#34;position&#34;:1.0}],&#34;stopsVar&#34;:[{&#34;color&#34;:{&#34;r&#34;:0.34143927693367004,&#34;g&#34;:0.17814230918884277,&#34;b&#34;:0.57005488872528076,&#34;a&#34;:1.0},&#34;position&#34;:0.0},{&#34;color&#34;:{&#34;r&#34;:0.95192295312881470,&#34;g&#34;:0.50538194179534912,&#34;b&#34;:0.53515130281448364,&#34;a&#34;:1.0},&#34;position&#34;:1.0}],&#34;transform&#34;:{&#34;m00&#34;:717.691894531250,&#34;m01&#34;:-0.20857508480548859,&#34;m02&#34;:-248.24165344238281,&#34;m10&#34;:1.0000007152557373,&#34;m11&#34;:120.15656280517578,&#34;m12&#34;:-42.078285217285156},&#34;opacity&#34;:1.0,&#34;blendMode&#34;:&#34;NORMAL&#34;,&#34;visible&#34;:true}"/>
<defs>
<clipPath id="paint0_diamond_52_13_clip_path"><path d="M3.77013 30C3.06613 30 2.71413 29.648 2.71413 28.944V8.656C2.71413 7.952 3.03413 7.6 3.67413 7.6H8.21813C10.3515 7.6 11.9301 8.13333 12.9541 9.2C13.9781 10.2453 14.4901 11.7387 14.4901 13.68C14.4901 14.7467 14.2341 15.6853 13.7221 16.496C13.2315 17.3067 12.5488 17.8827 11.6741 18.224V18.352C12.7835 18.7147 13.6688 19.376 14.3301 20.336C14.9915 21.296 15.3221 22.416 15.3221 23.696C15.3221 27.8987 13.0395 30 8.47413 30H3.77013ZM6.13813 17.104H8.21813C9.15679 17.104 9.87146 16.816 10.3621 16.24C10.8741 15.664 11.1301 14.8533 11.1301 13.808C11.1301 11.632 10.1595 10.544 8.21813 10.544H6.13813V17.104ZM6.13813 27.056H8.47413C10.6928 27.056 11.8021 25.8827 11.8021 23.536C11.8021 22.384 11.5035 21.5093 10.9061 20.912C10.3088 20.2933 9.4128 19.984 8.21813 19.984H6.13813V27.056ZM20.0144 30.064C19.2037 30.064 18.7984 29.8613 18.7984 29.456C18.7984 29.3493 18.8197 29.168 18.8624 28.912L24.3664 8.304C24.5157 7.792 25.017 7.536 25.8704 7.536H27.2784C28.1317 7.536 28.633 7.792 28.7824 8.304L34.2544 28.912C34.2757 29.0613 34.297 29.1787 34.3184 29.264C34.3397 29.328 34.3504 29.392 34.3504 29.456C34.3504 29.8613 33.945 30.064 33.1344 30.064H32.2384C31.897 30.064 31.5984 30.0213 31.3424 29.936C31.1077 29.8507 30.969 29.6907 30.9264 29.456L29.7424 24.592H23.4064L22.1904 29.456C22.1477 29.6907 21.9984 29.8507 21.7424 29.936C21.5077 30.0213 21.2197 30.064 20.8784 30.064H20.0144ZM26.0944 13.584L24.0784 21.776H29.0384L27.0224 13.584C26.937 13.264 26.8624 12.9227 26.7984 12.56C26.7557 12.1973 26.7024 11.8453 26.6384 11.504H26.4784C26.4357 11.8453 26.3824 12.1973 26.3184 12.56C26.2544 12.9227 26.1797 13.264 26.0944 13.584ZM47.3179 30.224C44.4379 30.224 42.3152 29.296 40.9499 27.44C39.6059 25.5627 38.9339 22.6613 38.9339 18.736C38.9339 14.896 39.6272 12.048 41.0139 10.192C42.4005 8.31467 44.5339 7.376 47.4139 7.376C48.0112 7.376 48.5872 7.42933 49.1419 7.536C49.6965 7.64267 50.1552 7.77067 50.5179 7.92C50.9659 8.06933 51.1899 8.35733 51.1899 8.784C51.1899 9.18933 51.1259 9.616 50.9979 10.064C50.8699 10.512 50.6565 10.736 50.3579 10.736C50.1019 10.736 49.7392 10.672 49.2699 10.544C48.8219 10.416 48.2245 10.352 47.4779 10.352C45.7072 10.352 44.4272 11.0133 43.6379 12.336C42.8485 13.6587 42.4539 15.792 42.4539 18.736C42.4539 21.7227 42.8485 23.888 43.6379 25.232C44.4485 26.5547 45.7285 27.216 47.4779 27.216C48.3952 27.216 49.1099 27.12 49.6219 26.928C50.1339 26.736 50.4965 26.64 50.7099 26.64C50.9872 26.64 51.2005 26.864 51.3499 27.312C51.4992 27.7387 51.5739 28.176 51.5739 28.624C51.5739 28.7947 51.5312 28.9547 51.4459 29.104C51.3605 29.2533 51.1899 29.3813 50.9339 29.488C50.5072 29.68 49.9845 29.8507 49.3659 30C48.7472 30.1493 48.0645 30.224 47.3179 30.224ZM59.0361 30.064C58.5028 30.064 58.1188 30 57.8841 29.872C57.6708 29.7227 57.5641 29.52 57.5641 29.264V8.336C57.5641 8.08 57.6708 7.888 57.8841 7.76C58.1188 7.61067 58.5028 7.536 59.0361 7.536H59.5481C60.0815 7.536 60.4655 7.61067 60.7001 7.76C60.9348 7.888 61.0521 8.08 61.0521 8.336V17.456H61.1801L66.7481 8.176C66.8975 7.92 67.0788 7.74933 67.2921 7.664C67.5055 7.57867 67.8788 7.536 68.4121 7.536H68.8601C69.3721 7.536 69.7241 7.57867 69.9161 7.664C70.1081 7.74933 70.2041 7.87733 70.2041 8.048C70.2041 8.28267 70.0975 8.56 69.8841 8.88L64.1241 18.48L70.5561 28.976C70.6628 29.1467 70.7268 29.2747 70.7481 29.36C70.7695 29.4453 70.7801 29.5307 70.7801 29.616C70.7801 29.9147 70.3321 30.064 69.4361 30.064H68.5081C68.2095 30.064 67.9428 30.032 67.7081 29.968C67.4948 29.904 67.3028 29.7333 67.1321 29.456L61.1801 19.76H61.0521V29.264C61.0521 29.52 60.9348 29.7227 60.7001 29.872C60.4655 30 60.0815 30.064 59.5481 30.064H59.0361ZM83.5876 30.224C81.2196 30.224 79.4063 29.6693 78.1476 28.56C76.9103 27.4293 76.2916 25.7973 76.2916 23.664V8.336C76.2916 8.08 76.3983 7.888 76.6116 7.76C76.8463 7.61067 77.2303 7.536 77.7636 7.536H78.2756C78.809 7.536 79.193 7.61067 79.4276 7.76C79.6623 7.888 79.7796 8.08 79.7796 8.336V23.728C79.7796 24.88 80.1103 25.7653 80.7716 26.384C81.4543 26.9813 82.393 27.28 83.5876 27.28C84.761 27.28 85.6783 26.9813 86.3396 26.384C87.0223 25.7653 87.3636 24.88 87.3636 23.728V8.336C87.3636 7.80267 87.865 7.536 88.8676 7.536H89.3476C89.9023 7.536 90.2863 7.61067 90.4996 7.76C90.7343 7.888 90.8516 8.08 90.8516 8.336V23.664C90.8516 25.7973 90.2223 27.4293 88.9636 28.56C87.7263 29.6693 85.9343 30.224 83.5876 30.224ZM99.9986 30.064C99.4653 30.064 99.0813 30 98.8466 29.872C98.6333 29.7227 98.5266 29.52 98.5266 29.264V8.656C98.5266 7.952 98.8786 7.6 99.5826 7.6H104.511C108.692 7.6 110.783 9.79733 110.783 14.192C110.783 18.608 108.692 20.816 104.511 20.816H102.015V29.264C102.015 29.52 101.897 29.7227 101.663 29.872C101.428 30 101.044 30.064 100.511 30.064H99.9986ZM102.015 17.872H104.511C105.513 17.872 106.228 17.584 106.655 17.008C107.103 16.432 107.327 15.4933 107.327 14.192C107.327 12.912 107.103 11.984 106.655 11.408C106.228 10.832 105.513 10.544 104.511 10.544H102.015V17.872ZM129.373 30.224C128.306 30.224 127.325 30 126.429 29.552C125.554 29.0827 124.84 28.3573 124.285 27.376C123.752 26.3947 123.485 25.1253 123.485 23.568C123.485 21.9893 123.805 20.6987 124.445 19.696C125.085 18.672 125.821 18.0107 126.653 17.712V17.584C125.928 17.2 125.32 16.6027 124.829 15.792C124.36 14.9813 124.125 13.9893 124.125 12.816C124.125 11.0453 124.616 9.70133 125.597 8.784C126.578 7.84533 127.858 7.376 129.437 7.376C129.842 7.376 130.248 7.41867 130.653 7.504C131.08 7.568 131.432 7.68533 131.709 7.856C132.008 8.00533 132.157 8.21866 132.157 8.496C132.157 8.688 132.125 8.93333 132.061 9.232C131.997 9.53067 131.901 9.79733 131.773 10.032C131.645 10.2667 131.506 10.384 131.357 10.384C131.25 10.384 131.069 10.3413 130.813 10.256C130.557 10.1493 130.248 10.096 129.885 10.096C129.266 10.096 128.776 10.2667 128.413 10.608C128.072 10.9493 127.826 11.3653 127.677 11.856C127.549 12.3253 127.485 12.7947 127.485 13.264C127.485 13.8187 127.581 14.3733 127.773 14.928C127.965 15.4613 128.264 15.9093 128.669 16.272C129.096 16.6133 129.64 16.784 130.301 16.784H132.893L133.309 13.52C133.352 12.9867 133.736 12.72 134.461 12.72H135.069C135.837 12.72 136.221 12.9867 136.221 13.52V16.784H137.917C138.386 16.784 138.621 17.168 138.621 17.936V18.352C138.621 19.12 138.386 19.504 137.917 19.504H136.221V25.424C136.221 26.2347 136.317 26.7893 136.509 27.088C136.701 27.3653 136.978 27.504 137.341 27.504C137.597 27.504 137.789 27.4827 137.917 27.44C138.045 27.376 138.162 27.344 138.269 27.344C138.418 27.344 138.546 27.4613 138.653 27.696C138.76 27.9307 138.834 28.1973 138.877 28.496C138.941 28.7733 138.973 28.9653 138.973 29.072C138.973 29.3707 138.834 29.6053 138.557 29.776C138.301 29.9253 137.981 30.032 137.597 30.096C137.213 30.1813 136.861 30.224 136.541 30.224C136.029 30.224 135.517 30.128 135.005 29.936C134.514 29.744 134.098 29.392 133.757 28.88C133.16 29.2427 132.52 29.5627 131.837 29.84C131.154 30.096 130.333 30.224 129.373 30.224ZM129.853 27.504C130.365 27.504 130.877 27.408 131.389 27.216C131.901 27.0027 132.434 26.7573 132.989 26.48C132.925 26.1813 132.893 25.84 132.893 25.456V19.504H130.109C127.954 19.504 126.877 20.816 126.877 23.44C126.877 24.464 127.016 25.2747 127.293 25.872C127.592 26.4693 127.965 26.896 128.413 27.152C128.861 27.3867 129.341 27.504 129.853 27.504ZM156.133 30.192C155.237 30.192 154.384 30.096 153.573 29.904C152.762 29.6907 152.026 29.3707 151.365 28.944C150.874 28.6667 150.629 28.3253 150.629 27.92C150.629 27.7493 150.661 27.504 150.725 27.184C150.81 26.8427 150.928 26.544 151.077 26.288C151.226 26.0107 151.397 25.872 151.589 25.872C151.781 25.872 152.08 25.9893 152.485 26.224C152.89 26.4373 153.402 26.6613 154.021 26.896C154.64 27.1093 155.365 27.216 156.197 27.216C157.136 27.216 157.925 26.9493 158.565 26.416C159.205 25.8827 159.525 25.072 159.525 23.984C159.525 23.2373 159.354 22.6293 159.013 22.16C158.672 21.6693 158.213 21.264 157.637 20.944C157.082 20.6027 156.485 20.2613 155.845 19.92C155.013 19.5147 154.234 19.056 153.509 18.544C152.784 18.032 152.197 17.392 151.749 16.624C151.301 15.8347 151.077 14.8213 151.077 13.584C151.077 12.2827 151.365 11.1627 151.941 10.224C152.517 9.264 153.306 8.53867 154.309 8.048C155.312 7.536 156.453 7.28 157.733 7.28C158.416 7.28 159.098 7.36533 159.781 7.536C160.485 7.70667 161.104 7.94133 161.637 8.24C161.808 8.34667 161.936 8.45333 162.021 8.56C162.106 8.66667 162.149 8.816 162.149 9.008C162.149 9.17867 162.117 9.424 162.053 9.744C161.989 10.064 161.893 10.3627 161.765 10.64C161.658 10.896 161.52 11.024 161.349 11.024C161.114 11.024 160.688 10.896 160.069 10.64C159.45 10.3627 158.672 10.224 157.733 10.224C156.752 10.224 155.952 10.5013 155.333 11.056C154.714 11.5893 154.405 12.336 154.405 13.296C154.405 14.0427 154.586 14.6507 154.949 15.12C155.312 15.5893 155.781 15.9947 156.357 16.336C156.933 16.656 157.552 16.976 158.213 17.296C159.024 17.744 159.781 18.224 160.485 18.736C161.21 19.248 161.786 19.8987 162.213 20.688C162.661 21.4773 162.885 22.4907 162.885 23.728C162.885 25.6907 162.266 27.2587 161.029 28.432C159.813 29.6053 158.181 30.192 156.133 30.192ZM173.507 30.064C172.568 30.064 172.099 29.7973 172.099 29.264V20.176L167.011 8.816C166.947 8.688 166.893 8.56 166.851 8.432C166.808 8.304 166.787 8.18667 166.787 8.08C166.787 7.71733 167.277 7.536 168.259 7.536H168.995C169.336 7.536 169.624 7.57867 169.859 7.664C170.115 7.728 170.296 7.888 170.403 8.144L173.955 16.688L177.379 8.112C177.464 7.856 177.635 7.696 177.891 7.632C178.168 7.568 178.477 7.536 178.819 7.536H179.459C180.397 7.536 180.867 7.71733 180.867 8.08C180.867 8.272 180.803 8.51733 180.675 8.816L175.587 20.24V29.264C175.587 29.7973 175.107 30.064 174.147 30.064H173.507ZM187.949 30.064C187.415 30.064 187.031 30 186.797 29.872C186.583 29.7227 186.477 29.52 186.477 29.264V8.336C186.477 7.80267 186.967 7.536 187.949 7.536H188.717C189.186 7.536 189.538 7.58933 189.773 7.696C190.029 7.80267 190.231 7.99467 190.381 8.272L196.557 21.136C196.685 21.4133 196.813 21.7547 196.941 22.16C197.09 22.544 197.218 22.9067 197.325 23.248L197.453 23.216C197.431 22.96 197.399 22.6293 197.357 22.224C197.335 21.8187 197.325 21.424 197.325 21.04V8.336C197.325 8.08 197.431 7.888 197.645 7.76C197.879 7.61067 198.263 7.536 198.797 7.536H199.213C199.746 7.536 200.119 7.61067 200.333 7.76C200.567 7.888 200.685 8.08 200.685 8.336V29.264C200.685 29.7973 200.194 30.064 199.213 30.064H198.349C197.901 30.064 197.559 30.0213 197.325 29.936C197.111 29.8293 196.93 29.6373 196.781 29.36L190.573 16.4C190.466 16.144 190.338 15.824 190.189 15.44C190.061 15.056 189.943 14.6827 189.837 14.32L189.709 14.352C189.73 14.672 189.751 15.024 189.773 15.408C189.815 15.792 189.837 16.1653 189.837 16.528V29.264C189.837 29.52 189.719 29.7227 189.485 29.872C189.271 30 188.898 30.064 188.365 30.064H187.949ZM215.912 30.224C213.032 30.224 210.909 29.296 209.544 27.44C208.2 25.5627 207.528 22.6613 207.528 18.736C207.528 14.896 208.221 12.048 209.608 10.192C210.994 8.31467 213.128 7.376 216.008 7.376C216.605 7.376 217.181 7.42933 217.736 7.536C218.29 7.64267 218.749 7.77067 219.112 7.92C219.56 8.06933 219.784 8.35733 219.784 8.784C219.784 9.18933 219.72 9.616 219.592 10.064C219.464 10.512 219.25 10.736 218.952 10.736C218.696 10.736 218.333 10.672 217.864 10.544C217.416 10.416 216.818 10.352 216.072 10.352C214.301 10.352 213.021 11.0133 212.232 12.336C211.442 13.6587 211.048 15.792 211.048 18.736C211.048 21.7227 211.442 23.888 212.232 25.232C213.042 26.5547 214.322 27.216 216.072 27.216C216.989 27.216 217.704 27.12 218.216 26.928C218.728 26.736 219.09 26.64 219.304 26.64C219.581 26.64 219.794 26.864 219.944 27.312C220.093 27.7387 220.168 28.176 220.168 28.624C220.168 28.7947 220.125 28.9547 220.04 29.104C219.954 29.2533 219.784 29.3813 219.528 29.488C219.101 29.68 218.578 29.8507 217.96 30C217.341 30.1493 216.658 30.224 215.912 30.224Z"/></clipPath><linearGradient id="paint0_diamond_52_13" x1="0" y1="0" x2="500" y2="500" gradientUnits="userSpaceOnUse">
<stop stop-color="#572D91"/>
<stop offset="1" stop-color="#F38188"/>
</linearGradient>
</defs>
</svg>
