<svg viewBox="0 0 69 23" fill="none" xmlns="http://www.w3.org/2000/svg">
<g clip-path="url(#paint0_diamond_22_102_clip_path)" data-figma-skip-parse="true"><g transform="matrix(0.115285 0.0005 -3.35041e-05 0.0600783 32.9329 11.124)"><rect x="0" y="0" width="316.699" height="327.211" fill="url(#paint0_diamond_22_102)" opacity="1" shape-rendering="crispEdges"/><rect x="0" y="0" width="316.699" height="327.211" transform="scale(1 -1)" fill="url(#paint0_diamond_22_102)" opacity="1" shape-rendering="crispEdges"/><rect x="0" y="0" width="316.699" height="327.211" transform="scale(-1 1)" fill="url(#paint0_diamond_22_102)" opacity="1" shape-rendering="crispEdges"/><rect x="0" y="0" width="316.699" height="327.211" transform="scale(-1)" fill="url(#paint0_diamond_22_102)" opacity="1" shape-rendering="crispEdges"/></g></g><path d="M1.05611 22.624C0.352112 22.624 0.000112295 22.272 0.000112295 21.568V1.28002C0.000112295 0.576022 0.320112 0.224022 0.960112 0.224022H5.50411C7.63745 0.224022 9.21611 0.757355 10.2401 1.82402C11.2641 2.86936 11.7761 4.36269 11.7761 6.30402C11.7761 7.37069 11.5201 8.30936 11.0081 9.12002C10.5174 9.93069 9.83478 10.5067 8.96011 10.848V10.976C10.0694 11.3387 10.9548 12 11.6161 12.96C12.2774 13.92 12.6081 15.04 12.6081 16.32C12.6081 20.5227 10.3254 22.624 5.76011 22.624H1.05611ZM3.42411 9.72802H5.50411C6.44278 9.72802 7.15745 9.44002 7.64811 8.86402C8.16011 8.28802 8.41611 7.47736 8.41611 6.43202C8.41611 4.25602 7.44545 3.16802 5.50411 3.16802H3.42411V9.72802ZM3.42411 19.68H5.76011C7.97878 19.68 9.08811 18.5067 9.08811 16.16C9.08811 15.008 8.78945 14.1334 8.19211 13.536C7.59478 12.9174 6.69878 12.608 5.50411 12.608H3.42411V19.68ZM17.3004 22.688C16.4897 22.688 16.0844 22.4854 16.0844 22.08C16.0844 21.9734 16.1057 21.792 16.1484 21.536L21.6524 0.928022C21.8017 0.416023 22.303 0.160023 23.1564 0.160023H24.5644C25.4177 0.160023 25.919 0.416023 26.0684 0.928022L31.5404 21.536C31.5617 21.6854 31.583 21.8027 31.6044 21.888C31.6257 21.952 31.6364 22.016 31.6364 22.08C31.6364 22.4854 31.231 22.688 30.4204 22.688H29.5244C29.183 22.688 28.8844 22.6454 28.6284 22.56C28.3937 22.4747 28.255 22.3147 28.2124 22.08L27.0284 17.216H20.6924L19.4764 22.08C19.4337 22.3147 19.2844 22.4747 19.0284 22.56C18.7937 22.6454 18.5057 22.688 18.1644 22.688H17.3004ZM23.3804 6.20802L21.3644 14.4H26.3244L24.3084 6.20802C24.223 5.88802 24.1484 5.54669 24.0844 5.18402C24.0417 4.82136 23.9884 4.46936 23.9244 4.12802H23.7644C23.7217 4.46936 23.6684 4.82136 23.6044 5.18402C23.5404 5.54669 23.4657 5.88802 23.3804 6.20802ZM44.6039 22.848C41.7239 22.848 39.6012 21.92 38.2359 20.064C36.8919 18.1867 36.2199 15.2854 36.2199 11.36C36.2199 7.52002 36.9132 4.67202 38.2999 2.81602C39.6865 0.93869 41.8199 2.28882e-05 44.6999 2.28882e-05C45.2972 2.28882e-05 45.8732 0.0533562 46.4279 0.160023C46.9825 0.266689 47.4412 0.394689 47.8039 0.544022C48.2519 0.693356 48.4759 0.981356 48.4759 1.40802C48.4759 1.81336 48.4119 2.24002 48.2839 2.68802C48.1559 3.13602 47.9425 3.36002 47.6439 3.36002C47.3879 3.36002 47.0252 3.29602 46.5559 3.16802C46.1079 3.04002 45.5105 2.97602 44.7639 2.97602C42.9932 2.97602 41.7132 3.63736 40.9239 4.96002C40.1345 6.28269 39.7399 8.41602 39.7399 11.36C39.7399 14.3467 40.1345 16.512 40.9239 17.856C41.7345 19.1787 43.0145 19.84 44.7639 19.84C45.6812 19.84 46.3959 19.744 46.9079 19.552C47.4199 19.36 47.7825 19.264 47.9959 19.264C48.2732 19.264 48.4865 19.488 48.6359 19.936C48.7852 20.3627 48.8599 20.8 48.8599 21.248C48.8599 21.4187 48.8172 21.5787 48.7319 21.728C48.6465 21.8774 48.4759 22.0054 48.2199 22.112C47.7932 22.304 47.2705 22.4747 46.6519 22.624C46.0332 22.7734 45.3505 22.848 44.6039 22.848ZM56.3221 22.688C55.7888 22.688 55.4048 22.624 55.1701 22.496C54.9568 22.3467 54.8501 22.144 54.8501 21.888V0.960022C54.8501 0.704023 54.9568 0.512023 55.1701 0.384022C55.4048 0.234689 55.7888 0.160023 56.3221 0.160023H56.8341C57.3674 0.160023 57.7514 0.234689 57.9861 0.384022C58.2208 0.512023 58.3381 0.704023 58.3381 0.960022V10.08H58.4661L64.0341 0.800022C64.1834 0.544023 64.3648 0.373357 64.5781 0.288023C64.7914 0.202689 65.1648 0.160023 65.6981 0.160023H66.1461C66.6581 0.160023 67.0101 0.202689 67.2021 0.288023C67.3941 0.373357 67.4901 0.501356 67.4901 0.672022C67.4901 0.906689 67.3834 1.18402 67.1701 1.50402L61.4101 11.104L67.8421 21.6C67.9488 21.7707 68.0128 21.8987 68.0341 21.984C68.0554 22.0694 68.0661 22.1547 68.0661 22.24C68.0661 22.5387 67.6181 22.688 66.7221 22.688H65.7941C65.4954 22.688 65.2288 22.656 64.9941 22.592C64.7808 22.528 64.5888 22.3574 64.4181 22.08L58.4661 12.384H58.3381V21.888C58.3381 22.144 58.2208 22.3467 57.9861 22.496C57.7514 22.624 57.3674 22.688 56.8341 22.688H56.3221Z" data-figma-gradient-fill="{&#34;type&#34;:&#34;GRADIENT_DIAMOND&#34;,&#34;stops&#34;:[{&#34;color&#34;:{&#34;r&#34;:0.20000000298023224,&#34;g&#34;:0.20000000298023224,&#34;b&#34;:0.33333334326744080,&#34;a&#34;:1.0},&#34;position&#34;:0.0},{&#34;color&#34;:{&#34;r&#34;:0.73219257593154907,&#34;g&#34;:0.73219257593154907,&#34;b&#34;:0.88324165344238281,&#34;a&#34;:1.0},&#34;position&#34;:1.0}],&#34;stopsVar&#34;:[{&#34;color&#34;:{&#34;r&#34;:0.20000000298023224,&#34;g&#34;:0.20000000298023224,&#34;b&#34;:0.33333334326744080,&#34;a&#34;:1.0},&#34;position&#34;:0.0},{&#34;color&#34;:{&#34;r&#34;:0.73219257593154907,&#34;g&#34;:0.73219257593154907,&#34;b&#34;:0.88324165344238281,&#34;a&#34;:1.0},&#34;position&#34;:1.0}],&#34;transform&#34;:{&#34;m00&#34;:230.57070922851562,&#34;m01&#34;:-0.067008286714553833,&#34;m02&#34;:-82.318984985351562,&#34;m10&#34;:1.0000007152557373,&#34;m11&#34;:120.15656280517578,&#34;m12&#34;:-49.454261779785156},&#34;opacity&#34;:1.0,&#34;blendMode&#34;:&#34;NORMAL&#34;,&#34;visible&#34;:true}"/>
<defs>
<clipPath id="paint0_diamond_22_102_clip_path"><path d="M1.05611 22.624C0.352112 22.624 0.000112295 22.272 0.000112295 21.568V1.28002C0.000112295 0.576022 0.320112 0.224022 0.960112 0.224022H5.50411C7.63745 0.224022 9.21611 0.757355 10.2401 1.82402C11.2641 2.86936 11.7761 4.36269 11.7761 6.30402C11.7761 7.37069 11.5201 8.30936 11.0081 9.12002C10.5174 9.93069 9.83478 10.5067 8.96011 10.848V10.976C10.0694 11.3387 10.9548 12 11.6161 12.96C12.2774 13.92 12.6081 15.04 12.6081 16.32C12.6081 20.5227 10.3254 22.624 5.76011 22.624H1.05611ZM3.42411 9.72802H5.50411C6.44278 9.72802 7.15745 9.44002 7.64811 8.86402C8.16011 8.28802 8.41611 7.47736 8.41611 6.43202C8.41611 4.25602 7.44545 3.16802 5.50411 3.16802H3.42411V9.72802ZM3.42411 19.68H5.76011C7.97878 19.68 9.08811 18.5067 9.08811 16.16C9.08811 15.008 8.78945 14.1334 8.19211 13.536C7.59478 12.9174 6.69878 12.608 5.50411 12.608H3.42411V19.68ZM17.3004 22.688C16.4897 22.688 16.0844 22.4854 16.0844 22.08C16.0844 21.9734 16.1057 21.792 16.1484 21.536L21.6524 0.928022C21.8017 0.416023 22.303 0.160023 23.1564 0.160023H24.5644C25.4177 0.160023 25.919 0.416023 26.0684 0.928022L31.5404 21.536C31.5617 21.6854 31.583 21.8027 31.6044 21.888C31.6257 21.952 31.6364 22.016 31.6364 22.08C31.6364 22.4854 31.231 22.688 30.4204 22.688H29.5244C29.183 22.688 28.8844 22.6454 28.6284 22.56C28.3937 22.4747 28.255 22.3147 28.2124 22.08L27.0284 17.216H20.6924L19.4764 22.08C19.4337 22.3147 19.2844 22.4747 19.0284 22.56C18.7937 22.6454 18.5057 22.688 18.1644 22.688H17.3004ZM23.3804 6.20802L21.3644 14.4H26.3244L24.3084 6.20802C24.223 5.88802 24.1484 5.54669 24.0844 5.18402C24.0417 4.82136 23.9884 4.46936 23.9244 4.12802H23.7644C23.7217 4.46936 23.6684 4.82136 23.6044 5.18402C23.5404 5.54669 23.4657 5.88802 23.3804 6.20802ZM44.6039 22.848C41.7239 22.848 39.6012 21.92 38.2359 20.064C36.8919 18.1867 36.2199 15.2854 36.2199 11.36C36.2199 7.52002 36.9132 4.67202 38.2999 2.81602C39.6865 0.93869 41.8199 2.28882e-05 44.6999 2.28882e-05C45.2972 2.28882e-05 45.8732 0.0533562 46.4279 0.160023C46.9825 0.266689 47.4412 0.394689 47.8039 0.544022C48.2519 0.693356 48.4759 0.981356 48.4759 1.40802C48.4759 1.81336 48.4119 2.24002 48.2839 2.68802C48.1559 3.13602 47.9425 3.36002 47.6439 3.36002C47.3879 3.36002 47.0252 3.29602 46.5559 3.16802C46.1079 3.04002 45.5105 2.97602 44.7639 2.97602C42.9932 2.97602 41.7132 3.63736 40.9239 4.96002C40.1345 6.28269 39.7399 8.41602 39.7399 11.36C39.7399 14.3467 40.1345 16.512 40.9239 17.856C41.7345 19.1787 43.0145 19.84 44.7639 19.84C45.6812 19.84 46.3959 19.744 46.9079 19.552C47.4199 19.36 47.7825 19.264 47.9959 19.264C48.2732 19.264 48.4865 19.488 48.6359 19.936C48.7852 20.3627 48.8599 20.8 48.8599 21.248C48.8599 21.4187 48.8172 21.5787 48.7319 21.728C48.6465 21.8774 48.4759 22.0054 48.2199 22.112C47.7932 22.304 47.2705 22.4747 46.6519 22.624C46.0332 22.7734 45.3505 22.848 44.6039 22.848ZM56.3221 22.688C55.7888 22.688 55.4048 22.624 55.1701 22.496C54.9568 22.3467 54.8501 22.144 54.8501 21.888V0.960022C54.8501 0.704023 54.9568 0.512023 55.1701 0.384022C55.4048 0.234689 55.7888 0.160023 56.3221 0.160023H56.8341C57.3674 0.160023 57.7514 0.234689 57.9861 0.384022C58.2208 0.512023 58.3381 0.704023 58.3381 0.960022V10.08H58.4661L64.0341 0.800022C64.1834 0.544023 64.3648 0.373357 64.5781 0.288023C64.7914 0.202689 65.1648 0.160023 65.6981 0.160023H66.1461C66.6581 0.160023 67.0101 0.202689 67.2021 0.288023C67.3941 0.373357 67.4901 0.501356 67.4901 0.672022C67.4901 0.906689 67.3834 1.18402 67.1701 1.50402L61.4101 11.104L67.8421 21.6C67.9488 21.7707 68.0128 21.8987 68.0341 21.984C68.0554 22.0694 68.0661 22.1547 68.0661 22.24C68.0661 22.5387 67.6181 22.688 66.7221 22.688H65.7941C65.4954 22.688 65.2288 22.656 64.9941 22.592C64.7808 22.528 64.5888 22.3574 64.4181 22.08L58.4661 12.384H58.3381V21.888C58.3381 22.144 58.2208 22.3467 57.9861 22.496C57.7514 22.624 57.3674 22.688 56.8341 22.688H56.3221Z"/></clipPath><linearGradient id="paint0_diamond_22_102" x1="0" y1="0" x2="500" y2="500" gradientUnits="userSpaceOnUse">
<stop stop-color="#333355"/>
<stop offset="1" stop-color="#BBBBE1"/>
</linearGradient>
</defs>
</svg>
