<svg width="487" height="46" viewBox="0 0 487 46" fill="none" xmlns="http://www.w3.org/2000/svg">
<g clip-path="url(#paint0_diamond_22_107_clip_path)" data-figma-skip-parse="true"><g transform="matrix(0.965401 -0.031 0.00870815 0.142948 200.855 16.44)"><rect x="0" y="0" width="299.766" height="364.792" fill="url(#paint0_diamond_22_107)" opacity="1" shape-rendering="crispEdges"/><rect x="0" y="0" width="299.766" height="364.792" transform="scale(1 -1)" fill="url(#paint0_diamond_22_107)" opacity="1" shape-rendering="crispEdges"/><rect x="0" y="0" width="299.766" height="364.792" transform="scale(-1 1)" fill="url(#paint0_diamond_22_107)" opacity="1" shape-rendering="crispEdges"/><rect x="0" y="0" width="299.766" height="364.792" transform="scale(-1)" fill="url(#paint0_diamond_22_107)" opacity="1" shape-rendering="crispEdges"/></g></g><path d="M2.94422 45.568C1.87755 45.568 1.10955 45.44 0.640217 45.184C0.21355 44.8853 0.000216961 44.48 0.000216961 43.968V2.112C0.000216961 1.6 0.21355 1.216 0.640217 0.959999C1.10955 0.661334 1.87755 0.512001 2.94422 0.512001H4.54422C5.65355 0.512001 6.48555 0.618668 7.04022 0.832001C7.59488 1.04533 7.95755 1.38667 8.12822 1.856L15.6162 20.288C15.8722 20.8853 16.0856 21.4827 16.2562 22.08C16.4696 22.6347 16.6402 23.168 16.7682 23.68C16.8536 23.168 17.0029 22.6347 17.2162 22.08C17.4296 21.4827 17.6429 20.8853 17.8562 20.288L25.4082 1.856C25.5789 1.38667 25.9416 1.04533 26.4962 0.832001C27.0509 0.618668 27.8829 0.512001 28.9922 0.512001H30.5922C31.6589 0.512001 32.4056 0.661334 32.8322 0.959999C33.3016 1.216 33.5362 1.6 33.5362 2.112V43.968C33.5362 44.48 33.3016 44.8853 32.8322 45.184C32.4056 45.44 31.6589 45.568 30.5922 45.568H29.7602C28.6936 45.568 27.9256 45.44 27.4562 45.184C27.0296 44.8853 26.8162 44.48 26.8162 43.968V18.56C26.8162 17.1947 26.9229 15.7867 27.1362 14.336L26.8802 14.208C26.6242 14.8907 26.3682 15.552 26.1122 16.192C25.8562 16.832 25.5789 17.5147 25.2802 18.24L20.6082 29.76C20.3522 30.3573 19.9469 30.7413 19.3922 30.912C18.8376 31.0827 18.1122 31.168 17.2162 31.168H16.2562C15.3602 31.168 14.6349 31.0827 14.0802 30.912C13.5256 30.7413 13.1416 30.3573 12.9282 29.76L8.25622 18.24C7.95755 17.5573 7.68022 16.896 7.42422 16.256C7.21088 15.5733 6.97622 14.8907 6.72022 14.208L6.46422 14.336C6.63488 15.8293 6.72022 17.2373 6.72022 18.56V43.968C6.72022 44.48 6.48555 44.8853 6.01622 45.184C5.58955 45.44 4.84288 45.568 3.77622 45.568H2.94422ZM47.1632 45.568C45.5419 45.568 44.7312 45.1627 44.7312 44.352C44.7312 44.1387 44.7739 43.776 44.8592 43.264L55.8672 2.048C56.1659 1.024 57.1686 0.512001 58.8752 0.512001H61.6912C63.3979 0.512001 64.4006 1.024 64.6992 2.048L75.6432 43.264C75.6859 43.5627 75.7286 43.7973 75.7712 43.968C75.8139 44.096 75.8352 44.224 75.8352 44.352C75.8352 45.1627 75.0246 45.568 73.4032 45.568H71.6112C70.9286 45.568 70.3312 45.4827 69.8192 45.312C69.3499 45.1413 69.0726 44.8213 68.9872 44.352L66.6192 34.624H53.9472L51.5152 44.352C51.4299 44.8213 51.1312 45.1413 50.6192 45.312C50.1499 45.4827 49.5739 45.568 48.8912 45.568H47.1632ZM59.3232 12.608L55.2912 28.992H65.2112L61.1792 12.608C61.0086 11.968 60.8592 11.2853 60.7312 10.56C60.6459 9.83467 60.5392 9.13067 60.4112 8.448H60.0912C60.0059 9.13067 59.8992 9.83467 59.7712 10.56C59.6432 11.2853 59.4939 11.968 59.3232 12.608ZM89.9942 45.568C88.9276 45.568 88.1596 45.44 87.6902 45.184C87.2636 44.8853 87.0502 44.48 87.0502 43.968V2.112C87.0502 1.04533 88.0316 0.512001 89.9942 0.512001H91.5302C92.4689 0.512001 93.1729 0.618668 93.6422 0.832001C94.1542 1.04533 94.5596 1.42933 94.8582 1.984L107.21 27.712C107.466 28.2667 107.722 28.9493 107.978 29.76C108.277 30.528 108.533 31.2533 108.746 31.936L109.002 31.872C108.96 31.36 108.896 30.6987 108.81 29.888C108.768 29.0773 108.746 28.288 108.746 27.52V2.112C108.746 1.6 108.96 1.216 109.386 0.959999C109.856 0.661334 110.624 0.512001 111.69 0.512001H112.522C113.589 0.512001 114.336 0.661334 114.762 0.959999C115.232 1.216 115.466 1.6 115.466 2.112V43.968C115.466 45.0347 114.485 45.568 112.522 45.568H110.794C109.898 45.568 109.216 45.4827 108.746 45.312C108.32 45.0987 107.957 44.7147 107.658 44.16L95.2422 18.24C95.0289 17.728 94.7729 17.088 94.4742 16.32C94.2182 15.552 93.9836 14.8053 93.7702 14.08L93.5142 14.144C93.5569 14.784 93.5996 15.488 93.6422 16.256C93.7276 17.024 93.7702 17.7707 93.7702 18.496V43.968C93.7702 44.48 93.5356 44.8853 93.0662 45.184C92.6396 45.44 91.8929 45.568 90.8262 45.568H89.9942ZM129.088 45.568C127.467 45.568 126.656 45.1627 126.656 44.352C126.656 44.1387 126.699 43.776 126.784 43.264L137.792 2.048C138.091 1.024 139.094 0.512001 140.8 0.512001H143.616C145.323 0.512001 146.326 1.024 146.624 2.048L157.568 43.264C157.611 43.5627 157.654 43.7973 157.696 43.968C157.739 44.096 157.76 44.224 157.76 44.352C157.76 45.1627 156.95 45.568 155.328 45.568H153.536C152.854 45.568 152.256 45.4827 151.744 45.312C151.275 45.1413 150.998 44.8213 150.912 44.352L148.544 34.624H135.872L133.44 44.352C133.355 44.8213 133.056 45.1413 132.544 45.312C132.075 45.4827 131.499 45.568 130.816 45.568H129.088ZM141.248 12.608L137.216 28.992H147.136L143.104 12.608C142.934 11.968 142.784 11.2853 142.656 10.56C142.571 9.83467 142.464 9.13067 142.336 8.448H142.016C141.931 9.13067 141.824 9.83467 141.696 10.56C141.568 11.2853 141.419 11.968 141.248 12.608ZM183.375 45.888C177.871 45.888 173.754 44.032 171.023 40.32C168.293 36.5653 166.927 30.7627 166.927 22.912C166.927 15.232 168.357 9.536 171.215 5.824C174.117 2.06933 178.554 0.192001 184.527 0.192001C185.893 0.192001 187.194 0.298668 188.431 0.512001C189.711 0.725334 190.735 0.981333 191.503 1.28C192.399 1.62133 192.847 2.19733 192.847 3.008C192.847 3.81867 192.677 4.672 192.335 5.568C192.037 6.464 191.61 6.912 191.055 6.912C190.501 6.912 189.733 6.784 188.751 6.528C187.77 6.272 186.405 6.144 184.655 6.144C180.901 6.144 178.17 7.46667 176.463 10.112C174.799 12.7573 173.967 17.024 173.967 22.912C173.967 29.0133 174.757 33.3867 176.335 36.032C177.914 38.6773 180.474 40 184.015 40C184.783 40 185.53 39.936 186.255 39.808C187.023 39.68 187.727 39.5307 188.367 39.36V26.432H182.991C182.01 26.432 181.519 25.664 181.519 24.128V22.848C181.519 21.312 182.01 20.544 182.991 20.544H192.975C194.383 20.544 195.087 21.248 195.087 22.656V40.896C195.087 41.408 194.959 41.856 194.703 42.24C194.49 42.5813 194.106 42.944 193.551 43.328C192.357 44.096 190.821 44.7147 188.943 45.184C187.109 45.6533 185.253 45.888 183.375 45.888ZM211.425 45.44C210.017 45.44 209.313 44.736 209.313 43.328V2.752C209.313 1.344 210.017 0.639999 211.425 0.639999H229.729C230.71 0.639999 231.201 1.408 231.201 2.944V4.224C231.201 5.76 230.71 6.528 229.729 6.528H216.289V19.584H228.321C229.259 19.584 229.729 20.352 229.729 21.888V23.168C229.729 24.704 229.259 25.472 228.321 25.472H216.289V39.552H229.729C230.71 39.552 231.201 40.32 231.201 41.856V43.136C231.201 44.672 230.71 45.44 229.729 45.44H211.425ZM260.225 45.44C258.817 45.44 258.113 44.736 258.113 43.328V2.752C258.113 1.344 258.817 0.639999 260.225 0.639999H278.529C279.51 0.639999 280.001 1.408 280.001 2.944V4.224C280.001 5.76 279.51 6.528 278.529 6.528H265.089V19.584H277.121C278.059 19.584 278.529 20.352 278.529 21.888V23.168C278.529 24.704 278.059 25.472 277.121 25.472H265.089V39.552H278.529C279.51 39.552 280.001 40.32 280.001 41.856V43.136C280.001 44.672 279.51 45.44 278.529 45.44H260.225ZM294.707 45.568C293.64 45.568 292.872 45.44 292.403 45.184C291.976 44.8853 291.763 44.48 291.763 43.968V2.112C291.763 1.04533 292.744 0.512001 294.707 0.512001H296.243C297.181 0.512001 297.885 0.618668 298.355 0.832001C298.867 1.04533 299.272 1.42933 299.571 1.984L311.923 27.712C312.179 28.2667 312.435 28.9493 312.691 29.76C312.989 30.528 313.245 31.2533 313.459 31.936L313.715 31.872C313.672 31.36 313.608 30.6987 313.523 29.888C313.48 29.0773 313.459 28.288 313.459 27.52V2.112C313.459 1.6 313.672 1.216 314.099 0.959999C314.568 0.661334 315.336 0.512001 316.403 0.512001H317.235C318.301 0.512001 319.048 0.661334 319.475 0.959999C319.944 1.216 320.179 1.6 320.179 2.112V43.968C320.179 45.0347 319.197 45.568 317.235 45.568H315.507C314.611 45.568 313.928 45.4827 313.459 45.312C313.032 45.0987 312.669 44.7147 312.371 44.16L299.955 18.24C299.741 17.728 299.485 17.088 299.187 16.32C298.931 15.552 298.696 14.8053 298.483 14.08L298.227 14.144C298.269 14.784 298.312 15.488 298.355 16.256C298.44 17.024 298.483 17.7707 298.483 18.496V43.968C298.483 44.48 298.248 44.8853 297.779 45.184C297.352 45.44 296.605 45.568 295.539 45.568H294.707ZM344.681 45.568C342.761 45.568 341.801 45.0347 341.801 43.968V6.528H333.225C332.286 6.528 331.817 5.76 331.817 4.224V2.944C331.817 1.408 332.286 0.639999 333.225 0.639999H357.353C358.291 0.639999 358.761 1.408 358.761 2.944V4.224C358.761 5.76 358.291 6.528 357.353 6.528H348.777V43.968C348.777 45.0347 347.838 45.568 345.961 45.568H344.681ZM373.382 45.568C372.315 45.568 371.547 45.44 371.078 45.184C370.651 44.8853 370.438 44.48 370.438 43.968V2.752C370.438 1.344 371.142 0.639999 372.55 0.639999H382.278C390.726 0.639999 394.95 5.03467 394.95 13.824C394.95 16.4693 394.395 18.7093 393.286 20.544C392.219 22.3787 390.64 23.5307 388.55 24V24.256C390.598 25.1947 392.091 27.136 393.03 30.08L396.998 42.752C397.126 43.0933 397.211 43.4133 397.254 43.712C397.339 44.0107 397.382 44.2453 397.382 44.416C397.382 44.8853 397.147 45.2053 396.678 45.376C396.251 45.504 395.526 45.568 394.502 45.568H393.222C391.558 45.568 390.598 45.0987 390.342 44.16L386.694 32C386.054 29.8667 385.307 28.4373 384.454 27.712C383.6 26.9867 382.342 26.624 380.678 26.624H377.414V43.968C377.414 44.48 377.179 44.8853 376.71 45.184C376.24 45.44 375.472 45.568 374.406 45.568H373.382ZM377.414 20.736H382.406C384.411 20.736 385.84 20.2027 386.694 19.136C387.59 18.0267 388.038 16.256 388.038 13.824C388.038 11.264 387.59 9.408 386.694 8.256C385.84 7.104 384.411 6.528 382.406 6.528H377.414V20.736ZM411.846 45.568C410.779 45.568 410.011 45.44 409.542 45.184C409.072 44.8853 408.838 44.48 408.838 43.968V2.112C408.838 1.6 409.072 1.216 409.542 0.959999C410.011 0.661334 410.779 0.512001 411.846 0.512001H412.87C413.936 0.512001 414.683 0.661334 415.11 0.959999C415.579 1.216 415.814 1.6 415.814 2.112V43.968C415.814 44.48 415.579 44.8853 415.11 45.184C414.683 45.44 413.936 45.568 412.87 45.568H411.846ZM433.662 45.44C432.254 45.44 431.55 44.736 431.55 43.328V2.752C431.55 1.344 432.254 0.639999 433.662 0.639999H451.966C452.948 0.639999 453.438 1.408 453.438 2.944V4.224C453.438 5.76 452.948 6.528 451.966 6.528H438.526V19.584H450.558C451.497 19.584 451.966 20.352 451.966 21.888V23.168C451.966 24.704 451.497 25.472 450.558 25.472H438.526V39.552H451.966C452.948 39.552 453.438 40.32 453.438 41.856V43.136C453.438 44.672 452.948 45.44 451.966 45.44H433.662ZM472.688 45.824C470.896 45.824 469.19 45.632 467.568 45.248C465.947 44.8213 464.475 44.1813 463.152 43.328C462.171 42.7733 461.68 42.0907 461.68 41.28C461.68 40.9387 461.744 40.448 461.872 39.808C462.043 39.1253 462.278 38.528 462.576 38.016C462.875 37.4613 463.216 37.184 463.6 37.184C463.984 37.184 464.582 37.4187 465.392 37.888C466.203 38.3147 467.227 38.7627 468.464 39.232C469.702 39.6587 471.152 39.872 472.816 39.872C474.694 39.872 476.272 39.3387 477.552 38.272C478.832 37.2053 479.472 35.584 479.472 33.408C479.472 31.9147 479.131 30.6987 478.448 29.76C477.766 28.7787 476.848 27.968 475.696 27.328C474.587 26.6453 473.392 25.9627 472.112 25.28C470.448 24.4693 468.891 23.552 467.44 22.528C465.99 21.504 464.816 20.224 463.92 18.688C463.024 17.1093 462.576 15.0827 462.576 12.608C462.576 10.0053 463.152 7.76534 464.304 5.888C465.456 3.968 467.035 2.51733 469.04 1.536C471.046 0.512 473.328 0 475.888 0C477.254 0 478.619 0.170667 479.984 0.512001C481.392 0.853335 482.63 1.32267 483.696 1.92C484.038 2.13334 484.294 2.34667 484.464 2.56C484.635 2.77333 484.72 3.072 484.72 3.456C484.72 3.79734 484.656 4.288 484.528 4.928C484.4 5.568 484.208 6.16533 483.952 6.72C483.739 7.232 483.462 7.488 483.12 7.488C482.651 7.488 481.798 7.232 480.56 6.72C479.323 6.16533 477.766 5.888 475.888 5.888C473.926 5.888 472.326 6.44267 471.088 7.552C469.851 8.61867 469.232 10.112 469.232 12.032C469.232 13.5253 469.595 14.7413 470.32 15.68C471.046 16.6187 471.984 17.4293 473.136 18.112C474.288 18.752 475.526 19.392 476.848 20.032C478.47 20.928 479.984 21.888 481.392 22.912C482.843 23.936 483.995 25.2373 484.848 26.816C485.744 28.3947 486.192 30.4213 486.192 32.896C486.192 36.8213 484.955 39.9573 482.48 42.304C480.048 44.6507 476.784 45.824 472.688 45.824Z" data-figma-gradient-fill="{&#34;type&#34;:&#34;GRADIENT_DIAMOND&#34;,&#34;stops&#34;:[{&#34;color&#34;:{&#34;r&#34;:0.34143927693367004,&#34;g&#34;:0.17814230918884277,&#34;b&#34;:0.57005488872528076,&#34;a&#34;:1.0},&#34;position&#34;:0.0},{&#34;color&#34;:{&#34;r&#34;:0.91442316770553589,&#34;g&#34;:0.81662106513977051,&#34;b&#34;:1.0,&#34;a&#34;:1.0},&#34;position&#34;:1.0}],&#34;stopsVar&#34;:[{&#34;color&#34;:{&#34;r&#34;:0.34143927693367004,&#34;g&#34;:0.17814230918884277,&#34;b&#34;:0.57005488872528076,&#34;a&#34;:1.0},&#34;position&#34;:0.0},{&#34;color&#34;:{&#34;r&#34;:0.91442316770553589,&#34;g&#34;:0.81662106513977051,&#34;b&#34;:1.0,&#34;a&#34;:1.0},&#34;position&#34;:1.0}],&#34;transform&#34;:{&#34;m00&#34;:1930.802246093750,&#34;m01&#34;:17.416299819946289,&#34;m02&#34;:-773.25469970703125,&#34;m10&#34;:-62.000003814697266,&#34;m11&#34;:285.89627075195312,&#34;m12&#34;:-95.508140563964844},&#34;opacity&#34;:1.0,&#34;blendMode&#34;:&#34;NORMAL&#34;,&#34;visible&#34;:true}"/>
<defs>
<clipPath id="paint0_diamond_22_107_clip_path"><path d="M2.94422 45.568C1.87755 45.568 1.10955 45.44 0.640217 45.184C0.21355 44.8853 0.000216961 44.48 0.000216961 43.968V2.112C0.000216961 1.6 0.21355 1.216 0.640217 0.959999C1.10955 0.661334 1.87755 0.512001 2.94422 0.512001H4.54422C5.65355 0.512001 6.48555 0.618668 7.04022 0.832001C7.59488 1.04533 7.95755 1.38667 8.12822 1.856L15.6162 20.288C15.8722 20.8853 16.0856 21.4827 16.2562 22.08C16.4696 22.6347 16.6402 23.168 16.7682 23.68C16.8536 23.168 17.0029 22.6347 17.2162 22.08C17.4296 21.4827 17.6429 20.8853 17.8562 20.288L25.4082 1.856C25.5789 1.38667 25.9416 1.04533 26.4962 0.832001C27.0509 0.618668 27.8829 0.512001 28.9922 0.512001H30.5922C31.6589 0.512001 32.4056 0.661334 32.8322 0.959999C33.3016 1.216 33.5362 1.6 33.5362 2.112V43.968C33.5362 44.48 33.3016 44.8853 32.8322 45.184C32.4056 45.44 31.6589 45.568 30.5922 45.568H29.7602C28.6936 45.568 27.9256 45.44 27.4562 45.184C27.0296 44.8853 26.8162 44.48 26.8162 43.968V18.56C26.8162 17.1947 26.9229 15.7867 27.1362 14.336L26.8802 14.208C26.6242 14.8907 26.3682 15.552 26.1122 16.192C25.8562 16.832 25.5789 17.5147 25.2802 18.24L20.6082 29.76C20.3522 30.3573 19.9469 30.7413 19.3922 30.912C18.8376 31.0827 18.1122 31.168 17.2162 31.168H16.2562C15.3602 31.168 14.6349 31.0827 14.0802 30.912C13.5256 30.7413 13.1416 30.3573 12.9282 29.76L8.25622 18.24C7.95755 17.5573 7.68022 16.896 7.42422 16.256C7.21088 15.5733 6.97622 14.8907 6.72022 14.208L6.46422 14.336C6.63488 15.8293 6.72022 17.2373 6.72022 18.56V43.968C6.72022 44.48 6.48555 44.8853 6.01622 45.184C5.58955 45.44 4.84288 45.568 3.77622 45.568H2.94422ZM47.1632 45.568C45.5419 45.568 44.7312 45.1627 44.7312 44.352C44.7312 44.1387 44.7739 43.776 44.8592 43.264L55.8672 2.048C56.1659 1.024 57.1686 0.512001 58.8752 0.512001H61.6912C63.3979 0.512001 64.4006 1.024 64.6992 2.048L75.6432 43.264C75.6859 43.5627 75.7286 43.7973 75.7712 43.968C75.8139 44.096 75.8352 44.224 75.8352 44.352C75.8352 45.1627 75.0246 45.568 73.4032 45.568H71.6112C70.9286 45.568 70.3312 45.4827 69.8192 45.312C69.3499 45.1413 69.0726 44.8213 68.9872 44.352L66.6192 34.624H53.9472L51.5152 44.352C51.4299 44.8213 51.1312 45.1413 50.6192 45.312C50.1499 45.4827 49.5739 45.568 48.8912 45.568H47.1632ZM59.3232 12.608L55.2912 28.992H65.2112L61.1792 12.608C61.0086 11.968 60.8592 11.2853 60.7312 10.56C60.6459 9.83467 60.5392 9.13067 60.4112 8.448H60.0912C60.0059 9.13067 59.8992 9.83467 59.7712 10.56C59.6432 11.2853 59.4939 11.968 59.3232 12.608ZM89.9942 45.568C88.9276 45.568 88.1596 45.44 87.6902 45.184C87.2636 44.8853 87.0502 44.48 87.0502 43.968V2.112C87.0502 1.04533 88.0316 0.512001 89.9942 0.512001H91.5302C92.4689 0.512001 93.1729 0.618668 93.6422 0.832001C94.1542 1.04533 94.5596 1.42933 94.8582 1.984L107.21 27.712C107.466 28.2667 107.722 28.9493 107.978 29.76C108.277 30.528 108.533 31.2533 108.746 31.936L109.002 31.872C108.96 31.36 108.896 30.6987 108.81 29.888C108.768 29.0773 108.746 28.288 108.746 27.52V2.112C108.746 1.6 108.96 1.216 109.386 0.959999C109.856 0.661334 110.624 0.512001 111.69 0.512001H112.522C113.589 0.512001 114.336 0.661334 114.762 0.959999C115.232 1.216 115.466 1.6 115.466 2.112V43.968C115.466 45.0347 114.485 45.568 112.522 45.568H110.794C109.898 45.568 109.216 45.4827 108.746 45.312C108.32 45.0987 107.957 44.7147 107.658 44.16L95.2422 18.24C95.0289 17.728 94.7729 17.088 94.4742 16.32C94.2182 15.552 93.9836 14.8053 93.7702 14.08L93.5142 14.144C93.5569 14.784 93.5996 15.488 93.6422 16.256C93.7276 17.024 93.7702 17.7707 93.7702 18.496V43.968C93.7702 44.48 93.5356 44.8853 93.0662 45.184C92.6396 45.44 91.8929 45.568 90.8262 45.568H89.9942ZM129.088 45.568C127.467 45.568 126.656 45.1627 126.656 44.352C126.656 44.1387 126.699 43.776 126.784 43.264L137.792 2.048C138.091 1.024 139.094 0.512001 140.8 0.512001H143.616C145.323 0.512001 146.326 1.024 146.624 2.048L157.568 43.264C157.611 43.5627 157.654 43.7973 157.696 43.968C157.739 44.096 157.76 44.224 157.76 44.352C157.76 45.1627 156.95 45.568 155.328 45.568H153.536C152.854 45.568 152.256 45.4827 151.744 45.312C151.275 45.1413 150.998 44.8213 150.912 44.352L148.544 34.624H135.872L133.44 44.352C133.355 44.8213 133.056 45.1413 132.544 45.312C132.075 45.4827 131.499 45.568 130.816 45.568H129.088ZM141.248 12.608L137.216 28.992H147.136L143.104 12.608C142.934 11.968 142.784 11.2853 142.656 10.56C142.571 9.83467 142.464 9.13067 142.336 8.448H142.016C141.931 9.13067 141.824 9.83467 141.696 10.56C141.568 11.2853 141.419 11.968 141.248 12.608ZM183.375 45.888C177.871 45.888 173.754 44.032 171.023 40.32C168.293 36.5653 166.927 30.7627 166.927 22.912C166.927 15.232 168.357 9.536 171.215 5.824C174.117 2.06933 178.554 0.192001 184.527 0.192001C185.893 0.192001 187.194 0.298668 188.431 0.512001C189.711 0.725334 190.735 0.981333 191.503 1.28C192.399 1.62133 192.847 2.19733 192.847 3.008C192.847 3.81867 192.677 4.672 192.335 5.568C192.037 6.464 191.61 6.912 191.055 6.912C190.501 6.912 189.733 6.784 188.751 6.528C187.77 6.272 186.405 6.144 184.655 6.144C180.901 6.144 178.17 7.46667 176.463 10.112C174.799 12.7573 173.967 17.024 173.967 22.912C173.967 29.0133 174.757 33.3867 176.335 36.032C177.914 38.6773 180.474 40 184.015 40C184.783 40 185.53 39.936 186.255 39.808C187.023 39.68 187.727 39.5307 188.367 39.36V26.432H182.991C182.01 26.432 181.519 25.664 181.519 24.128V22.848C181.519 21.312 182.01 20.544 182.991 20.544H192.975C194.383 20.544 195.087 21.248 195.087 22.656V40.896C195.087 41.408 194.959 41.856 194.703 42.24C194.49 42.5813 194.106 42.944 193.551 43.328C192.357 44.096 190.821 44.7147 188.943 45.184C187.109 45.6533 185.253 45.888 183.375 45.888ZM211.425 45.44C210.017 45.44 209.313 44.736 209.313 43.328V2.752C209.313 1.344 210.017 0.639999 211.425 0.639999H229.729C230.71 0.639999 231.201 1.408 231.201 2.944V4.224C231.201 5.76 230.71 6.528 229.729 6.528H216.289V19.584H228.321C229.259 19.584 229.729 20.352 229.729 21.888V23.168C229.729 24.704 229.259 25.472 228.321 25.472H216.289V39.552H229.729C230.71 39.552 231.201 40.32 231.201 41.856V43.136C231.201 44.672 230.71 45.44 229.729 45.44H211.425ZM260.225 45.44C258.817 45.44 258.113 44.736 258.113 43.328V2.752C258.113 1.344 258.817 0.639999 260.225 0.639999H278.529C279.51 0.639999 280.001 1.408 280.001 2.944V4.224C280.001 5.76 279.51 6.528 278.529 6.528H265.089V19.584H277.121C278.059 19.584 278.529 20.352 278.529 21.888V23.168C278.529 24.704 278.059 25.472 277.121 25.472H265.089V39.552H278.529C279.51 39.552 280.001 40.32 280.001 41.856V43.136C280.001 44.672 279.51 45.44 278.529 45.44H260.225ZM294.707 45.568C293.64 45.568 292.872 45.44 292.403 45.184C291.976 44.8853 291.763 44.48 291.763 43.968V2.112C291.763 1.04533 292.744 0.512001 294.707 0.512001H296.243C297.181 0.512001 297.885 0.618668 298.355 0.832001C298.867 1.04533 299.272 1.42933 299.571 1.984L311.923 27.712C312.179 28.2667 312.435 28.9493 312.691 29.76C312.989 30.528 313.245 31.2533 313.459 31.936L313.715 31.872C313.672 31.36 313.608 30.6987 313.523 29.888C313.48 29.0773 313.459 28.288 313.459 27.52V2.112C313.459 1.6 313.672 1.216 314.099 0.959999C314.568 0.661334 315.336 0.512001 316.403 0.512001H317.235C318.301 0.512001 319.048 0.661334 319.475 0.959999C319.944 1.216 320.179 1.6 320.179 2.112V43.968C320.179 45.0347 319.197 45.568 317.235 45.568H315.507C314.611 45.568 313.928 45.4827 313.459 45.312C313.032 45.0987 312.669 44.7147 312.371 44.16L299.955 18.24C299.741 17.728 299.485 17.088 299.187 16.32C298.931 15.552 298.696 14.8053 298.483 14.08L298.227 14.144C298.269 14.784 298.312 15.488 298.355 16.256C298.44 17.024 298.483 17.7707 298.483 18.496V43.968C298.483 44.48 298.248 44.8853 297.779 45.184C297.352 45.44 296.605 45.568 295.539 45.568H294.707ZM344.681 45.568C342.761 45.568 341.801 45.0347 341.801 43.968V6.528H333.225C332.286 6.528 331.817 5.76 331.817 4.224V2.944C331.817 1.408 332.286 0.639999 333.225 0.639999H357.353C358.291 0.639999 358.761 1.408 358.761 2.944V4.224C358.761 5.76 358.291 6.528 357.353 6.528H348.777V43.968C348.777 45.0347 347.838 45.568 345.961 45.568H344.681ZM373.382 45.568C372.315 45.568 371.547 45.44 371.078 45.184C370.651 44.8853 370.438 44.48 370.438 43.968V2.752C370.438 1.344 371.142 0.639999 372.55 0.639999H382.278C390.726 0.639999 394.95 5.03467 394.95 13.824C394.95 16.4693 394.395 18.7093 393.286 20.544C392.219 22.3787 390.64 23.5307 388.55 24V24.256C390.598 25.1947 392.091 27.136 393.03 30.08L396.998 42.752C397.126 43.0933 397.211 43.4133 397.254 43.712C397.339 44.0107 397.382 44.2453 397.382 44.416C397.382 44.8853 397.147 45.2053 396.678 45.376C396.251 45.504 395.526 45.568 394.502 45.568H393.222C391.558 45.568 390.598 45.0987 390.342 44.16L386.694 32C386.054 29.8667 385.307 28.4373 384.454 27.712C383.6 26.9867 382.342 26.624 380.678 26.624H377.414V43.968C377.414 44.48 377.179 44.8853 376.71 45.184C376.24 45.44 375.472 45.568 374.406 45.568H373.382ZM377.414 20.736H382.406C384.411 20.736 385.84 20.2027 386.694 19.136C387.59 18.0267 388.038 16.256 388.038 13.824C388.038 11.264 387.59 9.408 386.694 8.256C385.84 7.104 384.411 6.528 382.406 6.528H377.414V20.736ZM411.846 45.568C410.779 45.568 410.011 45.44 409.542 45.184C409.072 44.8853 408.838 44.48 408.838 43.968V2.112C408.838 1.6 409.072 1.216 409.542 0.959999C410.011 0.661334 410.779 0.512001 411.846 0.512001H412.87C413.936 0.512001 414.683 0.661334 415.11 0.959999C415.579 1.216 415.814 1.6 415.814 2.112V43.968C415.814 44.48 415.579 44.8853 415.11 45.184C414.683 45.44 413.936 45.568 412.87 45.568H411.846ZM433.662 45.44C432.254 45.44 431.55 44.736 431.55 43.328V2.752C431.55 1.344 432.254 0.639999 433.662 0.639999H451.966C452.948 0.639999 453.438 1.408 453.438 2.944V4.224C453.438 5.76 452.948 6.528 451.966 6.528H438.526V19.584H450.558C451.497 19.584 451.966 20.352 451.966 21.888V23.168C451.966 24.704 451.497 25.472 450.558 25.472H438.526V39.552H451.966C452.948 39.552 453.438 40.32 453.438 41.856V43.136C453.438 44.672 452.948 45.44 451.966 45.44H433.662ZM472.688 45.824C470.896 45.824 469.19 45.632 467.568 45.248C465.947 44.8213 464.475 44.1813 463.152 43.328C462.171 42.7733 461.68 42.0907 461.68 41.28C461.68 40.9387 461.744 40.448 461.872 39.808C462.043 39.1253 462.278 38.528 462.576 38.016C462.875 37.4613 463.216 37.184 463.6 37.184C463.984 37.184 464.582 37.4187 465.392 37.888C466.203 38.3147 467.227 38.7627 468.464 39.232C469.702 39.6587 471.152 39.872 472.816 39.872C474.694 39.872 476.272 39.3387 477.552 38.272C478.832 37.2053 479.472 35.584 479.472 33.408C479.472 31.9147 479.131 30.6987 478.448 29.76C477.766 28.7787 476.848 27.968 475.696 27.328C474.587 26.6453 473.392 25.9627 472.112 25.28C470.448 24.4693 468.891 23.552 467.44 22.528C465.99 21.504 464.816 20.224 463.92 18.688C463.024 17.1093 462.576 15.0827 462.576 12.608C462.576 10.0053 463.152 7.76534 464.304 5.888C465.456 3.968 467.035 2.51733 469.04 1.536C471.046 0.512 473.328 0 475.888 0C477.254 0 478.619 0.170667 479.984 0.512001C481.392 0.853335 482.63 1.32267 483.696 1.92C484.038 2.13334 484.294 2.34667 484.464 2.56C484.635 2.77333 484.72 3.072 484.72 3.456C484.72 3.79734 484.656 4.288 484.528 4.928C484.4 5.568 484.208 6.16533 483.952 6.72C483.739 7.232 483.462 7.488 483.12 7.488C482.651 7.488 481.798 7.232 480.56 6.72C479.323 6.16533 477.766 5.888 475.888 5.888C473.926 5.888 472.326 6.44267 471.088 7.552C469.851 8.61867 469.232 10.112 469.232 12.032C469.232 13.5253 469.595 14.7413 470.32 15.68C471.046 16.6187 471.984 17.4293 473.136 18.112C474.288 18.752 475.526 19.392 476.848 20.032C478.47 20.928 479.984 21.888 481.392 22.912C482.843 23.936 483.995 25.2373 484.848 26.816C485.744 28.3947 486.192 30.4213 486.192 32.896C486.192 36.8213 484.955 39.9573 482.48 42.304C480.048 44.6507 476.784 45.824 472.688 45.824Z"/></clipPath><linearGradient id="paint0_diamond_22_107" x1="0" y1="0" x2="500" y2="500" gradientUnits="userSpaceOnUse">
<stop stop-color="#572D91"/>
<stop offset="1" stop-color="#E9D0FF"/>
</linearGradient>
</defs>
</svg>
