<svg viewBox="0 0 247 37" fill="none" xmlns="http://www.w3.org/2000/svg">
<g clip-path="url(#paint0_diamond_52_10_clip_path)" data-figma-skip-parse="true"><g transform="matrix(0.401063 0.0005 -0.000116557 0.0600783 123.5 18.5)"><rect x="0" y="0" width="310.519" height="327.159" fill="url(#paint0_diamond_52_10)" opacity="1" shape-rendering="crispEdges"/><rect x="0" y="0" width="310.519" height="327.159" transform="scale(1 -1)" fill="url(#paint0_diamond_52_10)" opacity="1" shape-rendering="crispEdges"/><rect x="0" y="0" width="310.519" height="327.159" transform="scale(-1 1)" fill="url(#paint0_diamond_52_10)" opacity="1" shape-rendering="crispEdges"/><rect x="0" y="0" width="310.519" height="327.159" transform="scale(-1)" fill="url(#paint0_diamond_52_10)" opacity="1" shape-rendering="crispEdges"/></g></g><path d="M4.28925 30.064C3.75591 30.064 3.37191 30 3.13725 29.872C2.92391 29.7227 2.81725 29.52 2.81725 29.264V8.336C2.81725 8.08 2.92391 7.888 3.13725 7.76C3.37191 7.61067 3.75591 7.536 4.28925 7.536H5.08925C5.64391 7.536 6.05991 7.58933 6.33725 7.696C6.61458 7.80267 6.79591 7.97333 6.88125 8.208L10.6252 17.424C10.7532 17.7227 10.8599 18.0213 10.9452 18.32C11.0519 18.5973 11.1372 18.864 11.2012 19.12C11.2439 18.864 11.3186 18.5973 11.4252 18.32C11.5319 18.0213 11.6386 17.7227 11.7452 17.424L15.5212 8.208C15.6066 7.97333 15.7879 7.80267 16.0652 7.696C16.3426 7.58933 16.7586 7.536 17.3132 7.536H18.1132C18.6466 7.536 19.0199 7.61067 19.2332 7.76C19.4679 7.888 19.5852 8.08 19.5852 8.336V29.264C19.5852 29.52 19.4679 29.7227 19.2332 29.872C19.0199 30 18.6466 30.064 18.1132 30.064H17.6972C17.1639 30.064 16.7799 30 16.5452 29.872C16.3319 29.7227 16.2252 29.52 16.2252 29.264V16.56C16.2252 15.8773 16.2786 15.1733 16.3852 14.448L16.2572 14.384C16.1292 14.7253 16.0012 15.056 15.8732 15.376C15.7452 15.696 15.6066 16.0373 15.4572 16.4L13.1212 22.16C12.9932 22.4587 12.7906 22.6507 12.5132 22.736C12.2359 22.8213 11.8732 22.864 11.4252 22.864H10.9452C10.4972 22.864 10.1346 22.8213 9.85725 22.736C9.57991 22.6507 9.38791 22.4587 9.28125 22.16L6.94525 16.4C6.79591 16.0587 6.65725 15.728 6.52925 15.408C6.42258 15.0667 6.30525 14.7253 6.17725 14.384L6.04925 14.448C6.13458 15.1947 6.17725 15.8987 6.17725 16.56V29.264C6.17725 29.52 6.05991 29.7227 5.82525 29.872C5.61191 30 5.23858 30.064 4.70525 30.064H4.28925ZM26.3987 30.064C25.5881 30.064 25.1827 29.8613 25.1827 29.456C25.1827 29.3493 25.2041 29.168 25.2467 28.912L30.7507 8.304C30.9001 7.792 31.4014 7.536 32.2547 7.536H33.6627C34.5161 7.536 35.0174 7.792 35.1667 8.304L40.6387 28.912C40.6601 29.0613 40.6814 29.1787 40.7027 29.264C40.7241 29.328 40.7347 29.392 40.7347 29.456C40.7347 29.8613 40.3294 30.064 39.5187 30.064H38.6227C38.2814 30.064 37.9827 30.0213 37.7267 29.936C37.4921 29.8507 37.3534 29.6907 37.3107 29.456L36.1267 24.592H29.7907L28.5747 29.456C28.5321 29.6907 28.3827 29.8507 28.1267 29.936C27.8921 30.0213 27.6041 30.064 27.2627 30.064H26.3987ZM32.4787 13.584L30.4627 21.776H35.4227L33.4067 13.584C33.3214 13.264 33.2467 12.9227 33.1827 12.56C33.1401 12.1973 33.0867 11.8453 33.0227 11.504H32.8627C32.8201 11.8453 32.7667 12.1973 32.7027 12.56C32.6387 12.9227 32.5641 13.264 32.4787 13.584ZM47.8142 30.064C47.2809 30.064 46.8969 30 46.6622 29.872C46.4489 29.7227 46.3422 29.52 46.3422 29.264V8.336C46.3422 7.80267 46.8329 7.536 47.8142 7.536H48.5822C49.0516 7.536 49.4036 7.58933 49.6382 7.696C49.8942 7.80267 50.0969 7.99467 50.2462 8.272L56.4222 21.136C56.5502 21.4133 56.6782 21.7547 56.8062 22.16C56.9556 22.544 57.0836 22.9067 57.1902 23.248L57.3182 23.216C57.2969 22.96 57.2649 22.6293 57.2222 22.224C57.2009 21.8187 57.1902 21.424 57.1902 21.04V8.336C57.1902 8.08 57.2969 7.888 57.5102 7.76C57.7449 7.61067 58.1289 7.536 58.6622 7.536H59.0782C59.6116 7.536 59.9849 7.61067 60.1982 7.76C60.4329 7.888 60.5502 8.08 60.5502 8.336V29.264C60.5502 29.7973 60.0596 30.064 59.0782 30.064H58.2142C57.7662 30.064 57.4249 30.0213 57.1902 29.936C56.9769 29.8293 56.7956 29.6373 56.6462 29.36L50.4382 16.4C50.3316 16.144 50.2036 15.824 50.0542 15.44C49.9262 15.056 49.8089 14.6827 49.7022 14.32L49.5742 14.352C49.5956 14.672 49.6169 15.024 49.6382 15.408C49.6809 15.792 49.7022 16.1653 49.7022 16.528V29.264C49.7022 29.52 49.5849 29.7227 49.3502 29.872C49.1369 30 48.7636 30.064 48.2302 30.064H47.8142ZM67.3612 30.064C66.5506 30.064 66.1452 29.8613 66.1452 29.456C66.1452 29.3493 66.1666 29.168 66.2092 28.912L71.7132 8.304C71.8626 7.792 72.3639 7.536 73.2172 7.536H74.6252C75.4786 7.536 75.9799 7.792 76.1292 8.304L81.6012 28.912C81.6226 29.0613 81.6439 29.1787 81.6652 29.264C81.6866 29.328 81.6972 29.392 81.6972 29.456C81.6972 29.8613 81.2919 30.064 80.4812 30.064H79.5852C79.2439 30.064 78.9452 30.0213 78.6892 29.936C78.4546 29.8507 78.3159 29.6907 78.2732 29.456L77.0892 24.592H70.7532L69.5372 29.456C69.4946 29.6907 69.3452 29.8507 69.0892 29.936C68.8546 30.0213 68.5666 30.064 68.2252 30.064H67.3612ZM73.4412 13.584L71.4252 21.776H76.3852L74.3692 13.584C74.2839 13.264 74.2092 12.9227 74.1452 12.56C74.1026 12.1973 74.0492 11.8453 73.9852 11.504H73.8252C73.7826 11.8453 73.7292 12.1973 73.6652 12.56C73.6012 12.9227 73.5266 13.264 73.4412 13.584ZM94.5048 30.224C91.7528 30.224 89.6941 29.296 88.3288 27.44C86.9634 25.5627 86.2808 22.6613 86.2808 18.736C86.2808 14.896 86.9954 12.048 88.4248 10.192C89.8754 8.31467 92.0941 7.376 95.0808 7.376C95.7634 7.376 96.4141 7.42933 97.0328 7.536C97.6728 7.64267 98.1848 7.77067 98.5688 7.92C99.0168 8.09067 99.2408 8.37867 99.2408 8.784C99.2408 9.18933 99.1554 9.616 98.9848 10.064C98.8354 10.512 98.6221 10.736 98.3448 10.736C98.0674 10.736 97.6834 10.672 97.1928 10.544C96.7021 10.416 96.0194 10.352 95.1448 10.352C93.2674 10.352 91.9021 11.0133 91.0488 12.336C90.2168 13.6587 89.8008 15.792 89.8008 18.736C89.8008 21.7867 90.1954 23.9733 90.9848 25.296C91.7741 26.6187 93.0541 27.28 94.8248 27.28C95.2088 27.28 95.5821 27.248 95.9448 27.184C96.3288 27.12 96.6808 27.0453 97.0008 26.96V20.496H94.3128C93.8221 20.496 93.5768 20.112 93.5768 19.344V18.704C93.5768 17.936 93.8221 17.552 94.3128 17.552H99.3048C100.009 17.552 100.361 17.904 100.361 18.608V27.728C100.361 27.984 100.297 28.208 100.169 28.4C100.062 28.5707 99.8701 28.752 99.5928 28.944C98.9954 29.328 98.2274 29.6373 97.2888 29.872C96.3714 30.1067 95.4434 30.224 94.5048 30.224ZM108.529 30C107.825 30 107.473 29.648 107.473 28.944V8.656C107.473 7.952 107.825 7.6 108.529 7.6H117.681C118.172 7.6 118.417 7.984 118.417 8.752V9.392C118.417 10.16 118.172 10.544 117.681 10.544H110.961V17.072H116.977C117.447 17.072 117.681 17.456 117.681 18.224V18.864C117.681 19.632 117.447 20.016 116.977 20.016H110.961V27.056H117.681C118.172 27.056 118.417 27.44 118.417 28.208V28.848C118.417 29.616 118.172 30 117.681 30H108.529ZM132.929 30C132.225 30 131.873 29.648 131.873 28.944V8.656C131.873 7.952 132.225 7.6 132.929 7.6H142.081C142.572 7.6 142.817 7.984 142.817 8.752V9.392C142.817 10.16 142.572 10.544 142.081 10.544H135.361V17.072H141.377C141.847 17.072 142.081 17.456 142.081 18.224V18.864C142.081 19.632 141.847 20.016 141.377 20.016H135.361V27.056H142.081C142.572 27.056 142.817 27.44 142.817 28.208V28.848C142.817 29.616 142.572 30 142.081 30H132.929ZM150.171 30.064C149.637 30.064 149.253 30 149.019 29.872C148.805 29.7227 148.699 29.52 148.699 29.264V8.336C148.699 7.80267 149.189 7.536 150.171 7.536H150.939C151.408 7.536 151.76 7.58933 151.995 7.696C152.251 7.80267 152.453 7.99467 152.603 8.272L158.779 21.136C158.907 21.4133 159.035 21.7547 159.163 22.16C159.312 22.544 159.44 22.9067 159.547 23.248L159.675 23.216C159.653 22.96 159.621 22.6293 159.579 22.224C159.557 21.8187 159.547 21.424 159.547 21.04V8.336C159.547 8.08 159.653 7.888 159.867 7.76C160.101 7.61067 160.485 7.536 161.019 7.536H161.435C161.968 7.536 162.341 7.61067 162.555 7.76C162.789 7.888 162.907 8.08 162.907 8.336V29.264C162.907 29.7973 162.416 30.064 161.435 30.064H160.571C160.123 30.064 159.781 30.0213 159.547 29.936C159.333 29.8293 159.152 29.6373 159.003 29.36L152.795 16.4C152.688 16.144 152.56 15.824 152.411 15.44C152.283 15.056 152.165 14.6827 152.059 14.32L151.931 14.352C151.952 14.672 151.973 15.024 151.995 15.408C152.037 15.792 152.059 16.1653 152.059 16.528V29.264C152.059 29.52 151.941 29.7227 151.707 29.872C151.493 30 151.12 30.064 150.587 30.064H150.171ZM175.158 30.064C174.198 30.064 173.718 29.7973 173.718 29.264V10.544H169.43C168.96 10.544 168.726 10.16 168.726 9.392V8.752C168.726 7.984 168.96 7.6 169.43 7.6H181.494C181.963 7.6 182.198 7.984 182.198 8.752V9.392C182.198 10.16 181.963 10.544 181.494 10.544H177.206V29.264C177.206 29.7973 176.736 30.064 175.798 30.064H175.158ZM189.508 30.064C188.975 30.064 188.591 30 188.356 29.872C188.143 29.7227 188.036 29.52 188.036 29.264V8.656C188.036 7.952 188.388 7.6 189.092 7.6H193.956C198.18 7.6 200.292 9.79733 200.292 14.192C200.292 15.5147 200.015 16.6347 199.46 17.552C198.927 18.4693 198.137 19.0453 197.092 19.28V19.408C198.116 19.8773 198.863 20.848 199.332 22.32L201.316 28.656C201.38 28.8267 201.423 28.9867 201.444 29.136C201.487 29.2853 201.508 29.4027 201.508 29.488C201.508 29.7227 201.391 29.8827 201.156 29.968C200.943 30.032 200.58 30.064 200.068 30.064H199.428C198.596 30.064 198.116 29.8293 197.988 29.36L196.164 23.28C195.844 22.2133 195.471 21.4987 195.044 21.136C194.617 20.7733 193.988 20.592 193.156 20.592H191.524V29.264C191.524 29.52 191.407 29.7227 191.172 29.872C190.937 30 190.553 30.064 190.02 30.064H189.508ZM191.524 17.648H194.02C195.023 17.648 195.737 17.3813 196.164 16.848C196.612 16.2933 196.836 15.408 196.836 14.192C196.836 12.912 196.612 11.984 196.164 11.408C195.737 10.832 195.023 10.544 194.02 10.544H191.524V17.648ZM208.74 30.064C208.207 30.064 207.823 30 207.588 29.872C207.353 29.7227 207.236 29.52 207.236 29.264V8.336C207.236 8.08 207.353 7.888 207.588 7.76C207.823 7.61067 208.207 7.536 208.74 7.536H209.252C209.785 7.536 210.159 7.61067 210.372 7.76C210.607 7.888 210.724 8.08 210.724 8.336V29.264C210.724 29.52 210.607 29.7227 210.372 29.872C210.159 30 209.785 30.064 209.252 30.064H208.74ZM219.648 30C218.944 30 218.592 29.648 218.592 28.944V8.656C218.592 7.952 218.944 7.6 219.648 7.6H228.8C229.291 7.6 229.536 7.984 229.536 8.752V9.392C229.536 10.16 229.291 10.544 228.8 10.544H222.08V17.072H228.096C228.566 17.072 228.8 17.456 228.8 18.224V18.864C228.8 19.632 228.566 20.016 228.096 20.016H222.08V27.056H228.8C229.291 27.056 229.536 27.44 229.536 28.208V28.848C229.536 29.616 229.291 30 228.8 30H219.648ZM239.161 30.192C238.265 30.192 237.412 30.096 236.601 29.904C235.791 29.6907 235.055 29.3707 234.393 28.944C233.903 28.6667 233.657 28.3253 233.657 27.92C233.657 27.7493 233.689 27.504 233.753 27.184C233.839 26.8427 233.956 26.544 234.105 26.288C234.255 26.0107 234.425 25.872 234.617 25.872C234.809 25.872 235.108 25.9893 235.513 26.224C235.919 26.4373 236.431 26.6613 237.049 26.896C237.668 27.1093 238.393 27.216 239.225 27.216C240.164 27.216 240.953 26.9493 241.593 26.416C242.233 25.8827 242.553 25.072 242.553 23.984C242.553 23.2373 242.383 22.6293 242.041 22.16C241.7 21.6693 241.241 21.264 240.665 20.944C240.111 20.6027 239.513 20.2613 238.873 19.92C238.041 19.5147 237.263 19.056 236.537 18.544C235.812 18.032 235.225 17.392 234.777 16.624C234.329 15.8347 234.105 14.8213 234.105 13.584C234.105 12.2827 234.393 11.1627 234.969 10.224C235.545 9.264 236.335 8.53867 237.337 8.048C238.34 7.536 239.481 7.28 240.761 7.28C241.444 7.28 242.127 7.36533 242.809 7.536C243.513 7.70667 244.132 7.94133 244.665 8.24C244.836 8.34667 244.964 8.45333 245.049 8.56C245.135 8.66667 245.177 8.816 245.177 9.008C245.177 9.17867 245.145 9.424 245.081 9.744C245.017 10.064 244.921 10.3627 244.793 10.64C244.687 10.896 244.548 11.024 244.377 11.024C244.143 11.024 243.716 10.896 243.097 10.64C242.479 10.3627 241.7 10.224 240.761 10.224C239.78 10.224 238.98 10.5013 238.361 11.056C237.743 11.5893 237.433 12.336 237.433 13.296C237.433 14.0427 237.615 14.6507 237.977 15.12C238.34 15.5893 238.809 15.9947 239.385 16.336C239.961 16.656 240.58 16.976 241.241 17.296C242.052 17.744 242.809 18.224 243.513 18.736C244.239 19.248 244.815 19.8987 245.241 20.688C245.689 21.4773 245.913 22.4907 245.913 23.728C245.913 25.6907 245.295 27.2587 244.057 28.432C242.841 29.6053 241.209 30.192 239.161 30.192Z" data-figma-gradient-fill="{&#34;type&#34;:&#34;GRADIENT_DIAMOND&#34;,&#34;stops&#34;:[{&#34;color&#34;:{&#34;r&#34;:0.34143927693367004,&#34;g&#34;:0.17814230918884277,&#34;b&#34;:0.57005488872528076,&#34;a&#34;:1.0},&#34;position&#34;:0.0},{&#34;color&#34;:{&#34;r&#34;:0.95192295312881470,&#34;g&#34;:0.50538194179534912,&#34;b&#34;:0.53515130281448364,&#34;a&#34;:1.0},&#34;position&#34;:1.0}],&#34;stopsVar&#34;:[{&#34;color&#34;:{&#34;r&#34;:0.34143927693367004,&#34;g&#34;:0.17814230918884277,&#34;b&#34;:0.57005488872528076,&#34;a&#34;:1.0},&#34;position&#34;:0.0},{&#34;color&#34;:{&#34;r&#34;:0.95192295312881470,&#34;g&#34;:0.50538194179534912,&#34;b&#34;:0.53515130281448364,&#34;a&#34;:1.0},&#34;position&#34;:1.0}],&#34;transform&#34;:{&#34;m00&#34;:802.12628173828125,&#34;m01&#34;:-0.23311333358287811,&#34;m02&#34;:-277.44656372070312,&#34;m10&#34;:1.0000007152557373,&#34;m11&#34;:120.15656280517578,&#34;m12&#34;:-42.078285217285156},&#34;opacity&#34;:1.0,&#34;blendMode&#34;:&#34;NORMAL&#34;,&#34;visible&#34;:true}"/>
<defs>
<clipPath id="paint0_diamond_52_10_clip_path"><path d="M4.28925 30.064C3.75591 30.064 3.37191 30 3.13725 29.872C2.92391 29.7227 2.81725 29.52 2.81725 29.264V8.336C2.81725 8.08 2.92391 7.888 3.13725 7.76C3.37191 7.61067 3.75591 7.536 4.28925 7.536H5.08925C5.64391 7.536 6.05991 7.58933 6.33725 7.696C6.61458 7.80267 6.79591 7.97333 6.88125 8.208L10.6252 17.424C10.7532 17.7227 10.8599 18.0213 10.9452 18.32C11.0519 18.5973 11.1372 18.864 11.2012 19.12C11.2439 18.864 11.3186 18.5973 11.4252 18.32C11.5319 18.0213 11.6386 17.7227 11.7452 17.424L15.5212 8.208C15.6066 7.97333 15.7879 7.80267 16.0652 7.696C16.3426 7.58933 16.7586 7.536 17.3132 7.536H18.1132C18.6466 7.536 19.0199 7.61067 19.2332 7.76C19.4679 7.888 19.5852 8.08 19.5852 8.336V29.264C19.5852 29.52 19.4679 29.7227 19.2332 29.872C19.0199 30 18.6466 30.064 18.1132 30.064H17.6972C17.1639 30.064 16.7799 30 16.5452 29.872C16.3319 29.7227 16.2252 29.52 16.2252 29.264V16.56C16.2252 15.8773 16.2786 15.1733 16.3852 14.448L16.2572 14.384C16.1292 14.7253 16.0012 15.056 15.8732 15.376C15.7452 15.696 15.6066 16.0373 15.4572 16.4L13.1212 22.16C12.9932 22.4587 12.7906 22.6507 12.5132 22.736C12.2359 22.8213 11.8732 22.864 11.4252 22.864H10.9452C10.4972 22.864 10.1346 22.8213 9.85725 22.736C9.57991 22.6507 9.38791 22.4587 9.28125 22.16L6.94525 16.4C6.79591 16.0587 6.65725 15.728 6.52925 15.408C6.42258 15.0667 6.30525 14.7253 6.17725 14.384L6.04925 14.448C6.13458 15.1947 6.17725 15.8987 6.17725 16.56V29.264C6.17725 29.52 6.05991 29.7227 5.82525 29.872C5.61191 30 5.23858 30.064 4.70525 30.064H4.28925ZM26.3987 30.064C25.5881 30.064 25.1827 29.8613 25.1827 29.456C25.1827 29.3493 25.2041 29.168 25.2467 28.912L30.7507 8.304C30.9001 7.792 31.4014 7.536 32.2547 7.536H33.6627C34.5161 7.536 35.0174 7.792 35.1667 8.304L40.6387 28.912C40.6601 29.0613 40.6814 29.1787 40.7027 29.264C40.7241 29.328 40.7347 29.392 40.7347 29.456C40.7347 29.8613 40.3294 30.064 39.5187 30.064H38.6227C38.2814 30.064 37.9827 30.0213 37.7267 29.936C37.4921 29.8507 37.3534 29.6907 37.3107 29.456L36.1267 24.592H29.7907L28.5747 29.456C28.5321 29.6907 28.3827 29.8507 28.1267 29.936C27.8921 30.0213 27.6041 30.064 27.2627 30.064H26.3987ZM32.4787 13.584L30.4627 21.776H35.4227L33.4067 13.584C33.3214 13.264 33.2467 12.9227 33.1827 12.56C33.1401 12.1973 33.0867 11.8453 33.0227 11.504H32.8627C32.8201 11.8453 32.7667 12.1973 32.7027 12.56C32.6387 12.9227 32.5641 13.264 32.4787 13.584ZM47.8142 30.064C47.2809 30.064 46.8969 30 46.6622 29.872C46.4489 29.7227 46.3422 29.52 46.3422 29.264V8.336C46.3422 7.80267 46.8329 7.536 47.8142 7.536H48.5822C49.0516 7.536 49.4036 7.58933 49.6382 7.696C49.8942 7.80267 50.0969 7.99467 50.2462 8.272L56.4222 21.136C56.5502 21.4133 56.6782 21.7547 56.8062 22.16C56.9556 22.544 57.0836 22.9067 57.1902 23.248L57.3182 23.216C57.2969 22.96 57.2649 22.6293 57.2222 22.224C57.2009 21.8187 57.1902 21.424 57.1902 21.04V8.336C57.1902 8.08 57.2969 7.888 57.5102 7.76C57.7449 7.61067 58.1289 7.536 58.6622 7.536H59.0782C59.6116 7.536 59.9849 7.61067 60.1982 7.76C60.4329 7.888 60.5502 8.08 60.5502 8.336V29.264C60.5502 29.7973 60.0596 30.064 59.0782 30.064H58.2142C57.7662 30.064 57.4249 30.0213 57.1902 29.936C56.9769 29.8293 56.7956 29.6373 56.6462 29.36L50.4382 16.4C50.3316 16.144 50.2036 15.824 50.0542 15.44C49.9262 15.056 49.8089 14.6827 49.7022 14.32L49.5742 14.352C49.5956 14.672 49.6169 15.024 49.6382 15.408C49.6809 15.792 49.7022 16.1653 49.7022 16.528V29.264C49.7022 29.52 49.5849 29.7227 49.3502 29.872C49.1369 30 48.7636 30.064 48.2302 30.064H47.8142ZM67.3612 30.064C66.5506 30.064 66.1452 29.8613 66.1452 29.456C66.1452 29.3493 66.1666 29.168 66.2092 28.912L71.7132 8.304C71.8626 7.792 72.3639 7.536 73.2172 7.536H74.6252C75.4786 7.536 75.9799 7.792 76.1292 8.304L81.6012 28.912C81.6226 29.0613 81.6439 29.1787 81.6652 29.264C81.6866 29.328 81.6972 29.392 81.6972 29.456C81.6972 29.8613 81.2919 30.064 80.4812 30.064H79.5852C79.2439 30.064 78.9452 30.0213 78.6892 29.936C78.4546 29.8507 78.3159 29.6907 78.2732 29.456L77.0892 24.592H70.7532L69.5372 29.456C69.4946 29.6907 69.3452 29.8507 69.0892 29.936C68.8546 30.0213 68.5666 30.064 68.2252 30.064H67.3612ZM73.4412 13.584L71.4252 21.776H76.3852L74.3692 13.584C74.2839 13.264 74.2092 12.9227 74.1452 12.56C74.1026 12.1973 74.0492 11.8453 73.9852 11.504H73.8252C73.7826 11.8453 73.7292 12.1973 73.6652 12.56C73.6012 12.9227 73.5266 13.264 73.4412 13.584ZM94.5048 30.224C91.7528 30.224 89.6941 29.296 88.3288 27.44C86.9634 25.5627 86.2808 22.6613 86.2808 18.736C86.2808 14.896 86.9954 12.048 88.4248 10.192C89.8754 8.31467 92.0941 7.376 95.0808 7.376C95.7634 7.376 96.4141 7.42933 97.0328 7.536C97.6728 7.64267 98.1848 7.77067 98.5688 7.92C99.0168 8.09067 99.2408 8.37867 99.2408 8.784C99.2408 9.18933 99.1554 9.616 98.9848 10.064C98.8354 10.512 98.6221 10.736 98.3448 10.736C98.0674 10.736 97.6834 10.672 97.1928 10.544C96.7021 10.416 96.0194 10.352 95.1448 10.352C93.2674 10.352 91.9021 11.0133 91.0488 12.336C90.2168 13.6587 89.8008 15.792 89.8008 18.736C89.8008 21.7867 90.1954 23.9733 90.9848 25.296C91.7741 26.6187 93.0541 27.28 94.8248 27.28C95.2088 27.28 95.5821 27.248 95.9448 27.184C96.3288 27.12 96.6808 27.0453 97.0008 26.96V20.496H94.3128C93.8221 20.496 93.5768 20.112 93.5768 19.344V18.704C93.5768 17.936 93.8221 17.552 94.3128 17.552H99.3048C100.009 17.552 100.361 17.904 100.361 18.608V27.728C100.361 27.984 100.297 28.208 100.169 28.4C100.062 28.5707 99.8701 28.752 99.5928 28.944C98.9954 29.328 98.2274 29.6373 97.2888 29.872C96.3714 30.1067 95.4434 30.224 94.5048 30.224ZM108.529 30C107.825 30 107.473 29.648 107.473 28.944V8.656C107.473 7.952 107.825 7.6 108.529 7.6H117.681C118.172 7.6 118.417 7.984 118.417 8.752V9.392C118.417 10.16 118.172 10.544 117.681 10.544H110.961V17.072H116.977C117.447 17.072 117.681 17.456 117.681 18.224V18.864C117.681 19.632 117.447 20.016 116.977 20.016H110.961V27.056H117.681C118.172 27.056 118.417 27.44 118.417 28.208V28.848C118.417 29.616 118.172 30 117.681 30H108.529ZM132.929 30C132.225 30 131.873 29.648 131.873 28.944V8.656C131.873 7.952 132.225 7.6 132.929 7.6H142.081C142.572 7.6 142.817 7.984 142.817 8.752V9.392C142.817 10.16 142.572 10.544 142.081 10.544H135.361V17.072H141.377C141.847 17.072 142.081 17.456 142.081 18.224V18.864C142.081 19.632 141.847 20.016 141.377 20.016H135.361V27.056H142.081C142.572 27.056 142.817 27.44 142.817 28.208V28.848C142.817 29.616 142.572 30 142.081 30H132.929ZM150.171 30.064C149.637 30.064 149.253 30 149.019 29.872C148.805 29.7227 148.699 29.52 148.699 29.264V8.336C148.699 7.80267 149.189 7.536 150.171 7.536H150.939C151.408 7.536 151.76 7.58933 151.995 7.696C152.251 7.80267 152.453 7.99467 152.603 8.272L158.779 21.136C158.907 21.4133 159.035 21.7547 159.163 22.16C159.312 22.544 159.44 22.9067 159.547 23.248L159.675 23.216C159.653 22.96 159.621 22.6293 159.579 22.224C159.557 21.8187 159.547 21.424 159.547 21.04V8.336C159.547 8.08 159.653 7.888 159.867 7.76C160.101 7.61067 160.485 7.536 161.019 7.536H161.435C161.968 7.536 162.341 7.61067 162.555 7.76C162.789 7.888 162.907 8.08 162.907 8.336V29.264C162.907 29.7973 162.416 30.064 161.435 30.064H160.571C160.123 30.064 159.781 30.0213 159.547 29.936C159.333 29.8293 159.152 29.6373 159.003 29.36L152.795 16.4C152.688 16.144 152.56 15.824 152.411 15.44C152.283 15.056 152.165 14.6827 152.059 14.32L151.931 14.352C151.952 14.672 151.973 15.024 151.995 15.408C152.037 15.792 152.059 16.1653 152.059 16.528V29.264C152.059 29.52 151.941 29.7227 151.707 29.872C151.493 30 151.12 30.064 150.587 30.064H150.171ZM175.158 30.064C174.198 30.064 173.718 29.7973 173.718 29.264V10.544H169.43C168.96 10.544 168.726 10.16 168.726 9.392V8.752C168.726 7.984 168.96 7.6 169.43 7.6H181.494C181.963 7.6 182.198 7.984 182.198 8.752V9.392C182.198 10.16 181.963 10.544 181.494 10.544H177.206V29.264C177.206 29.7973 176.736 30.064 175.798 30.064H175.158ZM189.508 30.064C188.975 30.064 188.591 30 188.356 29.872C188.143 29.7227 188.036 29.52 188.036 29.264V8.656C188.036 7.952 188.388 7.6 189.092 7.6H193.956C198.18 7.6 200.292 9.79733 200.292 14.192C200.292 15.5147 200.015 16.6347 199.46 17.552C198.927 18.4693 198.137 19.0453 197.092 19.28V19.408C198.116 19.8773 198.863 20.848 199.332 22.32L201.316 28.656C201.38 28.8267 201.423 28.9867 201.444 29.136C201.487 29.2853 201.508 29.4027 201.508 29.488C201.508 29.7227 201.391 29.8827 201.156 29.968C200.943 30.032 200.58 30.064 200.068 30.064H199.428C198.596 30.064 198.116 29.8293 197.988 29.36L196.164 23.28C195.844 22.2133 195.471 21.4987 195.044 21.136C194.617 20.7733 193.988 20.592 193.156 20.592H191.524V29.264C191.524 29.52 191.407 29.7227 191.172 29.872C190.937 30 190.553 30.064 190.02 30.064H189.508ZM191.524 17.648H194.02C195.023 17.648 195.737 17.3813 196.164 16.848C196.612 16.2933 196.836 15.408 196.836 14.192C196.836 12.912 196.612 11.984 196.164 11.408C195.737 10.832 195.023 10.544 194.02 10.544H191.524V17.648ZM208.74 30.064C208.207 30.064 207.823 30 207.588 29.872C207.353 29.7227 207.236 29.52 207.236 29.264V8.336C207.236 8.08 207.353 7.888 207.588 7.76C207.823 7.61067 208.207 7.536 208.74 7.536H209.252C209.785 7.536 210.159 7.61067 210.372 7.76C210.607 7.888 210.724 8.08 210.724 8.336V29.264C210.724 29.52 210.607 29.7227 210.372 29.872C210.159 30 209.785 30.064 209.252 30.064H208.74ZM219.648 30C218.944 30 218.592 29.648 218.592 28.944V8.656C218.592 7.952 218.944 7.6 219.648 7.6H228.8C229.291 7.6 229.536 7.984 229.536 8.752V9.392C229.536 10.16 229.291 10.544 228.8 10.544H222.08V17.072H228.096C228.566 17.072 228.8 17.456 228.8 18.224V18.864C228.8 19.632 228.566 20.016 228.096 20.016H222.08V27.056H228.8C229.291 27.056 229.536 27.44 229.536 28.208V28.848C229.536 29.616 229.291 30 228.8 30H219.648ZM239.161 30.192C238.265 30.192 237.412 30.096 236.601 29.904C235.791 29.6907 235.055 29.3707 234.393 28.944C233.903 28.6667 233.657 28.3253 233.657 27.92C233.657 27.7493 233.689 27.504 233.753 27.184C233.839 26.8427 233.956 26.544 234.105 26.288C234.255 26.0107 234.425 25.872 234.617 25.872C234.809 25.872 235.108 25.9893 235.513 26.224C235.919 26.4373 236.431 26.6613 237.049 26.896C237.668 27.1093 238.393 27.216 239.225 27.216C240.164 27.216 240.953 26.9493 241.593 26.416C242.233 25.8827 242.553 25.072 242.553 23.984C242.553 23.2373 242.383 22.6293 242.041 22.16C241.7 21.6693 241.241 21.264 240.665 20.944C240.111 20.6027 239.513 20.2613 238.873 19.92C238.041 19.5147 237.263 19.056 236.537 18.544C235.812 18.032 235.225 17.392 234.777 16.624C234.329 15.8347 234.105 14.8213 234.105 13.584C234.105 12.2827 234.393 11.1627 234.969 10.224C235.545 9.264 236.335 8.53867 237.337 8.048C238.34 7.536 239.481 7.28 240.761 7.28C241.444 7.28 242.127 7.36533 242.809 7.536C243.513 7.70667 244.132 7.94133 244.665 8.24C244.836 8.34667 244.964 8.45333 245.049 8.56C245.135 8.66667 245.177 8.816 245.177 9.008C245.177 9.17867 245.145 9.424 245.081 9.744C245.017 10.064 244.921 10.3627 244.793 10.64C244.687 10.896 244.548 11.024 244.377 11.024C244.143 11.024 243.716 10.896 243.097 10.64C242.479 10.3627 241.7 10.224 240.761 10.224C239.78 10.224 238.98 10.5013 238.361 11.056C237.743 11.5893 237.433 12.336 237.433 13.296C237.433 14.0427 237.615 14.6507 237.977 15.12C238.34 15.5893 238.809 15.9947 239.385 16.336C239.961 16.656 240.58 16.976 241.241 17.296C242.052 17.744 242.809 18.224 243.513 18.736C244.239 19.248 244.815 19.8987 245.241 20.688C245.689 21.4773 245.913 22.4907 245.913 23.728C245.913 25.6907 245.295 27.2587 244.057 28.432C242.841 29.6053 241.209 30.192 239.161 30.192Z"/></clipPath><linearGradient id="paint0_diamond_52_10" x1="0" y1="0" x2="500" y2="500" gradientUnits="userSpaceOnUse">
<stop stop-color="#572D91"/>
<stop offset="1" stop-color="#F38188"/>
</linearGradient>
</defs>
</svg>
