<svg viewBox="0 0 206 37" fill="none" xmlns="http://www.w3.org/2000/svg">
<g clip-path="url(#paint0_diamond_52_4_clip_path)" data-figma-skip-parse="true"><g transform="matrix(0.33449 0.0005 -9.72092e-05 0.0600783 103 18.5)"><rect x="0" y="0" width="311.015" height="327.163" fill="url(#paint0_diamond_52_4)" opacity="1" shape-rendering="crispEdges"/><rect x="0" y="0" width="311.015" height="327.163" transform="scale(1 -1)" fill="url(#paint0_diamond_52_4)" opacity="1" shape-rendering="crispEdges"/><rect x="0" y="0" width="311.015" height="327.163" transform="scale(-1 1)" fill="url(#paint0_diamond_52_4)" opacity="1" shape-rendering="crispEdges"/><rect x="0" y="0" width="311.015" height="327.163" transform="scale(-1)" fill="url(#paint0_diamond_52_4)" opacity="1" shape-rendering="crispEdges"/></g></g><path d="M6.55813 30.192C5.66213 30.192 4.80879 30.096 3.99813 29.904C3.18746 29.6907 2.45146 29.3707 1.79013 28.944C1.29946 28.6667 1.05413 28.3253 1.05413 27.92C1.05413 27.7493 1.08613 27.504 1.15013 27.184C1.23546 26.8427 1.35279 26.544 1.50213 26.288C1.65146 26.0107 1.82213 25.872 2.01413 25.872C2.20613 25.872 2.50479 25.9893 2.91013 26.224C3.31546 26.4373 3.82746 26.6613 4.44613 26.896C5.06479 27.1093 5.79013 27.216 6.62213 27.216C7.56079 27.216 8.35013 26.9493 8.99013 26.416C9.63013 25.8827 9.95013 25.072 9.95013 23.984C9.95013 23.2373 9.77946 22.6293 9.43813 22.16C9.09679 21.6693 8.63813 21.264 8.06213 20.944C7.50746 20.6027 6.91013 20.2613 6.27013 19.92C5.43813 19.5147 4.65946 19.056 3.93413 18.544C3.20879 18.032 2.62213 17.392 2.17413 16.624C1.72613 15.8347 1.50213 14.8213 1.50213 13.584C1.50213 12.2827 1.79013 11.1627 2.36613 10.224C2.94213 9.264 3.73146 8.53867 4.73413 8.048C5.73679 7.536 6.87813 7.28 8.15813 7.28C8.84079 7.28 9.52346 7.36533 10.2061 7.536C10.9101 7.70667 11.5288 7.94133 12.0621 8.24C12.2328 8.34667 12.3608 8.45333 12.4461 8.56C12.5315 8.66667 12.5741 8.816 12.5741 9.008C12.5741 9.17867 12.5421 9.424 12.4781 9.744C12.4141 10.064 12.3181 10.3627 12.1901 10.64C12.0835 10.896 11.9448 11.024 11.7741 11.024C11.5395 11.024 11.1128 10.896 10.4941 10.64C9.87546 10.3627 9.09679 10.224 8.15813 10.224C7.17679 10.224 6.37679 10.5013 5.75813 11.056C5.13946 11.5893 4.83013 12.336 4.83013 13.296C4.83013 14.0427 5.01146 14.6507 5.37413 15.12C5.73679 15.5893 6.20613 15.9947 6.78213 16.336C7.35813 16.656 7.97679 16.976 8.63813 17.296C9.44879 17.744 10.2061 18.224 10.9101 18.736C11.6355 19.248 12.2115 19.8987 12.6381 20.688C13.0861 21.4773 13.3101 22.4907 13.3101 23.728C13.3101 25.6907 12.6915 27.2587 11.4541 28.432C10.2381 29.6053 8.60613 30.192 6.55813 30.192ZM26.8116 30.224C23.9316 30.224 21.809 29.296 20.4436 27.44C19.0996 25.5627 18.4276 22.6613 18.4276 18.736C18.4276 14.896 19.121 12.048 20.5076 10.192C21.8943 8.31467 24.0276 7.376 26.9076 7.376C27.505 7.376 28.081 7.42933 28.6356 7.536C29.1903 7.64267 29.649 7.77067 30.0116 7.92C30.4596 8.06933 30.6836 8.35733 30.6836 8.784C30.6836 9.18933 30.6196 9.616 30.4916 10.064C30.3636 10.512 30.1503 10.736 29.8516 10.736C29.5956 10.736 29.233 10.672 28.7636 10.544C28.3156 10.416 27.7183 10.352 26.9716 10.352C25.201 10.352 23.921 11.0133 23.1316 12.336C22.3423 13.6587 21.9476 15.792 21.9476 18.736C21.9476 21.7227 22.3423 23.888 23.1316 25.232C23.9423 26.5547 25.2223 27.216 26.9716 27.216C27.889 27.216 28.6036 27.12 29.1156 26.928C29.6276 26.736 29.9903 26.64 30.2036 26.64C30.481 26.64 30.6943 26.864 30.8436 27.312C30.993 27.7387 31.0676 28.176 31.0676 28.624C31.0676 28.7947 31.025 28.9547 30.9396 29.104C30.8543 29.2533 30.6836 29.3813 30.4276 29.488C30.001 29.68 29.4783 29.8507 28.8596 30C28.241 30.1493 27.5583 30.224 26.8116 30.224ZM36.0019 30.064C35.1912 30.064 34.7859 29.8613 34.7859 29.456C34.7859 29.3493 34.8072 29.168 34.8499 28.912L40.3539 8.304C40.5032 7.792 41.0045 7.536 41.8579 7.536H43.2659C44.1192 7.536 44.6205 7.792 44.7699 8.304L50.2419 28.912C50.2632 29.0613 50.2845 29.1787 50.3059 29.264C50.3272 29.328 50.3379 29.392 50.3379 29.456C50.3379 29.8613 49.9325 30.064 49.1219 30.064H48.2259C47.8845 30.064 47.5859 30.0213 47.3299 29.936C47.0952 29.8507 46.9565 29.6907 46.9139 29.456L45.7299 24.592H39.3939L38.1779 29.456C38.1352 29.6907 37.9859 29.8507 37.7299 29.936C37.4952 30.0213 37.2072 30.064 36.8659 30.064H36.0019ZM42.0819 13.584L40.0659 21.776H45.0259L43.0099 13.584C42.9245 13.264 42.8499 12.9227 42.7859 12.56C42.7432 12.1973 42.6899 11.8453 42.6259 11.504H42.4659C42.4232 11.8453 42.3699 12.1973 42.3059 12.56C42.2419 12.9227 42.1672 13.264 42.0819 13.584ZM57.4174 30.064C56.884 30.064 56.5 30 56.2654 29.872C56.052 29.7227 55.9454 29.52 55.9454 29.264V8.336C55.9454 7.80267 56.436 7.536 57.4174 7.536H58.1854C58.6547 7.536 59.0067 7.58933 59.2414 7.696C59.4974 7.80267 59.7 7.99467 59.8494 8.272L66.0254 21.136C66.1534 21.4133 66.2814 21.7547 66.4094 22.16C66.5587 22.544 66.6867 22.9067 66.7934 23.248L66.9214 23.216C66.9 22.96 66.868 22.6293 66.8254 22.224C66.804 21.8187 66.7934 21.424 66.7934 21.04V8.336C66.7934 8.08 66.9 7.888 67.1134 7.76C67.348 7.61067 67.732 7.536 68.2654 7.536H68.6814C69.2147 7.536 69.588 7.61067 69.8014 7.76C70.036 7.888 70.1534 8.08 70.1534 8.336V29.264C70.1534 29.7973 69.6627 30.064 68.6814 30.064H67.8174C67.3694 30.064 67.028 30.0213 66.7934 29.936C66.58 29.8293 66.3987 29.6373 66.2494 29.36L60.0414 16.4C59.9347 16.144 59.8067 15.824 59.6574 15.44C59.5294 15.056 59.412 14.6827 59.3054 14.32L59.1774 14.352C59.1987 14.672 59.22 15.024 59.2414 15.408C59.284 15.792 59.3054 16.1653 59.3054 16.528V29.264C59.3054 29.52 59.188 29.7227 58.9534 29.872C58.74 30 58.3667 30.064 57.8334 30.064H57.4174ZM100.539 35.344C100.39 35.344 100.027 35.2053 99.4514 34.928C98.8754 34.672 98.1607 34.3307 97.3074 33.904C96.4754 33.4773 95.5687 33.008 94.5874 32.496C93.6274 31.984 92.678 31.472 91.7394 30.96C90.8007 30.448 89.9474 29.9787 89.1794 29.552C87.6434 28.8693 86.4807 27.6427 85.6914 25.872C84.902 24.08 84.5074 21.712 84.5074 18.768C84.5074 14.864 85.19 11.9947 86.5554 10.16C87.942 8.304 89.9687 7.376 92.6354 7.376C95.302 7.376 97.318 8.304 98.6834 10.16C100.049 11.9947 100.731 14.864 100.731 18.768C100.731 21.9253 100.283 24.4107 99.3874 26.224C98.4914 28.0373 97.158 29.232 95.3874 29.808V29.904L101.403 32.368C101.723 32.4747 101.883 32.6667 101.883 32.944C101.883 33.1573 101.819 33.456 101.691 33.84C101.585 34.224 101.425 34.5653 101.211 34.864C101.019 35.184 100.795 35.344 100.539 35.344ZM92.6354 27.28C94.214 27.28 95.366 26.5973 96.0914 25.232C96.838 23.8667 97.2114 21.712 97.2114 18.768C97.2114 15.8453 96.838 13.712 96.0914 12.368C95.366 11.0027 94.214 10.32 92.6354 10.32C91.0354 10.32 89.862 11.0027 89.1154 12.368C88.39 13.712 88.0274 15.8453 88.0274 18.768C88.0274 21.712 88.39 23.8667 89.1154 25.232C89.862 26.5973 91.0354 27.28 92.6354 27.28ZM108.955 30.064C108.422 30.064 108.038 30 107.803 29.872C107.59 29.7227 107.483 29.52 107.483 29.264V8.656C107.483 7.952 107.835 7.6 108.539 7.6H113.403C117.627 7.6 119.739 9.79733 119.739 14.192C119.739 15.5147 119.462 16.6347 118.907 17.552C118.374 18.4693 117.584 19.0453 116.539 19.28V19.408C117.563 19.8773 118.31 20.848 118.779 22.32L120.763 28.656C120.827 28.8267 120.87 28.9867 120.891 29.136C120.934 29.2853 120.955 29.4027 120.955 29.488C120.955 29.7227 120.838 29.8827 120.603 29.968C120.39 30.032 120.027 30.064 119.515 30.064H118.875C118.043 30.064 117.563 29.8293 117.435 29.36L115.611 23.28C115.291 22.2133 114.918 21.4987 114.491 21.136C114.064 20.7733 113.435 20.592 112.603 20.592H110.971V29.264C110.971 29.52 110.854 29.7227 110.619 29.872C110.384 30 110 30.064 109.467 30.064H108.955ZM110.971 17.648H113.467C114.47 17.648 115.184 17.3813 115.611 16.848C116.059 16.2933 116.283 15.408 116.283 14.192C116.283 12.912 116.059 11.984 115.611 11.408C115.184 10.832 114.47 10.544 113.467 10.544H110.971V17.648ZM141.618 30.224C138.738 30.224 136.615 29.296 135.25 27.44C133.906 25.5627 133.234 22.6613 133.234 18.736C133.234 14.896 133.927 12.048 135.314 10.192C136.701 8.31467 138.834 7.376 141.714 7.376C142.311 7.376 142.887 7.42933 143.442 7.536C143.997 7.64267 144.455 7.77067 144.818 7.92C145.266 8.06933 145.49 8.35733 145.49 8.784C145.49 9.18933 145.426 9.616 145.298 10.064C145.17 10.512 144.957 10.736 144.658 10.736C144.402 10.736 144.039 10.672 143.57 10.544C143.122 10.416 142.525 10.352 141.778 10.352C140.007 10.352 138.727 11.0133 137.938 12.336C137.149 13.6587 136.754 15.792 136.754 18.736C136.754 21.7227 137.149 23.888 137.938 25.232C138.749 26.5547 140.029 27.216 141.778 27.216C142.695 27.216 143.41 27.12 143.922 26.928C144.434 26.736 144.797 26.64 145.01 26.64C145.287 26.64 145.501 26.864 145.65 27.312C145.799 27.7387 145.874 28.176 145.874 28.624C145.874 28.7947 145.831 28.9547 145.746 29.104C145.661 29.2533 145.49 29.3813 145.234 29.488C144.807 29.68 144.285 29.8507 143.666 30C143.047 30.1493 142.365 30.224 141.618 30.224ZM158.279 30.224C155.612 30.224 153.586 29.2853 152.199 27.408C150.834 25.5307 150.151 22.6507 150.151 18.768C150.151 14.864 150.834 11.9947 152.199 10.16C153.586 8.304 155.612 7.376 158.279 7.376C160.946 7.376 162.962 8.304 164.327 10.16C165.692 11.9947 166.375 14.864 166.375 18.768C166.375 22.6507 165.692 25.5307 164.327 27.408C162.962 29.2853 160.946 30.224 158.279 30.224ZM158.279 27.28C159.858 27.28 161.01 26.5973 161.735 25.232C162.482 23.8667 162.855 21.712 162.855 18.768C162.855 15.8453 162.482 13.712 161.735 12.368C161.01 11.0027 159.858 10.32 158.279 10.32C156.679 10.32 155.506 11.0027 154.759 12.368C154.034 13.712 153.671 15.8453 153.671 18.768C153.671 21.712 154.034 23.8667 154.759 25.232C155.506 26.5973 156.679 27.28 158.279 27.28ZM174.183 30C173.479 30 173.127 29.648 173.127 28.944V8.656C173.127 7.952 173.479 7.6 174.183 7.6H179.367C182.033 7.6 184.049 8.50667 185.415 10.32C186.78 12.112 187.463 14.928 187.463 18.768C187.463 22.5867 186.78 25.4133 185.415 27.248C184.049 29.0827 182.033 30 179.367 30H174.183ZM176.615 27.056H179.367C180.945 27.056 182.097 26.3947 182.823 25.072C183.569 23.728 183.943 21.6267 183.943 18.768C183.943 15.9093 183.569 13.8293 182.823 12.528C182.097 11.2053 180.945 10.544 179.367 10.544H176.615V27.056ZM195.289 30C194.585 30 194.233 29.648 194.233 28.944V8.656C194.233 7.952 194.585 7.6 195.289 7.6H204.441C204.932 7.6 205.177 7.984 205.177 8.752V9.392C205.177 10.16 204.932 10.544 204.441 10.544H197.721V17.072H203.737C204.206 17.072 204.441 17.456 204.441 18.224V18.864C204.441 19.632 204.206 20.016 203.737 20.016H197.721V27.056H204.441C204.932 27.056 205.177 27.44 205.177 28.208V28.848C205.177 29.616 204.932 30 204.441 30H195.289Z" data-figma-gradient-fill="{&#34;type&#34;:&#34;GRADIENT_DIAMOND&#34;,&#34;stops&#34;:[{&#34;color&#34;:{&#34;r&#34;:0.34143927693367004,&#34;g&#34;:0.17814230918884277,&#34;b&#34;:0.57005488872528076,&#34;a&#34;:1.0},&#34;position&#34;:0.0},{&#34;color&#34;:{&#34;r&#34;:0.95192295312881470,&#34;g&#34;:0.50538194179534912,&#34;b&#34;:0.53515130281448364,&#34;a&#34;:1.0},&#34;position&#34;:1.0}],&#34;stopsVar&#34;:[{&#34;color&#34;:{&#34;r&#34;:0.34143927693367004,&#34;g&#34;:0.17814230918884277,&#34;b&#34;:0.57005488872528076,&#34;a&#34;:1.0},&#34;position&#34;:0.0},{&#34;color&#34;:{&#34;r&#34;:0.95192295312881470,&#34;g&#34;:0.50538194179534912,&#34;b&#34;:0.53515130281448364,&#34;a&#34;:1.0},&#34;position&#34;:1.0}],&#34;transform&#34;:{&#34;m00&#34;:668.97979736328125,&#34;m01&#34;:-0.19441840052604675,&#34;m02&#34;:-231.39266967773438,&#34;m10&#34;:1.0000007152557373,&#34;m11&#34;:120.15656280517578,&#34;m12&#34;:-42.078285217285156},&#34;opacity&#34;:1.0,&#34;blendMode&#34;:&#34;NORMAL&#34;,&#34;visible&#34;:true}"/>
<defs>
<clipPath id="paint0_diamond_52_4_clip_path"><path d="M6.55813 30.192C5.66213 30.192 4.80879 30.096 3.99813 29.904C3.18746 29.6907 2.45146 29.3707 1.79013 28.944C1.29946 28.6667 1.05413 28.3253 1.05413 27.92C1.05413 27.7493 1.08613 27.504 1.15013 27.184C1.23546 26.8427 1.35279 26.544 1.50213 26.288C1.65146 26.0107 1.82213 25.872 2.01413 25.872C2.20613 25.872 2.50479 25.9893 2.91013 26.224C3.31546 26.4373 3.82746 26.6613 4.44613 26.896C5.06479 27.1093 5.79013 27.216 6.62213 27.216C7.56079 27.216 8.35013 26.9493 8.99013 26.416C9.63013 25.8827 9.95013 25.072 9.95013 23.984C9.95013 23.2373 9.77946 22.6293 9.43813 22.16C9.09679 21.6693 8.63813 21.264 8.06213 20.944C7.50746 20.6027 6.91013 20.2613 6.27013 19.92C5.43813 19.5147 4.65946 19.056 3.93413 18.544C3.20879 18.032 2.62213 17.392 2.17413 16.624C1.72613 15.8347 1.50213 14.8213 1.50213 13.584C1.50213 12.2827 1.79013 11.1627 2.36613 10.224C2.94213 9.264 3.73146 8.53867 4.73413 8.048C5.73679 7.536 6.87813 7.28 8.15813 7.28C8.84079 7.28 9.52346 7.36533 10.2061 7.536C10.9101 7.70667 11.5288 7.94133 12.0621 8.24C12.2328 8.34667 12.3608 8.45333 12.4461 8.56C12.5315 8.66667 12.5741 8.816 12.5741 9.008C12.5741 9.17867 12.5421 9.424 12.4781 9.744C12.4141 10.064 12.3181 10.3627 12.1901 10.64C12.0835 10.896 11.9448 11.024 11.7741 11.024C11.5395 11.024 11.1128 10.896 10.4941 10.64C9.87546 10.3627 9.09679 10.224 8.15813 10.224C7.17679 10.224 6.37679 10.5013 5.75813 11.056C5.13946 11.5893 4.83013 12.336 4.83013 13.296C4.83013 14.0427 5.01146 14.6507 5.37413 15.12C5.73679 15.5893 6.20613 15.9947 6.78213 16.336C7.35813 16.656 7.97679 16.976 8.63813 17.296C9.44879 17.744 10.2061 18.224 10.9101 18.736C11.6355 19.248 12.2115 19.8987 12.6381 20.688C13.0861 21.4773 13.3101 22.4907 13.3101 23.728C13.3101 25.6907 12.6915 27.2587 11.4541 28.432C10.2381 29.6053 8.60613 30.192 6.55813 30.192ZM26.8116 30.224C23.9316 30.224 21.809 29.296 20.4436 27.44C19.0996 25.5627 18.4276 22.6613 18.4276 18.736C18.4276 14.896 19.121 12.048 20.5076 10.192C21.8943 8.31467 24.0276 7.376 26.9076 7.376C27.505 7.376 28.081 7.42933 28.6356 7.536C29.1903 7.64267 29.649 7.77067 30.0116 7.92C30.4596 8.06933 30.6836 8.35733 30.6836 8.784C30.6836 9.18933 30.6196 9.616 30.4916 10.064C30.3636 10.512 30.1503 10.736 29.8516 10.736C29.5956 10.736 29.233 10.672 28.7636 10.544C28.3156 10.416 27.7183 10.352 26.9716 10.352C25.201 10.352 23.921 11.0133 23.1316 12.336C22.3423 13.6587 21.9476 15.792 21.9476 18.736C21.9476 21.7227 22.3423 23.888 23.1316 25.232C23.9423 26.5547 25.2223 27.216 26.9716 27.216C27.889 27.216 28.6036 27.12 29.1156 26.928C29.6276 26.736 29.9903 26.64 30.2036 26.64C30.481 26.64 30.6943 26.864 30.8436 27.312C30.993 27.7387 31.0676 28.176 31.0676 28.624C31.0676 28.7947 31.025 28.9547 30.9396 29.104C30.8543 29.2533 30.6836 29.3813 30.4276 29.488C30.001 29.68 29.4783 29.8507 28.8596 30C28.241 30.1493 27.5583 30.224 26.8116 30.224ZM36.0019 30.064C35.1912 30.064 34.7859 29.8613 34.7859 29.456C34.7859 29.3493 34.8072 29.168 34.8499 28.912L40.3539 8.304C40.5032 7.792 41.0045 7.536 41.8579 7.536H43.2659C44.1192 7.536 44.6205 7.792 44.7699 8.304L50.2419 28.912C50.2632 29.0613 50.2845 29.1787 50.3059 29.264C50.3272 29.328 50.3379 29.392 50.3379 29.456C50.3379 29.8613 49.9325 30.064 49.1219 30.064H48.2259C47.8845 30.064 47.5859 30.0213 47.3299 29.936C47.0952 29.8507 46.9565 29.6907 46.9139 29.456L45.7299 24.592H39.3939L38.1779 29.456C38.1352 29.6907 37.9859 29.8507 37.7299 29.936C37.4952 30.0213 37.2072 30.064 36.8659 30.064H36.0019ZM42.0819 13.584L40.0659 21.776H45.0259L43.0099 13.584C42.9245 13.264 42.8499 12.9227 42.7859 12.56C42.7432 12.1973 42.6899 11.8453 42.6259 11.504H42.4659C42.4232 11.8453 42.3699 12.1973 42.3059 12.56C42.2419 12.9227 42.1672 13.264 42.0819 13.584ZM57.4174 30.064C56.884 30.064 56.5 30 56.2654 29.872C56.052 29.7227 55.9454 29.52 55.9454 29.264V8.336C55.9454 7.80267 56.436 7.536 57.4174 7.536H58.1854C58.6547 7.536 59.0067 7.58933 59.2414 7.696C59.4974 7.80267 59.7 7.99467 59.8494 8.272L66.0254 21.136C66.1534 21.4133 66.2814 21.7547 66.4094 22.16C66.5587 22.544 66.6867 22.9067 66.7934 23.248L66.9214 23.216C66.9 22.96 66.868 22.6293 66.8254 22.224C66.804 21.8187 66.7934 21.424 66.7934 21.04V8.336C66.7934 8.08 66.9 7.888 67.1134 7.76C67.348 7.61067 67.732 7.536 68.2654 7.536H68.6814C69.2147 7.536 69.588 7.61067 69.8014 7.76C70.036 7.888 70.1534 8.08 70.1534 8.336V29.264C70.1534 29.7973 69.6627 30.064 68.6814 30.064H67.8174C67.3694 30.064 67.028 30.0213 66.7934 29.936C66.58 29.8293 66.3987 29.6373 66.2494 29.36L60.0414 16.4C59.9347 16.144 59.8067 15.824 59.6574 15.44C59.5294 15.056 59.412 14.6827 59.3054 14.32L59.1774 14.352C59.1987 14.672 59.22 15.024 59.2414 15.408C59.284 15.792 59.3054 16.1653 59.3054 16.528V29.264C59.3054 29.52 59.188 29.7227 58.9534 29.872C58.74 30 58.3667 30.064 57.8334 30.064H57.4174ZM100.539 35.344C100.39 35.344 100.027 35.2053 99.4514 34.928C98.8754 34.672 98.1607 34.3307 97.3074 33.904C96.4754 33.4773 95.5687 33.008 94.5874 32.496C93.6274 31.984 92.678 31.472 91.7394 30.96C90.8007 30.448 89.9474 29.9787 89.1794 29.552C87.6434 28.8693 86.4807 27.6427 85.6914 25.872C84.902 24.08 84.5074 21.712 84.5074 18.768C84.5074 14.864 85.19 11.9947 86.5554 10.16C87.942 8.304 89.9687 7.376 92.6354 7.376C95.302 7.376 97.318 8.304 98.6834 10.16C100.049 11.9947 100.731 14.864 100.731 18.768C100.731 21.9253 100.283 24.4107 99.3874 26.224C98.4914 28.0373 97.158 29.232 95.3874 29.808V29.904L101.403 32.368C101.723 32.4747 101.883 32.6667 101.883 32.944C101.883 33.1573 101.819 33.456 101.691 33.84C101.585 34.224 101.425 34.5653 101.211 34.864C101.019 35.184 100.795 35.344 100.539 35.344ZM92.6354 27.28C94.214 27.28 95.366 26.5973 96.0914 25.232C96.838 23.8667 97.2114 21.712 97.2114 18.768C97.2114 15.8453 96.838 13.712 96.0914 12.368C95.366 11.0027 94.214 10.32 92.6354 10.32C91.0354 10.32 89.862 11.0027 89.1154 12.368C88.39 13.712 88.0274 15.8453 88.0274 18.768C88.0274 21.712 88.39 23.8667 89.1154 25.232C89.862 26.5973 91.0354 27.28 92.6354 27.28ZM108.955 30.064C108.422 30.064 108.038 30 107.803 29.872C107.59 29.7227 107.483 29.52 107.483 29.264V8.656C107.483 7.952 107.835 7.6 108.539 7.6H113.403C117.627 7.6 119.739 9.79733 119.739 14.192C119.739 15.5147 119.462 16.6347 118.907 17.552C118.374 18.4693 117.584 19.0453 116.539 19.28V19.408C117.563 19.8773 118.31 20.848 118.779 22.32L120.763 28.656C120.827 28.8267 120.87 28.9867 120.891 29.136C120.934 29.2853 120.955 29.4027 120.955 29.488C120.955 29.7227 120.838 29.8827 120.603 29.968C120.39 30.032 120.027 30.064 119.515 30.064H118.875C118.043 30.064 117.563 29.8293 117.435 29.36L115.611 23.28C115.291 22.2133 114.918 21.4987 114.491 21.136C114.064 20.7733 113.435 20.592 112.603 20.592H110.971V29.264C110.971 29.52 110.854 29.7227 110.619 29.872C110.384 30 110 30.064 109.467 30.064H108.955ZM110.971 17.648H113.467C114.47 17.648 115.184 17.3813 115.611 16.848C116.059 16.2933 116.283 15.408 116.283 14.192C116.283 12.912 116.059 11.984 115.611 11.408C115.184 10.832 114.47 10.544 113.467 10.544H110.971V17.648ZM141.618 30.224C138.738 30.224 136.615 29.296 135.25 27.44C133.906 25.5627 133.234 22.6613 133.234 18.736C133.234 14.896 133.927 12.048 135.314 10.192C136.701 8.31467 138.834 7.376 141.714 7.376C142.311 7.376 142.887 7.42933 143.442 7.536C143.997 7.64267 144.455 7.77067 144.818 7.92C145.266 8.06933 145.49 8.35733 145.49 8.784C145.49 9.18933 145.426 9.616 145.298 10.064C145.17 10.512 144.957 10.736 144.658 10.736C144.402 10.736 144.039 10.672 143.57 10.544C143.122 10.416 142.525 10.352 141.778 10.352C140.007 10.352 138.727 11.0133 137.938 12.336C137.149 13.6587 136.754 15.792 136.754 18.736C136.754 21.7227 137.149 23.888 137.938 25.232C138.749 26.5547 140.029 27.216 141.778 27.216C142.695 27.216 143.41 27.12 143.922 26.928C144.434 26.736 144.797 26.64 145.01 26.64C145.287 26.64 145.501 26.864 145.65 27.312C145.799 27.7387 145.874 28.176 145.874 28.624C145.874 28.7947 145.831 28.9547 145.746 29.104C145.661 29.2533 145.49 29.3813 145.234 29.488C144.807 29.68 144.285 29.8507 143.666 30C143.047 30.1493 142.365 30.224 141.618 30.224ZM158.279 30.224C155.612 30.224 153.586 29.2853 152.199 27.408C150.834 25.5307 150.151 22.6507 150.151 18.768C150.151 14.864 150.834 11.9947 152.199 10.16C153.586 8.304 155.612 7.376 158.279 7.376C160.946 7.376 162.962 8.304 164.327 10.16C165.692 11.9947 166.375 14.864 166.375 18.768C166.375 22.6507 165.692 25.5307 164.327 27.408C162.962 29.2853 160.946 30.224 158.279 30.224ZM158.279 27.28C159.858 27.28 161.01 26.5973 161.735 25.232C162.482 23.8667 162.855 21.712 162.855 18.768C162.855 15.8453 162.482 13.712 161.735 12.368C161.01 11.0027 159.858 10.32 158.279 10.32C156.679 10.32 155.506 11.0027 154.759 12.368C154.034 13.712 153.671 15.8453 153.671 18.768C153.671 21.712 154.034 23.8667 154.759 25.232C155.506 26.5973 156.679 27.28 158.279 27.28ZM174.183 30C173.479 30 173.127 29.648 173.127 28.944V8.656C173.127 7.952 173.479 7.6 174.183 7.6H179.367C182.033 7.6 184.049 8.50667 185.415 10.32C186.78 12.112 187.463 14.928 187.463 18.768C187.463 22.5867 186.78 25.4133 185.415 27.248C184.049 29.0827 182.033 30 179.367 30H174.183ZM176.615 27.056H179.367C180.945 27.056 182.097 26.3947 182.823 25.072C183.569 23.728 183.943 21.6267 183.943 18.768C183.943 15.9093 183.569 13.8293 182.823 12.528C182.097 11.2053 180.945 10.544 179.367 10.544H176.615V27.056ZM195.289 30C194.585 30 194.233 29.648 194.233 28.944V8.656C194.233 7.952 194.585 7.6 195.289 7.6H204.441C204.932 7.6 205.177 7.984 205.177 8.752V9.392C205.177 10.16 204.932 10.544 204.441 10.544H197.721V17.072H203.737C204.206 17.072 204.441 17.456 204.441 18.224V18.864C204.441 19.632 204.206 20.016 203.737 20.016H197.721V27.056H204.441C204.932 27.056 205.177 27.44 205.177 28.208V28.848C205.177 29.616 204.932 30 204.441 30H195.289Z"/></clipPath><linearGradient id="paint0_diamond_52_4" x1="0" y1="0" x2="500" y2="500" gradientUnits="userSpaceOnUse">
<stop stop-color="#572D91"/>
<stop offset="1" stop-color="#F38188"/>
</linearGradient>
</defs>
</svg>
