<svg width="409" height="57" viewBox="0 0 409 57" fill="none" xmlns="http://www.w3.org/2000/svg">
<g clip-path="url(#paint0_diamond_22_92_clip_path)" data-figma-skip-parse="true"><g transform="matrix(0.804827 -0.031 0.00725974 0.142948 170.119 16.44)"><rect x="0" y="0" width="299.972" height="364.837" fill="url(#paint0_diamond_22_92)" opacity="1" shape-rendering="crispEdges"/><rect x="0" y="0" width="299.972" height="364.837" transform="scale(1 -1)" fill="url(#paint0_diamond_22_92)" opacity="1" shape-rendering="crispEdges"/><rect x="0" y="0" width="299.972" height="364.837" transform="scale(-1 1)" fill="url(#paint0_diamond_22_92)" opacity="1" shape-rendering="crispEdges"/><rect x="0" y="0" width="299.972" height="364.837" transform="scale(-1)" fill="url(#paint0_diamond_22_92)" opacity="1" shape-rendering="crispEdges"/></g></g><path d="M11.0081 45.824C9.2161 45.824 7.50943 45.632 5.8881 45.248C4.26677 44.8213 2.79477 44.1813 1.4721 43.328C0.490765 42.7733 9.88245e-05 42.0907 9.88245e-05 41.28C9.88245e-05 40.9387 0.0640988 40.448 0.192099 39.808C0.362765 39.1253 0.597432 38.528 0.896099 38.016C1.19477 37.4613 1.5361 37.184 1.9201 37.184C2.3041 37.184 2.90143 37.4187 3.7121 37.888C4.52277 38.3147 5.54677 38.7627 6.7841 39.232C8.02143 39.6587 9.4721 39.872 11.1361 39.872C13.0134 39.872 14.5921 39.3387 15.8721 38.272C17.1521 37.2053 17.7921 35.584 17.7921 33.408C17.7921 31.9147 17.4508 30.6987 16.7681 29.76C16.0854 28.7787 15.1681 27.968 14.0161 27.328C12.9068 26.6453 11.7121 25.9627 10.4321 25.28C8.7681 24.4693 7.21077 23.552 5.7601 22.528C4.30943 21.504 3.1361 20.224 2.2401 18.688C1.3441 17.1093 0.896099 15.0827 0.896099 12.608C0.896099 10.0053 1.4721 7.76534 2.6241 5.888C3.7761 3.968 5.35477 2.51733 7.3601 1.536C9.36543 0.512 11.6481 0 14.2081 0C15.5734 0 16.9388 0.170667 18.3041 0.512001C19.7121 0.853335 20.9494 1.32267 22.0161 1.92C22.3574 2.13334 22.6134 2.34667 22.7841 2.56C22.9548 2.77333 23.0401 3.072 23.0401 3.456C23.0401 3.79734 22.9761 4.288 22.8481 4.928C22.7201 5.568 22.5281 6.16533 22.2721 6.72C22.0588 7.232 21.7814 7.488 21.4401 7.488C20.9708 7.488 20.1174 7.232 18.8801 6.72C17.6428 6.16533 16.0854 5.888 14.2081 5.888C12.2454 5.888 10.6454 6.44267 9.4081 7.552C8.17077 8.61867 7.5521 10.112 7.5521 12.032C7.5521 13.5253 7.91477 14.7413 8.6401 15.68C9.36543 16.6187 10.3041 17.4293 11.4561 18.112C12.6081 18.752 13.8454 19.392 15.1681 20.032C16.7894 20.928 18.3041 21.888 19.7121 22.912C21.1628 23.936 22.3148 25.2373 23.1681 26.816C24.0641 28.3947 24.5121 30.4213 24.5121 32.896C24.5121 36.8213 23.2748 39.9573 20.8001 42.304C18.3681 44.6507 15.1041 45.824 11.0081 45.824ZM51.5151 45.888C45.7551 45.888 41.5098 44.032 38.7791 40.32C36.0911 36.5653 34.7471 30.7627 34.7471 22.912C34.7471 15.232 36.1338 9.536 38.9071 5.824C41.6804 2.06933 45.9471 0.192001 51.7071 0.192001C52.9018 0.192001 54.0538 0.298668 55.1631 0.512001C56.2724 0.725334 57.1898 0.981333 57.9151 1.28C58.8111 1.57867 59.2591 2.15467 59.2591 3.008C59.2591 3.81867 59.1311 4.672 58.8751 5.568C58.6191 6.464 58.1924 6.912 57.5951 6.912C57.0831 6.912 56.3578 6.784 55.4191 6.528C54.5231 6.272 53.3284 6.144 51.8351 6.144C48.2938 6.144 45.7338 7.46667 44.1551 10.112C42.5764 12.7573 41.7871 17.024 41.7871 22.912C41.7871 28.8853 42.5764 33.216 44.1551 35.904C45.7764 38.5493 48.3364 39.872 51.8351 39.872C53.6698 39.872 55.0991 39.68 56.1231 39.296C57.1471 38.912 57.8724 38.72 58.2991 38.72C58.8538 38.72 59.2804 39.168 59.5791 40.064C59.8778 40.9173 60.0271 41.792 60.0271 42.688C60.0271 43.0293 59.9418 43.3493 59.7711 43.648C59.6004 43.9467 59.2591 44.2027 58.7471 44.416C57.8938 44.8 56.8484 45.1413 55.6111 45.44C54.3738 45.7387 53.0084 45.888 51.5151 45.888ZM69.8956 45.568C68.2743 45.568 67.4636 45.1627 67.4636 44.352C67.4636 44.1387 67.5063 43.776 67.5916 43.264L78.5996 2.048C78.8983 1.024 79.9009 0.512001 81.6076 0.512001H84.4236C86.1303 0.512001 87.1329 1.024 87.4316 2.048L98.3756 43.264C98.4183 43.5627 98.4609 43.7973 98.5036 43.968C98.5463 44.096 98.5676 44.224 98.5676 44.352C98.5676 45.1627 97.7569 45.568 96.1356 45.568H94.3436C93.6609 45.568 93.0636 45.4827 92.5516 45.312C92.0823 45.1413 91.8049 44.8213 91.7196 44.352L89.3516 34.624H76.6796L74.2476 44.352C74.1623 44.8213 73.8636 45.1413 73.3516 45.312C72.8823 45.4827 72.3063 45.568 71.6236 45.568H69.8956ZM82.0556 12.608L78.0236 28.992H87.9436L83.9116 12.608C83.7409 11.968 83.5916 11.2853 83.4636 10.56C83.3783 9.83467 83.2716 9.13067 83.1436 8.448H82.8236C82.7383 9.13067 82.6316 9.83467 82.5036 10.56C82.3756 11.2853 82.2263 11.968 82.0556 12.608ZM112.727 45.568C111.66 45.568 110.892 45.44 110.423 45.184C109.996 44.8853 109.783 44.48 109.783 43.968V2.112C109.783 1.04533 110.764 0.512001 112.727 0.512001H114.263C115.201 0.512001 115.905 0.618668 116.375 0.832001C116.887 1.04533 117.292 1.42933 117.591 1.984L129.943 27.712C130.199 28.2667 130.455 28.9493 130.711 29.76C131.009 30.528 131.265 31.2533 131.479 31.936L131.735 31.872C131.692 31.36 131.628 30.6987 131.543 29.888C131.5 29.0773 131.479 28.288 131.479 27.52V2.112C131.479 1.6 131.692 1.216 132.119 0.959999C132.588 0.661334 133.356 0.512001 134.423 0.512001H135.255C136.321 0.512001 137.068 0.661334 137.495 0.959999C137.964 1.216 138.199 1.6 138.199 2.112V43.968C138.199 45.0347 137.217 45.568 135.255 45.568H133.527C132.631 45.568 131.948 45.4827 131.479 45.312C131.052 45.0987 130.689 44.7147 130.391 44.16L117.975 18.24C117.761 17.728 117.505 17.088 117.207 16.32C116.951 15.552 116.716 14.8053 116.503 14.08L116.247 14.144C116.289 14.784 116.332 15.488 116.375 16.256C116.46 17.024 116.503 17.7707 116.503 18.496V43.968C116.503 44.48 116.268 44.8853 115.799 45.184C115.372 45.44 114.625 45.568 113.559 45.568H112.727ZM198.971 56.128C198.672 56.128 197.947 55.8507 196.795 55.296C195.643 54.784 194.213 54.1013 192.507 53.248C190.843 52.3947 189.029 51.456 187.067 50.432C185.147 49.408 183.248 48.384 181.371 47.36C179.493 46.336 177.787 45.3973 176.251 44.544C173.179 43.1787 170.853 40.7253 169.275 37.184C167.696 33.6 166.907 28.864 166.907 22.976C166.907 15.168 168.272 9.42933 171.003 5.76C173.776 2.048 177.829 0.192001 183.163 0.192001C188.496 0.192001 192.528 2.048 195.259 5.76C197.989 9.42933 199.355 15.168 199.355 22.976C199.355 29.2907 198.459 34.2613 196.667 37.888C194.875 41.5147 192.208 43.904 188.667 45.056V45.248L200.699 50.176C201.339 50.3893 201.659 50.7733 201.659 51.328C201.659 51.7547 201.531 52.352 201.275 53.12C201.061 53.888 200.741 54.5707 200.315 55.168C199.931 55.808 199.483 56.128 198.971 56.128ZM183.163 40C186.32 40 188.624 38.6347 190.075 35.904C191.568 33.1733 192.315 28.864 192.315 22.976C192.315 17.1307 191.568 12.864 190.075 10.176C188.624 7.44534 186.32 6.08 183.163 6.08C179.963 6.08 177.616 7.44534 176.123 10.176C174.672 12.864 173.947 17.1307 173.947 22.976C173.947 28.864 174.672 33.1733 176.123 35.904C177.616 38.6347 179.963 40 183.163 40ZM215.802 45.568C214.735 45.568 213.967 45.44 213.498 45.184C213.071 44.8853 212.858 44.48 212.858 43.968V2.752C212.858 1.344 213.562 0.639999 214.97 0.639999H224.698C233.146 0.639999 237.37 5.03467 237.37 13.824C237.37 16.4693 236.815 18.7093 235.706 20.544C234.639 22.3787 233.06 23.5307 230.97 24V24.256C233.018 25.1947 234.511 27.136 235.45 30.08L239.418 42.752C239.546 43.0933 239.631 43.4133 239.674 43.712C239.759 44.0107 239.802 44.2453 239.802 44.416C239.802 44.8853 239.567 45.2053 239.098 45.376C238.671 45.504 237.946 45.568 236.922 45.568H235.642C233.978 45.568 233.018 45.0987 232.762 44.16L229.114 32C228.474 29.8667 227.727 28.4373 226.874 27.712C226.02 26.9867 224.762 26.624 223.098 26.624H219.834V43.968C219.834 44.48 219.599 44.8853 219.13 45.184C218.66 45.44 217.892 45.568 216.826 45.568H215.802ZM219.834 20.736H224.826C226.831 20.736 228.26 20.2027 229.114 19.136C230.01 18.0267 230.458 16.256 230.458 13.824C230.458 11.264 230.01 9.408 229.114 8.256C228.26 7.104 226.831 6.528 224.826 6.528H219.834V20.736ZM281.128 45.888C275.368 45.888 271.122 44.032 268.392 40.32C265.704 36.5653 264.36 30.7627 264.36 22.912C264.36 15.232 265.746 9.536 268.52 5.824C271.293 2.06933 275.56 0.192001 281.32 0.192001C282.514 0.192001 283.666 0.298668 284.776 0.512001C285.885 0.725334 286.802 0.981333 287.528 1.28C288.424 1.57867 288.872 2.15467 288.872 3.008C288.872 3.81867 288.744 4.672 288.488 5.568C288.232 6.464 287.805 6.912 287.208 6.912C286.696 6.912 285.97 6.784 285.032 6.528C284.136 6.272 282.941 6.144 281.448 6.144C277.906 6.144 275.346 7.46667 273.768 10.112C272.189 12.7573 271.4 17.024 271.4 22.912C271.4 28.8853 272.189 33.216 273.768 35.904C275.389 38.5493 277.949 39.872 281.448 39.872C283.282 39.872 284.712 39.68 285.736 39.296C286.76 38.912 287.485 38.72 287.912 38.72C288.466 38.72 288.893 39.168 289.192 40.064C289.49 40.9173 289.64 41.792 289.64 42.688C289.64 43.0293 289.554 43.3493 289.384 43.648C289.213 43.9467 288.872 44.2027 288.36 44.416C287.506 44.8 286.461 45.1413 285.224 45.44C283.986 45.7387 282.621 45.888 281.128 45.888ZM314.45 45.888C309.117 45.888 305.063 44.0107 302.29 40.256C299.559 36.5013 298.194 30.7413 298.194 22.976C298.194 15.168 299.559 9.42933 302.29 5.76C305.063 2.048 309.117 0.192001 314.45 0.192001C319.783 0.192001 323.815 2.048 326.546 5.76C329.277 9.42933 330.642 15.168 330.642 22.976C330.642 30.7413 329.277 36.5013 326.546 40.256C323.815 44.0107 319.783 45.888 314.45 45.888ZM314.45 40C317.607 40 319.911 38.6347 321.362 35.904C322.855 33.1733 323.602 28.864 323.602 22.976C323.602 17.1307 322.855 12.864 321.362 10.176C319.911 7.44534 317.607 6.08 314.45 6.08C311.25 6.08 308.903 7.44534 307.41 10.176C305.959 12.864 305.234 17.1307 305.234 22.976C305.234 28.864 305.959 33.1733 307.41 35.904C308.903 38.6347 311.25 40 314.45 40ZM346.257 45.44C344.849 45.44 344.145 44.736 344.145 43.328V2.752C344.145 1.344 344.849 0.639999 346.257 0.639999H356.625C361.958 0.639999 365.99 2.45333 368.721 6.08C371.452 9.664 372.817 15.296 372.817 22.976C372.817 30.6133 371.452 36.2667 368.721 39.936C365.99 43.6053 361.958 45.44 356.625 45.44H346.257ZM351.121 39.552H356.625C359.782 39.552 362.086 38.2293 363.537 35.584C365.03 32.896 365.777 28.6933 365.777 22.976C365.777 17.2587 365.03 13.0987 363.537 10.496C362.086 7.85067 359.782 6.528 356.625 6.528H351.121V39.552ZM388.47 45.44C387.062 45.44 386.358 44.736 386.358 43.328V2.752C386.358 1.344 387.062 0.639999 388.47 0.639999H406.774C407.755 0.639999 408.246 1.408 408.246 2.944V4.224C408.246 5.76 407.755 6.528 406.774 6.528H393.334V19.584H405.366C406.304 19.584 406.774 20.352 406.774 21.888V23.168C406.774 24.704 406.304 25.472 405.366 25.472H393.334V39.552H406.774C407.755 39.552 408.246 40.32 408.246 41.856V43.136C408.246 44.672 407.755 45.44 406.774 45.44H388.47Z" data-figma-gradient-fill="{&#34;type&#34;:&#34;GRADIENT_DIAMOND&#34;,&#34;stops&#34;:[{&#34;color&#34;:{&#34;r&#34;:0.34143927693367004,&#34;g&#34;:0.17814230918884277,&#34;b&#34;:0.57005488872528076,&#34;a&#34;:1.0},&#34;position&#34;:0.0},{&#34;color&#34;:{&#34;r&#34;:0.91442316770553589,&#34;g&#34;:0.81662106513977051,&#34;b&#34;:1.0,&#34;a&#34;:1.0},&#34;position&#34;:1.0}],&#34;stopsVar&#34;:[{&#34;color&#34;:{&#34;r&#34;:0.34143927693367004,&#34;g&#34;:0.17814230918884277,&#34;b&#34;:0.57005488872528076,&#34;a&#34;:1.0},&#34;position&#34;:0.0},{&#34;color&#34;:{&#34;r&#34;:0.91442316770553589,&#34;g&#34;:0.81662106513977051,&#34;b&#34;:1.0,&#34;a&#34;:1.0},&#34;position&#34;:1.0}],&#34;transform&#34;:{&#34;m00&#34;:1609.6546630859375,&#34;m01&#34;:14.519471168518066,&#34;m02&#34;:-641.96820068359375,&#34;m10&#34;:-62.000003814697266,&#34;m11&#34;:285.89627075195312,&#34;m12&#34;:-95.508140563964844},&#34;opacity&#34;:1.0,&#34;blendMode&#34;:&#34;NORMAL&#34;,&#34;visible&#34;:true}"/>
<defs>
<clipPath id="paint0_diamond_22_92_clip_path"><path d="M11.0081 45.824C9.2161 45.824 7.50943 45.632 5.8881 45.248C4.26677 44.8213 2.79477 44.1813 1.4721 43.328C0.490765 42.7733 9.88245e-05 42.0907 9.88245e-05 41.28C9.88245e-05 40.9387 0.0640988 40.448 0.192099 39.808C0.362765 39.1253 0.597432 38.528 0.896099 38.016C1.19477 37.4613 1.5361 37.184 1.9201 37.184C2.3041 37.184 2.90143 37.4187 3.7121 37.888C4.52277 38.3147 5.54677 38.7627 6.7841 39.232C8.02143 39.6587 9.4721 39.872 11.1361 39.872C13.0134 39.872 14.5921 39.3387 15.8721 38.272C17.1521 37.2053 17.7921 35.584 17.7921 33.408C17.7921 31.9147 17.4508 30.6987 16.7681 29.76C16.0854 28.7787 15.1681 27.968 14.0161 27.328C12.9068 26.6453 11.7121 25.9627 10.4321 25.28C8.7681 24.4693 7.21077 23.552 5.7601 22.528C4.30943 21.504 3.1361 20.224 2.2401 18.688C1.3441 17.1093 0.896099 15.0827 0.896099 12.608C0.896099 10.0053 1.4721 7.76534 2.6241 5.888C3.7761 3.968 5.35477 2.51733 7.3601 1.536C9.36543 0.512 11.6481 0 14.2081 0C15.5734 0 16.9388 0.170667 18.3041 0.512001C19.7121 0.853335 20.9494 1.32267 22.0161 1.92C22.3574 2.13334 22.6134 2.34667 22.7841 2.56C22.9548 2.77333 23.0401 3.072 23.0401 3.456C23.0401 3.79734 22.9761 4.288 22.8481 4.928C22.7201 5.568 22.5281 6.16533 22.2721 6.72C22.0588 7.232 21.7814 7.488 21.4401 7.488C20.9708 7.488 20.1174 7.232 18.8801 6.72C17.6428 6.16533 16.0854 5.888 14.2081 5.888C12.2454 5.888 10.6454 6.44267 9.4081 7.552C8.17077 8.61867 7.5521 10.112 7.5521 12.032C7.5521 13.5253 7.91477 14.7413 8.6401 15.68C9.36543 16.6187 10.3041 17.4293 11.4561 18.112C12.6081 18.752 13.8454 19.392 15.1681 20.032C16.7894 20.928 18.3041 21.888 19.7121 22.912C21.1628 23.936 22.3148 25.2373 23.1681 26.816C24.0641 28.3947 24.5121 30.4213 24.5121 32.896C24.5121 36.8213 23.2748 39.9573 20.8001 42.304C18.3681 44.6507 15.1041 45.824 11.0081 45.824ZM51.5151 45.888C45.7551 45.888 41.5098 44.032 38.7791 40.32C36.0911 36.5653 34.7471 30.7627 34.7471 22.912C34.7471 15.232 36.1338 9.536 38.9071 5.824C41.6804 2.06933 45.9471 0.192001 51.7071 0.192001C52.9018 0.192001 54.0538 0.298668 55.1631 0.512001C56.2724 0.725334 57.1898 0.981333 57.9151 1.28C58.8111 1.57867 59.2591 2.15467 59.2591 3.008C59.2591 3.81867 59.1311 4.672 58.8751 5.568C58.6191 6.464 58.1924 6.912 57.5951 6.912C57.0831 6.912 56.3578 6.784 55.4191 6.528C54.5231 6.272 53.3284 6.144 51.8351 6.144C48.2938 6.144 45.7338 7.46667 44.1551 10.112C42.5764 12.7573 41.7871 17.024 41.7871 22.912C41.7871 28.8853 42.5764 33.216 44.1551 35.904C45.7764 38.5493 48.3364 39.872 51.8351 39.872C53.6698 39.872 55.0991 39.68 56.1231 39.296C57.1471 38.912 57.8724 38.72 58.2991 38.72C58.8538 38.72 59.2804 39.168 59.5791 40.064C59.8778 40.9173 60.0271 41.792 60.0271 42.688C60.0271 43.0293 59.9418 43.3493 59.7711 43.648C59.6004 43.9467 59.2591 44.2027 58.7471 44.416C57.8938 44.8 56.8484 45.1413 55.6111 45.44C54.3738 45.7387 53.0084 45.888 51.5151 45.888ZM69.8956 45.568C68.2743 45.568 67.4636 45.1627 67.4636 44.352C67.4636 44.1387 67.5063 43.776 67.5916 43.264L78.5996 2.048C78.8983 1.024 79.9009 0.512001 81.6076 0.512001H84.4236C86.1303 0.512001 87.1329 1.024 87.4316 2.048L98.3756 43.264C98.4183 43.5627 98.4609 43.7973 98.5036 43.968C98.5463 44.096 98.5676 44.224 98.5676 44.352C98.5676 45.1627 97.7569 45.568 96.1356 45.568H94.3436C93.6609 45.568 93.0636 45.4827 92.5516 45.312C92.0823 45.1413 91.8049 44.8213 91.7196 44.352L89.3516 34.624H76.6796L74.2476 44.352C74.1623 44.8213 73.8636 45.1413 73.3516 45.312C72.8823 45.4827 72.3063 45.568 71.6236 45.568H69.8956ZM82.0556 12.608L78.0236 28.992H87.9436L83.9116 12.608C83.7409 11.968 83.5916 11.2853 83.4636 10.56C83.3783 9.83467 83.2716 9.13067 83.1436 8.448H82.8236C82.7383 9.13067 82.6316 9.83467 82.5036 10.56C82.3756 11.2853 82.2263 11.968 82.0556 12.608ZM112.727 45.568C111.66 45.568 110.892 45.44 110.423 45.184C109.996 44.8853 109.783 44.48 109.783 43.968V2.112C109.783 1.04533 110.764 0.512001 112.727 0.512001H114.263C115.201 0.512001 115.905 0.618668 116.375 0.832001C116.887 1.04533 117.292 1.42933 117.591 1.984L129.943 27.712C130.199 28.2667 130.455 28.9493 130.711 29.76C131.009 30.528 131.265 31.2533 131.479 31.936L131.735 31.872C131.692 31.36 131.628 30.6987 131.543 29.888C131.5 29.0773 131.479 28.288 131.479 27.52V2.112C131.479 1.6 131.692 1.216 132.119 0.959999C132.588 0.661334 133.356 0.512001 134.423 0.512001H135.255C136.321 0.512001 137.068 0.661334 137.495 0.959999C137.964 1.216 138.199 1.6 138.199 2.112V43.968C138.199 45.0347 137.217 45.568 135.255 45.568H133.527C132.631 45.568 131.948 45.4827 131.479 45.312C131.052 45.0987 130.689 44.7147 130.391 44.16L117.975 18.24C117.761 17.728 117.505 17.088 117.207 16.32C116.951 15.552 116.716 14.8053 116.503 14.08L116.247 14.144C116.289 14.784 116.332 15.488 116.375 16.256C116.46 17.024 116.503 17.7707 116.503 18.496V43.968C116.503 44.48 116.268 44.8853 115.799 45.184C115.372 45.44 114.625 45.568 113.559 45.568H112.727ZM198.971 56.128C198.672 56.128 197.947 55.8507 196.795 55.296C195.643 54.784 194.213 54.1013 192.507 53.248C190.843 52.3947 189.029 51.456 187.067 50.432C185.147 49.408 183.248 48.384 181.371 47.36C179.493 46.336 177.787 45.3973 176.251 44.544C173.179 43.1787 170.853 40.7253 169.275 37.184C167.696 33.6 166.907 28.864 166.907 22.976C166.907 15.168 168.272 9.42933 171.003 5.76C173.776 2.048 177.829 0.192001 183.163 0.192001C188.496 0.192001 192.528 2.048 195.259 5.76C197.989 9.42933 199.355 15.168 199.355 22.976C199.355 29.2907 198.459 34.2613 196.667 37.888C194.875 41.5147 192.208 43.904 188.667 45.056V45.248L200.699 50.176C201.339 50.3893 201.659 50.7733 201.659 51.328C201.659 51.7547 201.531 52.352 201.275 53.12C201.061 53.888 200.741 54.5707 200.315 55.168C199.931 55.808 199.483 56.128 198.971 56.128ZM183.163 40C186.32 40 188.624 38.6347 190.075 35.904C191.568 33.1733 192.315 28.864 192.315 22.976C192.315 17.1307 191.568 12.864 190.075 10.176C188.624 7.44534 186.32 6.08 183.163 6.08C179.963 6.08 177.616 7.44534 176.123 10.176C174.672 12.864 173.947 17.1307 173.947 22.976C173.947 28.864 174.672 33.1733 176.123 35.904C177.616 38.6347 179.963 40 183.163 40ZM215.802 45.568C214.735 45.568 213.967 45.44 213.498 45.184C213.071 44.8853 212.858 44.48 212.858 43.968V2.752C212.858 1.344 213.562 0.639999 214.97 0.639999H224.698C233.146 0.639999 237.37 5.03467 237.37 13.824C237.37 16.4693 236.815 18.7093 235.706 20.544C234.639 22.3787 233.06 23.5307 230.97 24V24.256C233.018 25.1947 234.511 27.136 235.45 30.08L239.418 42.752C239.546 43.0933 239.631 43.4133 239.674 43.712C239.759 44.0107 239.802 44.2453 239.802 44.416C239.802 44.8853 239.567 45.2053 239.098 45.376C238.671 45.504 237.946 45.568 236.922 45.568H235.642C233.978 45.568 233.018 45.0987 232.762 44.16L229.114 32C228.474 29.8667 227.727 28.4373 226.874 27.712C226.02 26.9867 224.762 26.624 223.098 26.624H219.834V43.968C219.834 44.48 219.599 44.8853 219.13 45.184C218.66 45.44 217.892 45.568 216.826 45.568H215.802ZM219.834 20.736H224.826C226.831 20.736 228.26 20.2027 229.114 19.136C230.01 18.0267 230.458 16.256 230.458 13.824C230.458 11.264 230.01 9.408 229.114 8.256C228.26 7.104 226.831 6.528 224.826 6.528H219.834V20.736ZM281.128 45.888C275.368 45.888 271.122 44.032 268.392 40.32C265.704 36.5653 264.36 30.7627 264.36 22.912C264.36 15.232 265.746 9.536 268.52 5.824C271.293 2.06933 275.56 0.192001 281.32 0.192001C282.514 0.192001 283.666 0.298668 284.776 0.512001C285.885 0.725334 286.802 0.981333 287.528 1.28C288.424 1.57867 288.872 2.15467 288.872 3.008C288.872 3.81867 288.744 4.672 288.488 5.568C288.232 6.464 287.805 6.912 287.208 6.912C286.696 6.912 285.97 6.784 285.032 6.528C284.136 6.272 282.941 6.144 281.448 6.144C277.906 6.144 275.346 7.46667 273.768 10.112C272.189 12.7573 271.4 17.024 271.4 22.912C271.4 28.8853 272.189 33.216 273.768 35.904C275.389 38.5493 277.949 39.872 281.448 39.872C283.282 39.872 284.712 39.68 285.736 39.296C286.76 38.912 287.485 38.72 287.912 38.72C288.466 38.72 288.893 39.168 289.192 40.064C289.49 40.9173 289.64 41.792 289.64 42.688C289.64 43.0293 289.554 43.3493 289.384 43.648C289.213 43.9467 288.872 44.2027 288.36 44.416C287.506 44.8 286.461 45.1413 285.224 45.44C283.986 45.7387 282.621 45.888 281.128 45.888ZM314.45 45.888C309.117 45.888 305.063 44.0107 302.29 40.256C299.559 36.5013 298.194 30.7413 298.194 22.976C298.194 15.168 299.559 9.42933 302.29 5.76C305.063 2.048 309.117 0.192001 314.45 0.192001C319.783 0.192001 323.815 2.048 326.546 5.76C329.277 9.42933 330.642 15.168 330.642 22.976C330.642 30.7413 329.277 36.5013 326.546 40.256C323.815 44.0107 319.783 45.888 314.45 45.888ZM314.45 40C317.607 40 319.911 38.6347 321.362 35.904C322.855 33.1733 323.602 28.864 323.602 22.976C323.602 17.1307 322.855 12.864 321.362 10.176C319.911 7.44534 317.607 6.08 314.45 6.08C311.25 6.08 308.903 7.44534 307.41 10.176C305.959 12.864 305.234 17.1307 305.234 22.976C305.234 28.864 305.959 33.1733 307.41 35.904C308.903 38.6347 311.25 40 314.45 40ZM346.257 45.44C344.849 45.44 344.145 44.736 344.145 43.328V2.752C344.145 1.344 344.849 0.639999 346.257 0.639999H356.625C361.958 0.639999 365.99 2.45333 368.721 6.08C371.452 9.664 372.817 15.296 372.817 22.976C372.817 30.6133 371.452 36.2667 368.721 39.936C365.99 43.6053 361.958 45.44 356.625 45.44H346.257ZM351.121 39.552H356.625C359.782 39.552 362.086 38.2293 363.537 35.584C365.03 32.896 365.777 28.6933 365.777 22.976C365.777 17.2587 365.03 13.0987 363.537 10.496C362.086 7.85067 359.782 6.528 356.625 6.528H351.121V39.552ZM388.47 45.44C387.062 45.44 386.358 44.736 386.358 43.328V2.752C386.358 1.344 387.062 0.639999 388.47 0.639999H406.774C407.755 0.639999 408.246 1.408 408.246 2.944V4.224C408.246 5.76 407.755 6.528 406.774 6.528H393.334V19.584H405.366C406.304 19.584 406.774 20.352 406.774 21.888V23.168C406.774 24.704 406.304 25.472 405.366 25.472H393.334V39.552H406.774C407.755 39.552 408.246 40.32 408.246 41.856V43.136C408.246 44.672 407.755 45.44 406.774 45.44H388.47Z"/></clipPath><linearGradient id="paint0_diamond_22_92" x1="0" y1="0" x2="500" y2="500" gradientUnits="userSpaceOnUse">
<stop stop-color="#572D91"/>
<stop offset="1" stop-color="#E9D0FF"/>
</linearGradient>
</defs>
</svg>
