<svg viewBox="0 0 206 37" fill="none" xmlns="http://www.w3.org/2000/svg">
<g clip-path="url(#paint0_diamond_52_7_clip_path)" data-figma-skip-parse="true"><g transform="matrix(0.279283 0.0005 -8.1165e-05 0.0600783 103 18.5)"><rect x="0" y="0" width="311.606" height="327.168" fill="url(#paint0_diamond_52_7)" opacity="1" shape-rendering="crispEdges"/><rect x="0" y="0" width="311.606" height="327.168" transform="scale(1 -1)" fill="url(#paint0_diamond_52_7)" opacity="1" shape-rendering="crispEdges"/><rect x="0" y="0" width="311.606" height="327.168" transform="scale(-1 1)" fill="url(#paint0_diamond_52_7)" opacity="1" shape-rendering="crispEdges"/><rect x="0" y="0" width="311.606" height="327.168" transform="scale(-1)" fill="url(#paint0_diamond_52_7)" opacity="1" shape-rendering="crispEdges"/></g></g><path d="M23.3519 30.192C22.4559 30.192 21.6025 30.096 20.7919 29.904C19.9812 29.6907 19.2452 29.3707 18.5839 28.944C18.0932 28.6667 17.8479 28.3253 17.8479 27.92C17.8479 27.7493 17.8799 27.504 17.9439 27.184C18.0292 26.8427 18.1465 26.544 18.2959 26.288C18.4452 26.0107 18.6159 25.872 18.8079 25.872C18.9999 25.872 19.2985 25.9893 19.7039 26.224C20.1092 26.4373 20.6212 26.6613 21.2399 26.896C21.8585 27.1093 22.5839 27.216 23.4159 27.216C24.3545 27.216 25.1439 26.9493 25.7839 26.416C26.4239 25.8827 26.7439 25.072 26.7439 23.984C26.7439 23.2373 26.5732 22.6293 26.2319 22.16C25.8905 21.6693 25.4319 21.264 24.8559 20.944C24.3012 20.6027 23.7039 20.2613 23.0639 19.92C22.2319 19.5147 21.4532 19.056 20.7279 18.544C20.0025 18.032 19.4159 17.392 18.9679 16.624C18.5199 15.8347 18.2959 14.8213 18.2959 13.584C18.2959 12.2827 18.5839 11.1627 19.1599 10.224C19.7359 9.264 20.5252 8.53867 21.5279 8.048C22.5305 7.536 23.6719 7.28 24.9519 7.28C25.6345 7.28 26.3172 7.36533 26.9999 7.536C27.7039 7.70667 28.3225 7.94133 28.8559 8.24C29.0265 8.34667 29.1545 8.45333 29.2399 8.56C29.3252 8.66667 29.3679 8.816 29.3679 9.008C29.3679 9.17867 29.3359 9.424 29.2719 9.744C29.2079 10.064 29.1119 10.3627 28.9839 10.64C28.8772 10.896 28.7385 11.024 28.5679 11.024C28.3332 11.024 27.9065 10.896 27.2879 10.64C26.6692 10.3627 25.8905 10.224 24.9519 10.224C23.9705 10.224 23.1705 10.5013 22.5519 11.056C21.9332 11.5893 21.6239 12.336 21.6239 13.296C21.6239 14.0427 21.8052 14.6507 22.1679 15.12C22.5305 15.5893 22.9999 15.9947 23.5759 16.336C24.1519 16.656 24.7705 16.976 25.4319 17.296C26.2425 17.744 26.9999 18.224 27.7039 18.736C28.4292 19.248 29.0052 19.8987 29.4319 20.688C29.8799 21.4773 30.1039 22.4907 30.1039 23.728C30.1039 25.6907 29.4852 27.2587 28.2479 28.432C27.0319 29.6053 25.3999 30.192 23.3519 30.192ZM43.6054 30.224C40.7254 30.224 38.6027 29.296 37.2374 27.44C35.8934 25.5627 35.2214 22.6613 35.2214 18.736C35.2214 14.896 35.9147 12.048 37.3014 10.192C38.688 8.31467 40.8214 7.376 43.7014 7.376C44.2987 7.376 44.8747 7.42933 45.4294 7.536C45.984 7.64267 46.4427 7.77067 46.8054 7.92C47.2534 8.06933 47.4774 8.35733 47.4774 8.784C47.4774 9.18933 47.4134 9.616 47.2854 10.064C47.1574 10.512 46.944 10.736 46.6454 10.736C46.3894 10.736 46.0267 10.672 45.5574 10.544C45.1094 10.416 44.512 10.352 43.7654 10.352C41.9947 10.352 40.7147 11.0133 39.9254 12.336C39.136 13.6587 38.7414 15.792 38.7414 18.736C38.7414 21.7227 39.136 23.888 39.9254 25.232C40.736 26.5547 42.016 27.216 43.7654 27.216C44.6827 27.216 45.3974 27.12 45.9094 26.928C46.4214 26.736 46.784 26.64 46.9974 26.64C47.2747 26.64 47.488 26.864 47.6374 27.312C47.7867 27.7387 47.8614 28.176 47.8614 28.624C47.8614 28.7947 47.8187 28.9547 47.7334 29.104C47.648 29.2533 47.4774 29.3813 47.2214 29.488C46.7947 29.68 46.272 29.8507 45.6534 30C45.0347 30.1493 44.352 30.224 43.6054 30.224ZM52.7956 30.064C51.985 30.064 51.5796 29.8613 51.5796 29.456C51.5796 29.3493 51.601 29.168 51.6436 28.912L57.1476 8.304C57.297 7.792 57.7983 7.536 58.6516 7.536H60.0596C60.913 7.536 61.4143 7.792 61.5636 8.304L67.0356 28.912C67.057 29.0613 67.0783 29.1787 67.0996 29.264C67.121 29.328 67.1316 29.392 67.1316 29.456C67.1316 29.8613 66.7263 30.064 65.9156 30.064H65.0196C64.6783 30.064 64.3796 30.0213 64.1236 29.936C63.889 29.8507 63.7503 29.6907 63.7076 29.456L62.5236 24.592H56.1876L54.9716 29.456C54.929 29.6907 54.7796 29.8507 54.5236 29.936C54.289 30.0213 54.001 30.064 53.6596 30.064H52.7956ZM58.8756 13.584L56.8596 21.776H61.8196L59.8036 13.584C59.7183 13.264 59.6436 12.9227 59.5796 12.56C59.537 12.1973 59.4836 11.8453 59.4196 11.504H59.2596C59.217 11.8453 59.1636 12.1973 59.0996 12.56C59.0356 12.9227 58.961 13.264 58.8756 13.584ZM74.2111 30.064C73.6778 30.064 73.2938 30 73.0591 29.872C72.8458 29.7227 72.7391 29.52 72.7391 29.264V8.336C72.7391 7.80267 73.2298 7.536 74.2111 7.536H74.9791C75.4485 7.536 75.8005 7.58933 76.0351 7.696C76.2911 7.80267 76.4938 7.99467 76.6431 8.272L82.8191 21.136C82.9471 21.4133 83.0751 21.7547 83.2031 22.16C83.3525 22.544 83.4805 22.9067 83.5871 23.248L83.7151 23.216C83.6938 22.96 83.6618 22.6293 83.6191 22.224C83.5978 21.8187 83.5871 21.424 83.5871 21.04V8.336C83.5871 8.08 83.6938 7.888 83.9071 7.76C84.1418 7.61067 84.5258 7.536 85.0591 7.536H85.4751C86.0085 7.536 86.3818 7.61067 86.5951 7.76C86.8298 7.888 86.9471 8.08 86.9471 8.336V29.264C86.9471 29.7973 86.4565 30.064 85.4751 30.064H84.6111C84.1631 30.064 83.8218 30.0213 83.5871 29.936C83.3738 29.8293 83.1925 29.6373 83.0431 29.36L76.8351 16.4C76.7285 16.144 76.6005 15.824 76.4511 15.44C76.3231 15.056 76.2058 14.6827 76.0991 14.32L75.9711 14.352C75.9925 14.672 76.0138 15.024 76.0351 15.408C76.0778 15.792 76.0991 16.1653 76.0991 16.528V29.264C76.0991 29.52 75.9818 29.7227 75.7471 29.872C75.5338 30 75.1605 30.064 74.6271 30.064H74.2111ZM103.893 30.064C103.36 30.064 102.976 30 102.741 29.872C102.506 29.7227 102.389 29.52 102.389 29.264V8.336C102.389 8.08 102.506 7.888 102.741 7.76C102.976 7.61067 103.36 7.536 103.893 7.536H104.405C104.938 7.536 105.312 7.61067 105.525 7.76C105.76 7.888 105.877 8.08 105.877 8.336V29.264C105.877 29.52 105.76 29.7227 105.525 29.872C105.312 30 104.938 30.064 104.405 30.064H103.893ZM115.217 30.064C114.684 30.064 114.3 30 114.065 29.872C113.852 29.7227 113.745 29.52 113.745 29.264V8.336C113.745 8.08 113.852 7.888 114.065 7.76C114.3 7.61067 114.684 7.536 115.217 7.536H116.017C116.572 7.536 116.988 7.58933 117.265 7.696C117.543 7.80267 117.724 7.97333 117.809 8.208L121.553 17.424C121.681 17.7227 121.788 18.0213 121.873 18.32C121.98 18.5973 122.065 18.864 122.129 19.12C122.172 18.864 122.247 18.5973 122.353 18.32C122.46 18.0213 122.567 17.7227 122.673 17.424L126.449 8.208C126.535 7.97333 126.716 7.80267 126.993 7.696C127.271 7.58933 127.687 7.536 128.241 7.536H129.041C129.575 7.536 129.948 7.61067 130.161 7.76C130.396 7.888 130.513 8.08 130.513 8.336V29.264C130.513 29.52 130.396 29.7227 130.161 29.872C129.948 30 129.575 30.064 129.041 30.064H128.625C128.092 30.064 127.708 30 127.473 29.872C127.26 29.7227 127.153 29.52 127.153 29.264V16.56C127.153 15.8773 127.207 15.1733 127.313 14.448L127.185 14.384C127.057 14.7253 126.929 15.056 126.801 15.376C126.673 15.696 126.535 16.0373 126.385 16.4L124.049 22.16C123.921 22.4587 123.719 22.6507 123.441 22.736C123.164 22.8213 122.801 22.864 122.353 22.864H121.873C121.425 22.864 121.063 22.8213 120.785 22.736C120.508 22.6507 120.316 22.4587 120.209 22.16L117.873 16.4C117.724 16.0587 117.585 15.728 117.457 15.408C117.351 15.0667 117.233 14.7253 117.105 14.384L116.977 14.448C117.063 15.1947 117.105 15.8987 117.105 16.56V29.264C117.105 29.52 116.988 29.7227 116.753 29.872C116.54 30 116.167 30.064 115.633 30.064H115.217ZM137.327 30.064C136.516 30.064 136.111 29.8613 136.111 29.456C136.111 29.3493 136.132 29.168 136.175 28.912L141.679 8.304C141.828 7.792 142.33 7.536 143.183 7.536H144.591C145.444 7.536 145.946 7.792 146.095 8.304L151.567 28.912C151.588 29.0613 151.61 29.1787 151.631 29.264C151.652 29.328 151.663 29.392 151.663 29.456C151.663 29.8613 151.258 30.064 150.447 30.064H149.551C149.21 30.064 148.911 30.0213 148.655 29.936C148.42 29.8507 148.282 29.6907 148.239 29.456L147.055 24.592H140.719L139.503 29.456C139.46 29.6907 139.311 29.8507 139.055 29.936C138.82 30.0213 138.532 30.064 138.191 30.064H137.327ZM143.407 13.584L141.391 21.776H146.351L144.335 13.584C144.25 13.264 144.175 12.9227 144.111 12.56C144.068 12.1973 144.015 11.8453 143.951 11.504H143.791C143.748 11.8453 143.695 12.1973 143.631 12.56C143.567 12.9227 143.492 13.264 143.407 13.584ZM164.47 30.224C161.718 30.224 159.66 29.296 158.294 27.44C156.929 25.5627 156.246 22.6613 156.246 18.736C156.246 14.896 156.961 12.048 158.39 10.192C159.841 8.31467 162.06 7.376 165.046 7.376C165.729 7.376 166.38 7.42933 166.998 7.536C167.638 7.64267 168.15 7.77067 168.534 7.92C168.982 8.09067 169.206 8.37867 169.206 8.784C169.206 9.18933 169.121 9.616 168.95 10.064C168.801 10.512 168.588 10.736 168.31 10.736C168.033 10.736 167.649 10.672 167.158 10.544C166.668 10.416 165.985 10.352 165.11 10.352C163.233 10.352 161.868 11.0133 161.014 12.336C160.182 13.6587 159.766 15.792 159.766 18.736C159.766 21.7867 160.161 23.9733 160.95 25.296C161.74 26.6187 163.02 27.28 164.79 27.28C165.174 27.28 165.548 27.248 165.91 27.184C166.294 27.12 166.646 27.0453 166.966 26.96V20.496H164.278C163.788 20.496 163.542 20.112 163.542 19.344V18.704C163.542 17.936 163.788 17.552 164.278 17.552H169.27C169.974 17.552 170.326 17.904 170.326 18.608V27.728C170.326 27.984 170.262 28.208 170.134 28.4C170.028 28.5707 169.836 28.752 169.558 28.944C168.961 29.328 168.193 29.6373 167.254 29.872C166.337 30.1067 165.409 30.224 164.47 30.224ZM178.495 30C177.791 30 177.439 29.648 177.439 28.944V8.656C177.439 7.952 177.791 7.6 178.495 7.6H187.647C188.138 7.6 188.383 7.984 188.383 8.752V9.392C188.383 10.16 188.138 10.544 187.647 10.544H180.927V17.072H186.943C187.412 17.072 187.647 17.456 187.647 18.224V18.864C187.647 19.632 187.412 20.016 186.943 20.016H180.927V27.056H187.647C188.138 27.056 188.383 27.44 188.383 28.208V28.848C188.383 29.616 188.138 30 187.647 30H178.495Z" data-figma-gradient-fill="{&#34;type&#34;:&#34;GRADIENT_DIAMOND&#34;,&#34;stops&#34;:[{&#34;color&#34;:{&#34;r&#34;:0.34143927693367004,&#34;g&#34;:0.17814230918884277,&#34;b&#34;:0.57005488872528076,&#34;a&#34;:1.0},&#34;position&#34;:0.0},{&#34;color&#34;:{&#34;r&#34;:0.95192295312881470,&#34;g&#34;:0.50538194179534912,&#34;b&#34;:0.53515130281448364,&#34;a&#34;:1.0},&#34;position&#34;:1.0}],&#34;stopsVar&#34;:[{&#34;color&#34;:{&#34;r&#34;:0.34143927693367004,&#34;g&#34;:0.17814230918884277,&#34;b&#34;:0.57005488872528076,&#34;a&#34;:1.0},&#34;position&#34;:0.0},{&#34;color&#34;:{&#34;r&#34;:0.95192295312881470,&#34;g&#34;:0.50538194179534912,&#34;b&#34;:0.53515130281448364,&#34;a&#34;:1.0},&#34;position&#34;:1.0}],&#34;transform&#34;:{&#34;m00&#34;:558.5656738281250,&#34;m01&#34;:-0.16232992708683014,&#34;m02&#34;:-176.20164489746094,&#34;m10&#34;:1.0000007152557373,&#34;m11&#34;:120.15656280517578,&#34;m12&#34;:-42.078285217285156},&#34;opacity&#34;:1.0,&#34;blendMode&#34;:&#34;NORMAL&#34;,&#34;visible&#34;:true}"/>
<defs>
<clipPath id="paint0_diamond_52_7_clip_path"><path d="M23.3519 30.192C22.4559 30.192 21.6025 30.096 20.7919 29.904C19.9812 29.6907 19.2452 29.3707 18.5839 28.944C18.0932 28.6667 17.8479 28.3253 17.8479 27.92C17.8479 27.7493 17.8799 27.504 17.9439 27.184C18.0292 26.8427 18.1465 26.544 18.2959 26.288C18.4452 26.0107 18.6159 25.872 18.8079 25.872C18.9999 25.872 19.2985 25.9893 19.7039 26.224C20.1092 26.4373 20.6212 26.6613 21.2399 26.896C21.8585 27.1093 22.5839 27.216 23.4159 27.216C24.3545 27.216 25.1439 26.9493 25.7839 26.416C26.4239 25.8827 26.7439 25.072 26.7439 23.984C26.7439 23.2373 26.5732 22.6293 26.2319 22.16C25.8905 21.6693 25.4319 21.264 24.8559 20.944C24.3012 20.6027 23.7039 20.2613 23.0639 19.92C22.2319 19.5147 21.4532 19.056 20.7279 18.544C20.0025 18.032 19.4159 17.392 18.9679 16.624C18.5199 15.8347 18.2959 14.8213 18.2959 13.584C18.2959 12.2827 18.5839 11.1627 19.1599 10.224C19.7359 9.264 20.5252 8.53867 21.5279 8.048C22.5305 7.536 23.6719 7.28 24.9519 7.28C25.6345 7.28 26.3172 7.36533 26.9999 7.536C27.7039 7.70667 28.3225 7.94133 28.8559 8.24C29.0265 8.34667 29.1545 8.45333 29.2399 8.56C29.3252 8.66667 29.3679 8.816 29.3679 9.008C29.3679 9.17867 29.3359 9.424 29.2719 9.744C29.2079 10.064 29.1119 10.3627 28.9839 10.64C28.8772 10.896 28.7385 11.024 28.5679 11.024C28.3332 11.024 27.9065 10.896 27.2879 10.64C26.6692 10.3627 25.8905 10.224 24.9519 10.224C23.9705 10.224 23.1705 10.5013 22.5519 11.056C21.9332 11.5893 21.6239 12.336 21.6239 13.296C21.6239 14.0427 21.8052 14.6507 22.1679 15.12C22.5305 15.5893 22.9999 15.9947 23.5759 16.336C24.1519 16.656 24.7705 16.976 25.4319 17.296C26.2425 17.744 26.9999 18.224 27.7039 18.736C28.4292 19.248 29.0052 19.8987 29.4319 20.688C29.8799 21.4773 30.1039 22.4907 30.1039 23.728C30.1039 25.6907 29.4852 27.2587 28.2479 28.432C27.0319 29.6053 25.3999 30.192 23.3519 30.192ZM43.6054 30.224C40.7254 30.224 38.6027 29.296 37.2374 27.44C35.8934 25.5627 35.2214 22.6613 35.2214 18.736C35.2214 14.896 35.9147 12.048 37.3014 10.192C38.688 8.31467 40.8214 7.376 43.7014 7.376C44.2987 7.376 44.8747 7.42933 45.4294 7.536C45.984 7.64267 46.4427 7.77067 46.8054 7.92C47.2534 8.06933 47.4774 8.35733 47.4774 8.784C47.4774 9.18933 47.4134 9.616 47.2854 10.064C47.1574 10.512 46.944 10.736 46.6454 10.736C46.3894 10.736 46.0267 10.672 45.5574 10.544C45.1094 10.416 44.512 10.352 43.7654 10.352C41.9947 10.352 40.7147 11.0133 39.9254 12.336C39.136 13.6587 38.7414 15.792 38.7414 18.736C38.7414 21.7227 39.136 23.888 39.9254 25.232C40.736 26.5547 42.016 27.216 43.7654 27.216C44.6827 27.216 45.3974 27.12 45.9094 26.928C46.4214 26.736 46.784 26.64 46.9974 26.64C47.2747 26.64 47.488 26.864 47.6374 27.312C47.7867 27.7387 47.8614 28.176 47.8614 28.624C47.8614 28.7947 47.8187 28.9547 47.7334 29.104C47.648 29.2533 47.4774 29.3813 47.2214 29.488C46.7947 29.68 46.272 29.8507 45.6534 30C45.0347 30.1493 44.352 30.224 43.6054 30.224ZM52.7956 30.064C51.985 30.064 51.5796 29.8613 51.5796 29.456C51.5796 29.3493 51.601 29.168 51.6436 28.912L57.1476 8.304C57.297 7.792 57.7983 7.536 58.6516 7.536H60.0596C60.913 7.536 61.4143 7.792 61.5636 8.304L67.0356 28.912C67.057 29.0613 67.0783 29.1787 67.0996 29.264C67.121 29.328 67.1316 29.392 67.1316 29.456C67.1316 29.8613 66.7263 30.064 65.9156 30.064H65.0196C64.6783 30.064 64.3796 30.0213 64.1236 29.936C63.889 29.8507 63.7503 29.6907 63.7076 29.456L62.5236 24.592H56.1876L54.9716 29.456C54.929 29.6907 54.7796 29.8507 54.5236 29.936C54.289 30.0213 54.001 30.064 53.6596 30.064H52.7956ZM58.8756 13.584L56.8596 21.776H61.8196L59.8036 13.584C59.7183 13.264 59.6436 12.9227 59.5796 12.56C59.537 12.1973 59.4836 11.8453 59.4196 11.504H59.2596C59.217 11.8453 59.1636 12.1973 59.0996 12.56C59.0356 12.9227 58.961 13.264 58.8756 13.584ZM74.2111 30.064C73.6778 30.064 73.2938 30 73.0591 29.872C72.8458 29.7227 72.7391 29.52 72.7391 29.264V8.336C72.7391 7.80267 73.2298 7.536 74.2111 7.536H74.9791C75.4485 7.536 75.8005 7.58933 76.0351 7.696C76.2911 7.80267 76.4938 7.99467 76.6431 8.272L82.8191 21.136C82.9471 21.4133 83.0751 21.7547 83.2031 22.16C83.3525 22.544 83.4805 22.9067 83.5871 23.248L83.7151 23.216C83.6938 22.96 83.6618 22.6293 83.6191 22.224C83.5978 21.8187 83.5871 21.424 83.5871 21.04V8.336C83.5871 8.08 83.6938 7.888 83.9071 7.76C84.1418 7.61067 84.5258 7.536 85.0591 7.536H85.4751C86.0085 7.536 86.3818 7.61067 86.5951 7.76C86.8298 7.888 86.9471 8.08 86.9471 8.336V29.264C86.9471 29.7973 86.4565 30.064 85.4751 30.064H84.6111C84.1631 30.064 83.8218 30.0213 83.5871 29.936C83.3738 29.8293 83.1925 29.6373 83.0431 29.36L76.8351 16.4C76.7285 16.144 76.6005 15.824 76.4511 15.44C76.3231 15.056 76.2058 14.6827 76.0991 14.32L75.9711 14.352C75.9925 14.672 76.0138 15.024 76.0351 15.408C76.0778 15.792 76.0991 16.1653 76.0991 16.528V29.264C76.0991 29.52 75.9818 29.7227 75.7471 29.872C75.5338 30 75.1605 30.064 74.6271 30.064H74.2111ZM103.893 30.064C103.36 30.064 102.976 30 102.741 29.872C102.506 29.7227 102.389 29.52 102.389 29.264V8.336C102.389 8.08 102.506 7.888 102.741 7.76C102.976 7.61067 103.36 7.536 103.893 7.536H104.405C104.938 7.536 105.312 7.61067 105.525 7.76C105.76 7.888 105.877 8.08 105.877 8.336V29.264C105.877 29.52 105.76 29.7227 105.525 29.872C105.312 30 104.938 30.064 104.405 30.064H103.893ZM115.217 30.064C114.684 30.064 114.3 30 114.065 29.872C113.852 29.7227 113.745 29.52 113.745 29.264V8.336C113.745 8.08 113.852 7.888 114.065 7.76C114.3 7.61067 114.684 7.536 115.217 7.536H116.017C116.572 7.536 116.988 7.58933 117.265 7.696C117.543 7.80267 117.724 7.97333 117.809 8.208L121.553 17.424C121.681 17.7227 121.788 18.0213 121.873 18.32C121.98 18.5973 122.065 18.864 122.129 19.12C122.172 18.864 122.247 18.5973 122.353 18.32C122.46 18.0213 122.567 17.7227 122.673 17.424L126.449 8.208C126.535 7.97333 126.716 7.80267 126.993 7.696C127.271 7.58933 127.687 7.536 128.241 7.536H129.041C129.575 7.536 129.948 7.61067 130.161 7.76C130.396 7.888 130.513 8.08 130.513 8.336V29.264C130.513 29.52 130.396 29.7227 130.161 29.872C129.948 30 129.575 30.064 129.041 30.064H128.625C128.092 30.064 127.708 30 127.473 29.872C127.26 29.7227 127.153 29.52 127.153 29.264V16.56C127.153 15.8773 127.207 15.1733 127.313 14.448L127.185 14.384C127.057 14.7253 126.929 15.056 126.801 15.376C126.673 15.696 126.535 16.0373 126.385 16.4L124.049 22.16C123.921 22.4587 123.719 22.6507 123.441 22.736C123.164 22.8213 122.801 22.864 122.353 22.864H121.873C121.425 22.864 121.063 22.8213 120.785 22.736C120.508 22.6507 120.316 22.4587 120.209 22.16L117.873 16.4C117.724 16.0587 117.585 15.728 117.457 15.408C117.351 15.0667 117.233 14.7253 117.105 14.384L116.977 14.448C117.063 15.1947 117.105 15.8987 117.105 16.56V29.264C117.105 29.52 116.988 29.7227 116.753 29.872C116.54 30 116.167 30.064 115.633 30.064H115.217ZM137.327 30.064C136.516 30.064 136.111 29.8613 136.111 29.456C136.111 29.3493 136.132 29.168 136.175 28.912L141.679 8.304C141.828 7.792 142.33 7.536 143.183 7.536H144.591C145.444 7.536 145.946 7.792 146.095 8.304L151.567 28.912C151.588 29.0613 151.61 29.1787 151.631 29.264C151.652 29.328 151.663 29.392 151.663 29.456C151.663 29.8613 151.258 30.064 150.447 30.064H149.551C149.21 30.064 148.911 30.0213 148.655 29.936C148.42 29.8507 148.282 29.6907 148.239 29.456L147.055 24.592H140.719L139.503 29.456C139.46 29.6907 139.311 29.8507 139.055 29.936C138.82 30.0213 138.532 30.064 138.191 30.064H137.327ZM143.407 13.584L141.391 21.776H146.351L144.335 13.584C144.25 13.264 144.175 12.9227 144.111 12.56C144.068 12.1973 144.015 11.8453 143.951 11.504H143.791C143.748 11.8453 143.695 12.1973 143.631 12.56C143.567 12.9227 143.492 13.264 143.407 13.584ZM164.47 30.224C161.718 30.224 159.66 29.296 158.294 27.44C156.929 25.5627 156.246 22.6613 156.246 18.736C156.246 14.896 156.961 12.048 158.39 10.192C159.841 8.31467 162.06 7.376 165.046 7.376C165.729 7.376 166.38 7.42933 166.998 7.536C167.638 7.64267 168.15 7.77067 168.534 7.92C168.982 8.09067 169.206 8.37867 169.206 8.784C169.206 9.18933 169.121 9.616 168.95 10.064C168.801 10.512 168.588 10.736 168.31 10.736C168.033 10.736 167.649 10.672 167.158 10.544C166.668 10.416 165.985 10.352 165.11 10.352C163.233 10.352 161.868 11.0133 161.014 12.336C160.182 13.6587 159.766 15.792 159.766 18.736C159.766 21.7867 160.161 23.9733 160.95 25.296C161.74 26.6187 163.02 27.28 164.79 27.28C165.174 27.28 165.548 27.248 165.91 27.184C166.294 27.12 166.646 27.0453 166.966 26.96V20.496H164.278C163.788 20.496 163.542 20.112 163.542 19.344V18.704C163.542 17.936 163.788 17.552 164.278 17.552H169.27C169.974 17.552 170.326 17.904 170.326 18.608V27.728C170.326 27.984 170.262 28.208 170.134 28.4C170.028 28.5707 169.836 28.752 169.558 28.944C168.961 29.328 168.193 29.6373 167.254 29.872C166.337 30.1067 165.409 30.224 164.47 30.224ZM178.495 30C177.791 30 177.439 29.648 177.439 28.944V8.656C177.439 7.952 177.791 7.6 178.495 7.6H187.647C188.138 7.6 188.383 7.984 188.383 8.752V9.392C188.383 10.16 188.138 10.544 187.647 10.544H180.927V17.072H186.943C187.412 17.072 187.647 17.456 187.647 18.224V18.864C187.647 19.632 187.412 20.016 186.943 20.016H180.927V27.056H187.647C188.138 27.056 188.383 27.44 188.383 28.208V28.848C188.383 29.616 188.138 30 187.647 30H178.495Z"/></clipPath><linearGradient id="paint0_diamond_52_7" x1="0" y1="0" x2="500" y2="500" gradientUnits="userSpaceOnUse">
<stop stop-color="#572D91"/>
<stop offset="1" stop-color="#F38188"/>
</linearGradient>
</defs>
</svg>
